%TF.GenerationSoftware,KiCad,Pcbnew,(5.1.10)-1*%
%TF.CreationDate,2022-05-21T15:35:01-04:00*%
%TF.ProjectId,Tool_Sensor,546f6f6c-5f53-4656-9e73-6f722e6b6963,rev?*%
%TF.SameCoordinates,Original*%
%TF.FileFunction,Legend,Top*%
%TF.FilePolarity,Positive*%
%FSLAX46Y46*%
G04 Gerber Fmt 4.6, Leading zero omitted, Abs format (unit mm)*
G04 Created by KiCad (PCBNEW (5.1.10)-1) date 2022-05-21 15:35:01*
%MOMM*%
%LPD*%
G01*
G04 APERTURE LIST*
%ADD10C,0.304800*%
%ADD11C,0.150000*%
%ADD12C,0.127000*%
%ADD13C,0.200000*%
%ADD14C,0.120000*%
G04 APERTURE END LIST*
D10*
X112050285Y-83977238D02*
X112727619Y-86009238D01*
X113404952Y-83977238D01*
X114856380Y-85912476D02*
X114662857Y-86009238D01*
X114275809Y-86009238D01*
X114082285Y-85912476D01*
X113985523Y-85718952D01*
X113985523Y-84944857D01*
X114082285Y-84751333D01*
X114275809Y-84654571D01*
X114662857Y-84654571D01*
X114856380Y-84751333D01*
X114953142Y-84944857D01*
X114953142Y-85138380D01*
X113985523Y-85331904D01*
X116694857Y-85912476D02*
X116501333Y-86009238D01*
X116114285Y-86009238D01*
X115920761Y-85912476D01*
X115824000Y-85815714D01*
X115727238Y-85622190D01*
X115727238Y-85041619D01*
X115824000Y-84848095D01*
X115920761Y-84751333D01*
X116114285Y-84654571D01*
X116501333Y-84654571D01*
X116694857Y-84751333D01*
X117275428Y-84654571D02*
X118049523Y-84654571D01*
X117565714Y-83977238D02*
X117565714Y-85718952D01*
X117662476Y-85912476D01*
X117856000Y-86009238D01*
X118049523Y-86009238D01*
X119017142Y-86009238D02*
X118823619Y-85912476D01*
X118726857Y-85815714D01*
X118630095Y-85622190D01*
X118630095Y-85041619D01*
X118726857Y-84848095D01*
X118823619Y-84751333D01*
X119017142Y-84654571D01*
X119307428Y-84654571D01*
X119500952Y-84751333D01*
X119597714Y-84848095D01*
X119694476Y-85041619D01*
X119694476Y-85622190D01*
X119597714Y-85815714D01*
X119500952Y-85912476D01*
X119307428Y-86009238D01*
X119017142Y-86009238D01*
X120565333Y-86009238D02*
X120565333Y-84654571D01*
X120565333Y-85041619D02*
X120662095Y-84848095D01*
X120758857Y-84751333D01*
X120952380Y-84654571D01*
X121145904Y-84654571D01*
X123274666Y-85912476D02*
X123564952Y-86009238D01*
X124048761Y-86009238D01*
X124242285Y-85912476D01*
X124339047Y-85815714D01*
X124435809Y-85622190D01*
X124435809Y-85428666D01*
X124339047Y-85235142D01*
X124242285Y-85138380D01*
X124048761Y-85041619D01*
X123661714Y-84944857D01*
X123468190Y-84848095D01*
X123371428Y-84751333D01*
X123274666Y-84557809D01*
X123274666Y-84364285D01*
X123371428Y-84170761D01*
X123468190Y-84074000D01*
X123661714Y-83977238D01*
X124145523Y-83977238D01*
X124435809Y-84074000D01*
X125306666Y-84654571D02*
X125306666Y-86686571D01*
X125306666Y-84751333D02*
X125500190Y-84654571D01*
X125887238Y-84654571D01*
X126080761Y-84751333D01*
X126177523Y-84848095D01*
X126274285Y-85041619D01*
X126274285Y-85622190D01*
X126177523Y-85815714D01*
X126080761Y-85912476D01*
X125887238Y-86009238D01*
X125500190Y-86009238D01*
X125306666Y-85912476D01*
X128016000Y-86009238D02*
X128016000Y-84944857D01*
X127919238Y-84751333D01*
X127725714Y-84654571D01*
X127338666Y-84654571D01*
X127145142Y-84751333D01*
X128016000Y-85912476D02*
X127822476Y-86009238D01*
X127338666Y-86009238D01*
X127145142Y-85912476D01*
X127048380Y-85718952D01*
X127048380Y-85525428D01*
X127145142Y-85331904D01*
X127338666Y-85235142D01*
X127822476Y-85235142D01*
X128016000Y-85138380D01*
X129854476Y-85912476D02*
X129660952Y-86009238D01*
X129273904Y-86009238D01*
X129080380Y-85912476D01*
X128983619Y-85815714D01*
X128886857Y-85622190D01*
X128886857Y-85041619D01*
X128983619Y-84848095D01*
X129080380Y-84751333D01*
X129273904Y-84654571D01*
X129660952Y-84654571D01*
X129854476Y-84751333D01*
X131499428Y-85912476D02*
X131305904Y-86009238D01*
X130918857Y-86009238D01*
X130725333Y-85912476D01*
X130628571Y-85718952D01*
X130628571Y-84944857D01*
X130725333Y-84751333D01*
X130918857Y-84654571D01*
X131305904Y-84654571D01*
X131499428Y-84751333D01*
X131596190Y-84944857D01*
X131596190Y-85138380D01*
X130628571Y-85331904D01*
D11*
X112000357Y-88417380D02*
X112238452Y-89417380D01*
X112428928Y-88703095D01*
X112619404Y-89417380D01*
X112857500Y-88417380D01*
X113381309Y-89417380D02*
X113286071Y-89369761D01*
X113238452Y-89322142D01*
X113190833Y-89226904D01*
X113190833Y-88941190D01*
X113238452Y-88845952D01*
X113286071Y-88798333D01*
X113381309Y-88750714D01*
X113524166Y-88750714D01*
X113619404Y-88798333D01*
X113667023Y-88845952D01*
X113714642Y-88941190D01*
X113714642Y-89226904D01*
X113667023Y-89322142D01*
X113619404Y-89369761D01*
X113524166Y-89417380D01*
X113381309Y-89417380D01*
X114286071Y-89417380D02*
X114190833Y-89369761D01*
X114143214Y-89322142D01*
X114095595Y-89226904D01*
X114095595Y-88941190D01*
X114143214Y-88845952D01*
X114190833Y-88798333D01*
X114286071Y-88750714D01*
X114428928Y-88750714D01*
X114524166Y-88798333D01*
X114571785Y-88845952D01*
X114619404Y-88941190D01*
X114619404Y-89226904D01*
X114571785Y-89322142D01*
X114524166Y-89369761D01*
X114428928Y-89417380D01*
X114286071Y-89417380D01*
X115476547Y-89417380D02*
X115476547Y-88417380D01*
X115476547Y-89369761D02*
X115381309Y-89417380D01*
X115190833Y-89417380D01*
X115095595Y-89369761D01*
X115047976Y-89322142D01*
X115000357Y-89226904D01*
X115000357Y-88941190D01*
X115047976Y-88845952D01*
X115095595Y-88798333D01*
X115190833Y-88750714D01*
X115381309Y-88750714D01*
X115476547Y-88798333D01*
X116667023Y-89369761D02*
X116809880Y-89417380D01*
X117047976Y-89417380D01*
X117143214Y-89369761D01*
X117190833Y-89322142D01*
X117238452Y-89226904D01*
X117238452Y-89131666D01*
X117190833Y-89036428D01*
X117143214Y-88988809D01*
X117047976Y-88941190D01*
X116857500Y-88893571D01*
X116762261Y-88845952D01*
X116714642Y-88798333D01*
X116667023Y-88703095D01*
X116667023Y-88607857D01*
X116714642Y-88512619D01*
X116762261Y-88465000D01*
X116857500Y-88417380D01*
X117095595Y-88417380D01*
X117238452Y-88465000D01*
X117667023Y-89417380D02*
X117667023Y-88417380D01*
X118095595Y-89417380D02*
X118095595Y-88893571D01*
X118047976Y-88798333D01*
X117952738Y-88750714D01*
X117809880Y-88750714D01*
X117714642Y-88798333D01*
X117667023Y-88845952D01*
X118714642Y-89417380D02*
X118619404Y-89369761D01*
X118571785Y-89322142D01*
X118524166Y-89226904D01*
X118524166Y-88941190D01*
X118571785Y-88845952D01*
X118619404Y-88798333D01*
X118714642Y-88750714D01*
X118857500Y-88750714D01*
X118952738Y-88798333D01*
X119000357Y-88845952D01*
X119047976Y-88941190D01*
X119047976Y-89226904D01*
X119000357Y-89322142D01*
X118952738Y-89369761D01*
X118857500Y-89417380D01*
X118714642Y-89417380D01*
X119476547Y-88750714D02*
X119476547Y-89750714D01*
X119476547Y-88798333D02*
X119571785Y-88750714D01*
X119762261Y-88750714D01*
X119857500Y-88798333D01*
X119905119Y-88845952D01*
X119952738Y-88941190D01*
X119952738Y-89226904D01*
X119905119Y-89322142D01*
X119857500Y-89369761D01*
X119762261Y-89417380D01*
X119571785Y-89417380D01*
X119476547Y-89369761D01*
X121143214Y-89417380D02*
X121143214Y-88417380D01*
X121381309Y-88417380D01*
X121524166Y-88465000D01*
X121619404Y-88560238D01*
X121667023Y-88655476D01*
X121714642Y-88845952D01*
X121714642Y-88988809D01*
X121667023Y-89179285D01*
X121619404Y-89274523D01*
X121524166Y-89369761D01*
X121381309Y-89417380D01*
X121143214Y-89417380D01*
X122571785Y-88750714D02*
X122571785Y-89417380D01*
X122143214Y-88750714D02*
X122143214Y-89274523D01*
X122190833Y-89369761D01*
X122286071Y-89417380D01*
X122428928Y-89417380D01*
X122524166Y-89369761D01*
X122571785Y-89322142D01*
X123000357Y-89369761D02*
X123095595Y-89417380D01*
X123286071Y-89417380D01*
X123381309Y-89369761D01*
X123428928Y-89274523D01*
X123428928Y-89226904D01*
X123381309Y-89131666D01*
X123286071Y-89084047D01*
X123143214Y-89084047D01*
X123047976Y-89036428D01*
X123000357Y-88941190D01*
X123000357Y-88893571D01*
X123047976Y-88798333D01*
X123143214Y-88750714D01*
X123286071Y-88750714D01*
X123381309Y-88798333D01*
X123714642Y-88750714D02*
X124095595Y-88750714D01*
X123857500Y-88417380D02*
X123857500Y-89274523D01*
X123905119Y-89369761D01*
X124000357Y-89417380D01*
X124095595Y-89417380D01*
X125762261Y-89322142D02*
X125714642Y-89369761D01*
X125571785Y-89417380D01*
X125476547Y-89417380D01*
X125333690Y-89369761D01*
X125238452Y-89274523D01*
X125190833Y-89179285D01*
X125143214Y-88988809D01*
X125143214Y-88845952D01*
X125190833Y-88655476D01*
X125238452Y-88560238D01*
X125333690Y-88465000D01*
X125476547Y-88417380D01*
X125571785Y-88417380D01*
X125714642Y-88465000D01*
X125762261Y-88512619D01*
X126333690Y-89417380D02*
X126238452Y-89369761D01*
X126190833Y-89322142D01*
X126143214Y-89226904D01*
X126143214Y-88941190D01*
X126190833Y-88845952D01*
X126238452Y-88798333D01*
X126333690Y-88750714D01*
X126476547Y-88750714D01*
X126571785Y-88798333D01*
X126619404Y-88845952D01*
X126667023Y-88941190D01*
X126667023Y-89226904D01*
X126619404Y-89322142D01*
X126571785Y-89369761D01*
X126476547Y-89417380D01*
X126333690Y-89417380D01*
X127238452Y-89417380D02*
X127143214Y-89369761D01*
X127095595Y-89274523D01*
X127095595Y-88417380D01*
X127762261Y-89417380D02*
X127667023Y-89369761D01*
X127619404Y-89274523D01*
X127619404Y-88417380D01*
X128524166Y-89369761D02*
X128428928Y-89417380D01*
X128238452Y-89417380D01*
X128143214Y-89369761D01*
X128095595Y-89274523D01*
X128095595Y-88893571D01*
X128143214Y-88798333D01*
X128238452Y-88750714D01*
X128428928Y-88750714D01*
X128524166Y-88798333D01*
X128571785Y-88893571D01*
X128571785Y-88988809D01*
X128095595Y-89084047D01*
X129428928Y-89369761D02*
X129333690Y-89417380D01*
X129143214Y-89417380D01*
X129047976Y-89369761D01*
X129000357Y-89322142D01*
X128952738Y-89226904D01*
X128952738Y-88941190D01*
X129000357Y-88845952D01*
X129047976Y-88798333D01*
X129143214Y-88750714D01*
X129333690Y-88750714D01*
X129428928Y-88798333D01*
X129714642Y-88750714D02*
X130095595Y-88750714D01*
X129857500Y-88417380D02*
X129857500Y-89274523D01*
X129905119Y-89369761D01*
X130000357Y-89417380D01*
X130095595Y-89417380D01*
X130428928Y-89417380D02*
X130428928Y-88750714D01*
X130428928Y-88417380D02*
X130381309Y-88465000D01*
X130428928Y-88512619D01*
X130476547Y-88465000D01*
X130428928Y-88417380D01*
X130428928Y-88512619D01*
X131047976Y-89417380D02*
X130952738Y-89369761D01*
X130905119Y-89322142D01*
X130857500Y-89226904D01*
X130857500Y-88941190D01*
X130905119Y-88845952D01*
X130952738Y-88798333D01*
X131047976Y-88750714D01*
X131190833Y-88750714D01*
X131286071Y-88798333D01*
X131333690Y-88845952D01*
X131381309Y-88941190D01*
X131381309Y-89226904D01*
X131333690Y-89322142D01*
X131286071Y-89369761D01*
X131190833Y-89417380D01*
X131047976Y-89417380D01*
X131809880Y-88750714D02*
X131809880Y-89417380D01*
X131809880Y-88845952D02*
X131857500Y-88798333D01*
X131952738Y-88750714D01*
X132095595Y-88750714D01*
X132190833Y-88798333D01*
X132238452Y-88893571D01*
X132238452Y-89417380D01*
X133428928Y-89369761D02*
X133571785Y-89417380D01*
X133809880Y-89417380D01*
X133905119Y-89369761D01*
X133952738Y-89322142D01*
X134000357Y-89226904D01*
X134000357Y-89131666D01*
X133952738Y-89036428D01*
X133905119Y-88988809D01*
X133809880Y-88941190D01*
X133619404Y-88893571D01*
X133524166Y-88845952D01*
X133476547Y-88798333D01*
X133428928Y-88703095D01*
X133428928Y-88607857D01*
X133476547Y-88512619D01*
X133524166Y-88465000D01*
X133619404Y-88417380D01*
X133857500Y-88417380D01*
X134000357Y-88465000D01*
X134333690Y-88750714D02*
X134571785Y-89417380D01*
X134809880Y-88750714D02*
X134571785Y-89417380D01*
X134476547Y-89655476D01*
X134428928Y-89703095D01*
X134333690Y-89750714D01*
X135143214Y-89369761D02*
X135238452Y-89417380D01*
X135428928Y-89417380D01*
X135524166Y-89369761D01*
X135571785Y-89274523D01*
X135571785Y-89226904D01*
X135524166Y-89131666D01*
X135428928Y-89084047D01*
X135286071Y-89084047D01*
X135190833Y-89036428D01*
X135143214Y-88941190D01*
X135143214Y-88893571D01*
X135190833Y-88798333D01*
X135286071Y-88750714D01*
X135428928Y-88750714D01*
X135524166Y-88798333D01*
X135857500Y-88750714D02*
X136238452Y-88750714D01*
X136000357Y-88417380D02*
X136000357Y-89274523D01*
X136047976Y-89369761D01*
X136143214Y-89417380D01*
X136238452Y-89417380D01*
X136952738Y-89369761D02*
X136857500Y-89417380D01*
X136667023Y-89417380D01*
X136571785Y-89369761D01*
X136524166Y-89274523D01*
X136524166Y-88893571D01*
X136571785Y-88798333D01*
X136667023Y-88750714D01*
X136857500Y-88750714D01*
X136952738Y-88798333D01*
X137000357Y-88893571D01*
X137000357Y-88988809D01*
X136524166Y-89084047D01*
X137428928Y-89417380D02*
X137428928Y-88750714D01*
X137428928Y-88845952D02*
X137476547Y-88798333D01*
X137571785Y-88750714D01*
X137714642Y-88750714D01*
X137809880Y-88798333D01*
X137857500Y-88893571D01*
X137857500Y-89417380D01*
X137857500Y-88893571D02*
X137905119Y-88798333D01*
X138000357Y-88750714D01*
X138143214Y-88750714D01*
X138238452Y-88798333D01*
X138286071Y-88893571D01*
X138286071Y-89417380D01*
X111952738Y-90067380D02*
X112524166Y-90067380D01*
X112238452Y-91067380D02*
X112238452Y-90067380D01*
X113000357Y-91067380D02*
X112905119Y-91019761D01*
X112857500Y-90972142D01*
X112809880Y-90876904D01*
X112809880Y-90591190D01*
X112857500Y-90495952D01*
X112905119Y-90448333D01*
X113000357Y-90400714D01*
X113143214Y-90400714D01*
X113238452Y-90448333D01*
X113286071Y-90495952D01*
X113333690Y-90591190D01*
X113333690Y-90876904D01*
X113286071Y-90972142D01*
X113238452Y-91019761D01*
X113143214Y-91067380D01*
X113000357Y-91067380D01*
X113905119Y-91067380D02*
X113809880Y-91019761D01*
X113762261Y-90972142D01*
X113714642Y-90876904D01*
X113714642Y-90591190D01*
X113762261Y-90495952D01*
X113809880Y-90448333D01*
X113905119Y-90400714D01*
X114047976Y-90400714D01*
X114143214Y-90448333D01*
X114190833Y-90495952D01*
X114238452Y-90591190D01*
X114238452Y-90876904D01*
X114190833Y-90972142D01*
X114143214Y-91019761D01*
X114047976Y-91067380D01*
X113905119Y-91067380D01*
X114809880Y-91067380D02*
X114714642Y-91019761D01*
X114667023Y-90924523D01*
X114667023Y-90067380D01*
X116524166Y-90972142D02*
X116476547Y-91019761D01*
X116333690Y-91067380D01*
X116238452Y-91067380D01*
X116095595Y-91019761D01*
X116000357Y-90924523D01*
X115952738Y-90829285D01*
X115905119Y-90638809D01*
X115905119Y-90495952D01*
X115952738Y-90305476D01*
X116000357Y-90210238D01*
X116095595Y-90115000D01*
X116238452Y-90067380D01*
X116333690Y-90067380D01*
X116476547Y-90115000D01*
X116524166Y-90162619D01*
X117381309Y-90400714D02*
X117381309Y-91067380D01*
X116952738Y-90400714D02*
X116952738Y-90924523D01*
X117000357Y-91019761D01*
X117095595Y-91067380D01*
X117238452Y-91067380D01*
X117333690Y-91019761D01*
X117381309Y-90972142D01*
X117857500Y-91067380D02*
X117857500Y-90400714D01*
X117857500Y-90591190D02*
X117905119Y-90495952D01*
X117952738Y-90448333D01*
X118047976Y-90400714D01*
X118143214Y-90400714D01*
X118476547Y-91067380D02*
X118476547Y-90400714D01*
X118476547Y-90591190D02*
X118524166Y-90495952D01*
X118571785Y-90448333D01*
X118667023Y-90400714D01*
X118762261Y-90400714D01*
X119476547Y-91019761D02*
X119381309Y-91067380D01*
X119190833Y-91067380D01*
X119095595Y-91019761D01*
X119047976Y-90924523D01*
X119047976Y-90543571D01*
X119095595Y-90448333D01*
X119190833Y-90400714D01*
X119381309Y-90400714D01*
X119476547Y-90448333D01*
X119524166Y-90543571D01*
X119524166Y-90638809D01*
X119047976Y-90734047D01*
X119952738Y-90400714D02*
X119952738Y-91067380D01*
X119952738Y-90495952D02*
X120000357Y-90448333D01*
X120095595Y-90400714D01*
X120238452Y-90400714D01*
X120333690Y-90448333D01*
X120381309Y-90543571D01*
X120381309Y-91067380D01*
X120714642Y-90400714D02*
X121095595Y-90400714D01*
X120857500Y-90067380D02*
X120857500Y-90924523D01*
X120905119Y-91019761D01*
X121000357Y-91067380D01*
X121095595Y-91067380D01*
X122143214Y-91019761D02*
X122286071Y-91067380D01*
X122524166Y-91067380D01*
X122619404Y-91019761D01*
X122667023Y-90972142D01*
X122714642Y-90876904D01*
X122714642Y-90781666D01*
X122667023Y-90686428D01*
X122619404Y-90638809D01*
X122524166Y-90591190D01*
X122333690Y-90543571D01*
X122238452Y-90495952D01*
X122190833Y-90448333D01*
X122143214Y-90353095D01*
X122143214Y-90257857D01*
X122190833Y-90162619D01*
X122238452Y-90115000D01*
X122333690Y-90067380D01*
X122571785Y-90067380D01*
X122714642Y-90115000D01*
X123524166Y-91019761D02*
X123428928Y-91067380D01*
X123238452Y-91067380D01*
X123143214Y-91019761D01*
X123095595Y-90924523D01*
X123095595Y-90543571D01*
X123143214Y-90448333D01*
X123238452Y-90400714D01*
X123428928Y-90400714D01*
X123524166Y-90448333D01*
X123571785Y-90543571D01*
X123571785Y-90638809D01*
X123095595Y-90734047D01*
X124000357Y-90400714D02*
X124000357Y-91067380D01*
X124000357Y-90495952D02*
X124047976Y-90448333D01*
X124143214Y-90400714D01*
X124286071Y-90400714D01*
X124381309Y-90448333D01*
X124428928Y-90543571D01*
X124428928Y-91067380D01*
X124857500Y-91019761D02*
X124952738Y-91067380D01*
X125143214Y-91067380D01*
X125238452Y-91019761D01*
X125286071Y-90924523D01*
X125286071Y-90876904D01*
X125238452Y-90781666D01*
X125143214Y-90734047D01*
X125000357Y-90734047D01*
X124905119Y-90686428D01*
X124857500Y-90591190D01*
X124857500Y-90543571D01*
X124905119Y-90448333D01*
X125000357Y-90400714D01*
X125143214Y-90400714D01*
X125238452Y-90448333D01*
X125857500Y-91067380D02*
X125762261Y-91019761D01*
X125714642Y-90972142D01*
X125667023Y-90876904D01*
X125667023Y-90591190D01*
X125714642Y-90495952D01*
X125762261Y-90448333D01*
X125857500Y-90400714D01*
X126000357Y-90400714D01*
X126095595Y-90448333D01*
X126143214Y-90495952D01*
X126190833Y-90591190D01*
X126190833Y-90876904D01*
X126143214Y-90972142D01*
X126095595Y-91019761D01*
X126000357Y-91067380D01*
X125857500Y-91067380D01*
X126619404Y-91067380D02*
X126619404Y-90400714D01*
X126619404Y-90591190D02*
X126667023Y-90495952D01*
X126714642Y-90448333D01*
X126809880Y-90400714D01*
X126905119Y-90400714D01*
X128571785Y-90972142D02*
X128524166Y-91019761D01*
X128381309Y-91067380D01*
X128286071Y-91067380D01*
X128143214Y-91019761D01*
X128047976Y-90924523D01*
X128000357Y-90829285D01*
X127952738Y-90638809D01*
X127952738Y-90495952D01*
X128000357Y-90305476D01*
X128047976Y-90210238D01*
X128143214Y-90115000D01*
X128286071Y-90067380D01*
X128381309Y-90067380D01*
X128524166Y-90115000D01*
X128571785Y-90162619D01*
X129571785Y-90972142D02*
X129524166Y-91019761D01*
X129381309Y-91067380D01*
X129286071Y-91067380D01*
X129143214Y-91019761D01*
X129047976Y-90924523D01*
X129000357Y-90829285D01*
X128952738Y-90638809D01*
X128952738Y-90495952D01*
X129000357Y-90305476D01*
X129047976Y-90210238D01*
X129143214Y-90115000D01*
X129286071Y-90067380D01*
X129381309Y-90067380D01*
X129524166Y-90115000D01*
X129571785Y-90162619D01*
X129952738Y-90781666D02*
X130428928Y-90781666D01*
X129857500Y-91067380D02*
X130190833Y-90067380D01*
X130524166Y-91067380D01*
X112000357Y-92050714D02*
X112238452Y-92717380D01*
X112476547Y-92050714D01*
X114143214Y-92717380D02*
X113571785Y-92717380D01*
X113857500Y-92717380D02*
X113857500Y-91717380D01*
X113762261Y-91860238D01*
X113667023Y-91955476D01*
X113571785Y-92003095D01*
X114571785Y-92622142D02*
X114619404Y-92669761D01*
X114571785Y-92717380D01*
X114524166Y-92669761D01*
X114571785Y-92622142D01*
X114571785Y-92717380D01*
X115571785Y-92717380D02*
X115000357Y-92717380D01*
X115286071Y-92717380D02*
X115286071Y-91717380D01*
X115190833Y-91860238D01*
X115095595Y-91955476D01*
X115000357Y-92003095D01*
X116000357Y-92622142D02*
X116047976Y-92669761D01*
X116000357Y-92717380D01*
X115952738Y-92669761D01*
X116000357Y-92622142D01*
X116000357Y-92717380D01*
X117000357Y-92717380D02*
X116428928Y-92717380D01*
X116714642Y-92717380D02*
X116714642Y-91717380D01*
X116619404Y-91860238D01*
X116524166Y-91955476D01*
X116428928Y-92003095D01*
X112381309Y-94748333D02*
X112333690Y-94700714D01*
X112238452Y-94557857D01*
X112190833Y-94462619D01*
X112143214Y-94319761D01*
X112095595Y-94081666D01*
X112095595Y-93891190D01*
X112143214Y-93653095D01*
X112190833Y-93510238D01*
X112238452Y-93415000D01*
X112333690Y-93272142D01*
X112381309Y-93224523D01*
X113190833Y-94319761D02*
X113095595Y-94367380D01*
X112905119Y-94367380D01*
X112809880Y-94319761D01*
X112762261Y-94272142D01*
X112714642Y-94176904D01*
X112714642Y-93891190D01*
X112762261Y-93795952D01*
X112809880Y-93748333D01*
X112905119Y-93700714D01*
X113095595Y-93700714D01*
X113190833Y-93748333D01*
X113524166Y-94748333D02*
X113571785Y-94700714D01*
X113667023Y-94557857D01*
X113714642Y-94462619D01*
X113762261Y-94319761D01*
X113809880Y-94081666D01*
X113809880Y-93891190D01*
X113762261Y-93653095D01*
X113714642Y-93510238D01*
X113667023Y-93415000D01*
X113571785Y-93272142D01*
X113524166Y-93224523D01*
X115000357Y-93462619D02*
X115047976Y-93415000D01*
X115143214Y-93367380D01*
X115381309Y-93367380D01*
X115476547Y-93415000D01*
X115524166Y-93462619D01*
X115571785Y-93557857D01*
X115571785Y-93653095D01*
X115524166Y-93795952D01*
X114952738Y-94367380D01*
X115571785Y-94367380D01*
X116190833Y-93367380D02*
X116286071Y-93367380D01*
X116381309Y-93415000D01*
X116428928Y-93462619D01*
X116476547Y-93557857D01*
X116524166Y-93748333D01*
X116524166Y-93986428D01*
X116476547Y-94176904D01*
X116428928Y-94272142D01*
X116381309Y-94319761D01*
X116286071Y-94367380D01*
X116190833Y-94367380D01*
X116095595Y-94319761D01*
X116047976Y-94272142D01*
X116000357Y-94176904D01*
X115952738Y-93986428D01*
X115952738Y-93748333D01*
X116000357Y-93557857D01*
X116047976Y-93462619D01*
X116095595Y-93415000D01*
X116190833Y-93367380D01*
X116905119Y-93462619D02*
X116952738Y-93415000D01*
X117047976Y-93367380D01*
X117286071Y-93367380D01*
X117381309Y-93415000D01*
X117428928Y-93462619D01*
X117476547Y-93557857D01*
X117476547Y-93653095D01*
X117428928Y-93795952D01*
X116857500Y-94367380D01*
X117476547Y-94367380D01*
X117857500Y-93462619D02*
X117905119Y-93415000D01*
X118000357Y-93367380D01*
X118238452Y-93367380D01*
X118333690Y-93415000D01*
X118381309Y-93462619D01*
X118428928Y-93557857D01*
X118428928Y-93653095D01*
X118381309Y-93795952D01*
X117809880Y-94367380D01*
X118428928Y-94367380D01*
X120190833Y-94272142D02*
X120143214Y-94319761D01*
X120000357Y-94367380D01*
X119905119Y-94367380D01*
X119762261Y-94319761D01*
X119667023Y-94224523D01*
X119619404Y-94129285D01*
X119571785Y-93938809D01*
X119571785Y-93795952D01*
X119619404Y-93605476D01*
X119667023Y-93510238D01*
X119762261Y-93415000D01*
X119905119Y-93367380D01*
X120000357Y-93367380D01*
X120143214Y-93415000D01*
X120190833Y-93462619D01*
X120619404Y-94272142D02*
X120667023Y-94319761D01*
X120619404Y-94367380D01*
X120571785Y-94319761D01*
X120619404Y-94272142D01*
X120619404Y-94367380D01*
X122190833Y-93843571D02*
X121857500Y-93843571D01*
X121857500Y-94367380D02*
X121857500Y-93367380D01*
X122333690Y-93367380D01*
X122714642Y-94367380D02*
X122714642Y-93700714D01*
X122714642Y-93367380D02*
X122667023Y-93415000D01*
X122714642Y-93462619D01*
X122762261Y-93415000D01*
X122714642Y-93367380D01*
X122714642Y-93462619D01*
X123143214Y-94319761D02*
X123238452Y-94367380D01*
X123428928Y-94367380D01*
X123524166Y-94319761D01*
X123571785Y-94224523D01*
X123571785Y-94176904D01*
X123524166Y-94081666D01*
X123428928Y-94034047D01*
X123286071Y-94034047D01*
X123190833Y-93986428D01*
X123143214Y-93891190D01*
X123143214Y-93843571D01*
X123190833Y-93748333D01*
X123286071Y-93700714D01*
X123428928Y-93700714D01*
X123524166Y-93748333D01*
X124000357Y-94367380D02*
X124000357Y-93367380D01*
X124428928Y-94367380D02*
X124428928Y-93843571D01*
X124381309Y-93748333D01*
X124286071Y-93700714D01*
X124143214Y-93700714D01*
X124047976Y-93748333D01*
X124000357Y-93795952D01*
X125286071Y-94319761D02*
X125190833Y-94367380D01*
X125000357Y-94367380D01*
X124905119Y-94319761D01*
X124857500Y-94224523D01*
X124857500Y-93843571D01*
X124905119Y-93748333D01*
X125000357Y-93700714D01*
X125190833Y-93700714D01*
X125286071Y-93748333D01*
X125333690Y-93843571D01*
X125333690Y-93938809D01*
X124857500Y-94034047D01*
X125762261Y-94367380D02*
X125762261Y-93700714D01*
X125762261Y-93891190D02*
X125809880Y-93795952D01*
X125857500Y-93748333D01*
X125952738Y-93700714D01*
X126047976Y-93700714D01*
X97623333Y-89773333D02*
X97623333Y-90249523D01*
X97337619Y-89678095D02*
X98337619Y-90011428D01*
X97337619Y-90344761D01*
X97432857Y-91249523D02*
X97385238Y-91201904D01*
X97337619Y-91059047D01*
X97337619Y-90963809D01*
X97385238Y-90820952D01*
X97480476Y-90725714D01*
X97575714Y-90678095D01*
X97766190Y-90630476D01*
X97909047Y-90630476D01*
X98099523Y-90678095D01*
X98194761Y-90725714D01*
X98290000Y-90820952D01*
X98337619Y-90963809D01*
X98337619Y-91059047D01*
X98290000Y-91201904D01*
X98242380Y-91249523D01*
X98385238Y-92392380D02*
X97099523Y-91535238D01*
X97337619Y-93201904D02*
X97337619Y-92725714D01*
X98337619Y-92725714D01*
X97623333Y-97274285D02*
X97623333Y-97750476D01*
X97337619Y-97179047D02*
X98337619Y-97512380D01*
X97337619Y-97845714D01*
X97432857Y-98750476D02*
X97385238Y-98702857D01*
X97337619Y-98560000D01*
X97337619Y-98464761D01*
X97385238Y-98321904D01*
X97480476Y-98226666D01*
X97575714Y-98179047D01*
X97766190Y-98131428D01*
X97909047Y-98131428D01*
X98099523Y-98179047D01*
X98194761Y-98226666D01*
X98290000Y-98321904D01*
X98337619Y-98464761D01*
X98337619Y-98560000D01*
X98290000Y-98702857D01*
X98242380Y-98750476D01*
X98385238Y-99893333D02*
X97099523Y-99036190D01*
X97337619Y-100226666D02*
X98337619Y-100226666D01*
X97337619Y-100798095D01*
X98337619Y-100798095D01*
X167711428Y-91717619D02*
X167711428Y-90955714D01*
X168092380Y-91336666D02*
X167330476Y-91336666D01*
X168044761Y-90527142D02*
X168092380Y-90384285D01*
X168092380Y-90146190D01*
X168044761Y-90050952D01*
X167997142Y-90003333D01*
X167901904Y-89955714D01*
X167806666Y-89955714D01*
X167711428Y-90003333D01*
X167663809Y-90050952D01*
X167616190Y-90146190D01*
X167568571Y-90336666D01*
X167520952Y-90431904D01*
X167473333Y-90479523D01*
X167378095Y-90527142D01*
X167282857Y-90527142D01*
X167187619Y-90479523D01*
X167140000Y-90431904D01*
X167092380Y-90336666D01*
X167092380Y-90098571D01*
X167140000Y-89955714D01*
X168092380Y-89527142D02*
X167425714Y-89527142D01*
X167092380Y-89527142D02*
X167140000Y-89574761D01*
X167187619Y-89527142D01*
X167140000Y-89479523D01*
X167092380Y-89527142D01*
X167187619Y-89527142D01*
X167425714Y-88622380D02*
X168235238Y-88622380D01*
X168330476Y-88670000D01*
X168378095Y-88717619D01*
X168425714Y-88812857D01*
X168425714Y-88955714D01*
X168378095Y-89050952D01*
X168044761Y-88622380D02*
X168092380Y-88717619D01*
X168092380Y-88908095D01*
X168044761Y-89003333D01*
X167997142Y-89050952D01*
X167901904Y-89098571D01*
X167616190Y-89098571D01*
X167520952Y-89050952D01*
X167473333Y-89003333D01*
X167425714Y-88908095D01*
X167425714Y-88717619D01*
X167473333Y-88622380D01*
X167711428Y-99337619D02*
X167711428Y-98575714D01*
X168044761Y-98147142D02*
X168092380Y-98004285D01*
X168092380Y-97766190D01*
X168044761Y-97670952D01*
X167997142Y-97623333D01*
X167901904Y-97575714D01*
X167806666Y-97575714D01*
X167711428Y-97623333D01*
X167663809Y-97670952D01*
X167616190Y-97766190D01*
X167568571Y-97956666D01*
X167520952Y-98051904D01*
X167473333Y-98099523D01*
X167378095Y-98147142D01*
X167282857Y-98147142D01*
X167187619Y-98099523D01*
X167140000Y-98051904D01*
X167092380Y-97956666D01*
X167092380Y-97718571D01*
X167140000Y-97575714D01*
X168092380Y-97147142D02*
X167425714Y-97147142D01*
X167092380Y-97147142D02*
X167140000Y-97194761D01*
X167187619Y-97147142D01*
X167140000Y-97099523D01*
X167092380Y-97147142D01*
X167187619Y-97147142D01*
X167425714Y-96242380D02*
X168235238Y-96242380D01*
X168330476Y-96290000D01*
X168378095Y-96337619D01*
X168425714Y-96432857D01*
X168425714Y-96575714D01*
X168378095Y-96670952D01*
X168044761Y-96242380D02*
X168092380Y-96337619D01*
X168092380Y-96528095D01*
X168044761Y-96623333D01*
X167997142Y-96670952D01*
X167901904Y-96718571D01*
X167616190Y-96718571D01*
X167520952Y-96670952D01*
X167473333Y-96623333D01*
X167425714Y-96528095D01*
X167425714Y-96337619D01*
X167473333Y-96242380D01*
X167140000Y-113791904D02*
X167092380Y-113887142D01*
X167092380Y-114030000D01*
X167140000Y-114172857D01*
X167235238Y-114268095D01*
X167330476Y-114315714D01*
X167520952Y-114363333D01*
X167663809Y-114363333D01*
X167854285Y-114315714D01*
X167949523Y-114268095D01*
X168044761Y-114172857D01*
X168092380Y-114030000D01*
X168092380Y-113934761D01*
X168044761Y-113791904D01*
X167997142Y-113744285D01*
X167663809Y-113744285D01*
X167663809Y-113934761D01*
X168092380Y-113315714D02*
X167092380Y-113315714D01*
X168092380Y-112744285D01*
X167092380Y-112744285D01*
X168092380Y-112268095D02*
X167092380Y-112268095D01*
X167092380Y-112030000D01*
X167140000Y-111887142D01*
X167235238Y-111791904D01*
X167330476Y-111744285D01*
X167520952Y-111696666D01*
X167663809Y-111696666D01*
X167854285Y-111744285D01*
X167949523Y-111791904D01*
X168044761Y-111887142D01*
X168092380Y-112030000D01*
X168092380Y-112268095D01*
X168044761Y-121237142D02*
X168092380Y-121094285D01*
X168092380Y-120856190D01*
X168044761Y-120760952D01*
X167997142Y-120713333D01*
X167901904Y-120665714D01*
X167806666Y-120665714D01*
X167711428Y-120713333D01*
X167663809Y-120760952D01*
X167616190Y-120856190D01*
X167568571Y-121046666D01*
X167520952Y-121141904D01*
X167473333Y-121189523D01*
X167378095Y-121237142D01*
X167282857Y-121237142D01*
X167187619Y-121189523D01*
X167140000Y-121141904D01*
X167092380Y-121046666D01*
X167092380Y-120808571D01*
X167140000Y-120665714D01*
X168044761Y-119856190D02*
X168092380Y-119951428D01*
X168092380Y-120141904D01*
X168044761Y-120237142D01*
X167949523Y-120284761D01*
X167568571Y-120284761D01*
X167473333Y-120237142D01*
X167425714Y-120141904D01*
X167425714Y-119951428D01*
X167473333Y-119856190D01*
X167568571Y-119808571D01*
X167663809Y-119808571D01*
X167759047Y-120284761D01*
X168092380Y-119380000D02*
X167425714Y-119380000D01*
X167616190Y-119380000D02*
X167520952Y-119332380D01*
X167473333Y-119284761D01*
X167425714Y-119189523D01*
X167425714Y-119094285D01*
X167425714Y-118856190D02*
X168092380Y-118618095D01*
X167425714Y-118380000D01*
X168092380Y-117856190D02*
X168044761Y-117951428D01*
X167997142Y-117999047D01*
X167901904Y-118046666D01*
X167616190Y-118046666D01*
X167520952Y-117999047D01*
X167473333Y-117951428D01*
X167425714Y-117856190D01*
X167425714Y-117713333D01*
X167473333Y-117618095D01*
X167520952Y-117570476D01*
X167616190Y-117522857D01*
X167901904Y-117522857D01*
X167997142Y-117570476D01*
X168044761Y-117618095D01*
X168092380Y-117713333D01*
X168092380Y-117856190D01*
X167711428Y-126587142D02*
X167711428Y-125825238D01*
X168092380Y-126206190D02*
X167330476Y-126206190D01*
X167092380Y-124872857D02*
X167092380Y-125349047D01*
X167568571Y-125396666D01*
X167520952Y-125349047D01*
X167473333Y-125253809D01*
X167473333Y-125015714D01*
X167520952Y-124920476D01*
X167568571Y-124872857D01*
X167663809Y-124825238D01*
X167901904Y-124825238D01*
X167997142Y-124872857D01*
X168044761Y-124920476D01*
X168092380Y-125015714D01*
X168092380Y-125253809D01*
X168044761Y-125349047D01*
X167997142Y-125396666D01*
D12*
%TO.C,J1*%
X96540000Y-100330000D02*
X86340000Y-100330000D01*
X86340000Y-90170000D02*
X96540000Y-90170000D01*
X86340000Y-100330000D02*
X86340000Y-90170000D01*
X96540000Y-90170000D02*
X96540000Y-100330000D01*
D13*
X91540000Y-101600000D02*
G75*
G03*
X91540000Y-101600000I-100000J0D01*
G01*
%TO.C,J2*%
X174090000Y-110490000D02*
G75*
G03*
X174090000Y-110490000I-100000J0D01*
G01*
D12*
X168890000Y-127000000D02*
X168890000Y-111760000D01*
X179090000Y-111760000D02*
X179090000Y-127000000D01*
X179090000Y-127000000D02*
X168890000Y-127000000D01*
X168890000Y-111760000D02*
X179090000Y-111760000D01*
D13*
%TO.C,J3*%
X174090000Y-87630000D02*
G75*
G03*
X174090000Y-87630000I-100000J0D01*
G01*
D12*
X168890000Y-99060000D02*
X168890000Y-88900000D01*
X179090000Y-88900000D02*
X179090000Y-99060000D01*
X179090000Y-99060000D02*
X168890000Y-99060000D01*
X168890000Y-88900000D02*
X179090000Y-88900000D01*
D14*
%TO.C,U3*%
X163940000Y-87570000D02*
X162290000Y-87570000D01*
X163940000Y-95310000D02*
X163940000Y-87570000D01*
X158640000Y-95310000D02*
X163940000Y-95310000D01*
X158640000Y-87570000D02*
X158640000Y-95310000D01*
X160290000Y-87570000D02*
X158640000Y-87570000D01*
X162290000Y-87570000D02*
G75*
G02*
X160290000Y-87570000I-1000000J0D01*
G01*
%TO.C,C2*%
X149685000Y-87869698D02*
X150485000Y-87869698D01*
X150085000Y-88269698D02*
X150085000Y-87469698D01*
X151867000Y-79779000D02*
X152933000Y-79779000D01*
X151632000Y-79819000D02*
X153168000Y-79819000D01*
X151452000Y-79859000D02*
X153348000Y-79859000D01*
X151302000Y-79899000D02*
X153498000Y-79899000D01*
X151171000Y-79939000D02*
X153629000Y-79939000D01*
X151054000Y-79979000D02*
X153746000Y-79979000D01*
X150947000Y-80019000D02*
X153853000Y-80019000D01*
X150848000Y-80059000D02*
X153952000Y-80059000D01*
X150755000Y-80099000D02*
X154045000Y-80099000D01*
X150669000Y-80139000D02*
X154131000Y-80139000D01*
X150587000Y-80179000D02*
X154213000Y-80179000D01*
X150510000Y-80219000D02*
X154290000Y-80219000D01*
X150436000Y-80259000D02*
X154364000Y-80259000D01*
X150366000Y-80299000D02*
X154434000Y-80299000D01*
X153440000Y-80339000D02*
X154502000Y-80339000D01*
X150298000Y-80339000D02*
X151360000Y-80339000D01*
X153440000Y-80379000D02*
X154566000Y-80379000D01*
X150234000Y-80379000D02*
X151360000Y-80379000D01*
X153440000Y-80419000D02*
X154628000Y-80419000D01*
X150172000Y-80419000D02*
X151360000Y-80419000D01*
X153440000Y-80459000D02*
X154687000Y-80459000D01*
X150113000Y-80459000D02*
X151360000Y-80459000D01*
X153440000Y-80499000D02*
X154745000Y-80499000D01*
X150055000Y-80499000D02*
X151360000Y-80499000D01*
X153440000Y-80539000D02*
X154800000Y-80539000D01*
X150000000Y-80539000D02*
X151360000Y-80539000D01*
X153440000Y-80579000D02*
X154854000Y-80579000D01*
X149946000Y-80579000D02*
X151360000Y-80579000D01*
X153440000Y-80619000D02*
X154905000Y-80619000D01*
X149895000Y-80619000D02*
X151360000Y-80619000D01*
X153440000Y-80659000D02*
X154956000Y-80659000D01*
X149844000Y-80659000D02*
X151360000Y-80659000D01*
X153440000Y-80699000D02*
X155004000Y-80699000D01*
X149796000Y-80699000D02*
X151360000Y-80699000D01*
X153440000Y-80739000D02*
X155051000Y-80739000D01*
X149749000Y-80739000D02*
X151360000Y-80739000D01*
X153440000Y-80779000D02*
X155097000Y-80779000D01*
X149703000Y-80779000D02*
X151360000Y-80779000D01*
X153440000Y-80819000D02*
X155141000Y-80819000D01*
X149659000Y-80819000D02*
X151360000Y-80819000D01*
X153440000Y-80859000D02*
X155184000Y-80859000D01*
X149616000Y-80859000D02*
X151360000Y-80859000D01*
X153440000Y-80899000D02*
X155226000Y-80899000D01*
X149574000Y-80899000D02*
X151360000Y-80899000D01*
X153440000Y-80939000D02*
X155267000Y-80939000D01*
X149533000Y-80939000D02*
X151360000Y-80939000D01*
X153440000Y-80979000D02*
X155307000Y-80979000D01*
X149493000Y-80979000D02*
X151360000Y-80979000D01*
X153440000Y-81019000D02*
X155345000Y-81019000D01*
X149455000Y-81019000D02*
X151360000Y-81019000D01*
X153440000Y-81059000D02*
X155383000Y-81059000D01*
X149417000Y-81059000D02*
X151360000Y-81059000D01*
X153440000Y-81099000D02*
X155419000Y-81099000D01*
X149381000Y-81099000D02*
X151360000Y-81099000D01*
X153440000Y-81139000D02*
X155455000Y-81139000D01*
X149345000Y-81139000D02*
X151360000Y-81139000D01*
X153440000Y-81179000D02*
X155490000Y-81179000D01*
X149310000Y-81179000D02*
X151360000Y-81179000D01*
X153440000Y-81219000D02*
X155524000Y-81219000D01*
X149276000Y-81219000D02*
X151360000Y-81219000D01*
X153440000Y-81259000D02*
X155556000Y-81259000D01*
X149244000Y-81259000D02*
X151360000Y-81259000D01*
X153440000Y-81299000D02*
X155589000Y-81299000D01*
X149211000Y-81299000D02*
X151360000Y-81299000D01*
X153440000Y-81339000D02*
X155620000Y-81339000D01*
X149180000Y-81339000D02*
X151360000Y-81339000D01*
X153440000Y-81379000D02*
X155650000Y-81379000D01*
X149150000Y-81379000D02*
X151360000Y-81379000D01*
X153440000Y-81419000D02*
X155680000Y-81419000D01*
X149120000Y-81419000D02*
X151360000Y-81419000D01*
X153440000Y-81459000D02*
X155709000Y-81459000D01*
X149091000Y-81459000D02*
X151360000Y-81459000D01*
X153440000Y-81499000D02*
X155738000Y-81499000D01*
X149062000Y-81499000D02*
X151360000Y-81499000D01*
X153440000Y-81539000D02*
X155765000Y-81539000D01*
X149035000Y-81539000D02*
X151360000Y-81539000D01*
X153440000Y-81579000D02*
X155792000Y-81579000D01*
X149008000Y-81579000D02*
X151360000Y-81579000D01*
X153440000Y-81619000D02*
X155818000Y-81619000D01*
X148982000Y-81619000D02*
X151360000Y-81619000D01*
X153440000Y-81659000D02*
X155844000Y-81659000D01*
X148956000Y-81659000D02*
X151360000Y-81659000D01*
X153440000Y-81699000D02*
X155869000Y-81699000D01*
X148931000Y-81699000D02*
X151360000Y-81699000D01*
X153440000Y-81739000D02*
X155893000Y-81739000D01*
X148907000Y-81739000D02*
X151360000Y-81739000D01*
X153440000Y-81779000D02*
X155917000Y-81779000D01*
X148883000Y-81779000D02*
X151360000Y-81779000D01*
X153440000Y-81819000D02*
X155940000Y-81819000D01*
X148860000Y-81819000D02*
X151360000Y-81819000D01*
X153440000Y-81859000D02*
X155962000Y-81859000D01*
X148838000Y-81859000D02*
X151360000Y-81859000D01*
X153440000Y-81899000D02*
X155984000Y-81899000D01*
X148816000Y-81899000D02*
X151360000Y-81899000D01*
X153440000Y-81939000D02*
X156006000Y-81939000D01*
X148794000Y-81939000D02*
X151360000Y-81939000D01*
X153440000Y-81979000D02*
X156027000Y-81979000D01*
X148773000Y-81979000D02*
X151360000Y-81979000D01*
X153440000Y-82019000D02*
X156047000Y-82019000D01*
X148753000Y-82019000D02*
X151360000Y-82019000D01*
X153440000Y-82059000D02*
X156066000Y-82059000D01*
X148734000Y-82059000D02*
X151360000Y-82059000D01*
X153440000Y-82099000D02*
X156086000Y-82099000D01*
X148714000Y-82099000D02*
X151360000Y-82099000D01*
X153440000Y-82139000D02*
X156104000Y-82139000D01*
X148696000Y-82139000D02*
X151360000Y-82139000D01*
X153440000Y-82179000D02*
X156122000Y-82179000D01*
X148678000Y-82179000D02*
X151360000Y-82179000D01*
X153440000Y-82219000D02*
X156140000Y-82219000D01*
X148660000Y-82219000D02*
X151360000Y-82219000D01*
X153440000Y-82259000D02*
X156157000Y-82259000D01*
X148643000Y-82259000D02*
X151360000Y-82259000D01*
X153440000Y-82299000D02*
X156174000Y-82299000D01*
X148626000Y-82299000D02*
X151360000Y-82299000D01*
X153440000Y-82339000D02*
X156190000Y-82339000D01*
X148610000Y-82339000D02*
X151360000Y-82339000D01*
X153440000Y-82379000D02*
X156205000Y-82379000D01*
X148595000Y-82379000D02*
X151360000Y-82379000D01*
X148579000Y-82419000D02*
X156221000Y-82419000D01*
X148565000Y-82459000D02*
X156235000Y-82459000D01*
X148550000Y-82499000D02*
X156250000Y-82499000D01*
X148537000Y-82539000D02*
X156263000Y-82539000D01*
X148523000Y-82579000D02*
X156277000Y-82579000D01*
X148511000Y-82619000D02*
X156289000Y-82619000D01*
X148498000Y-82659000D02*
X156302000Y-82659000D01*
X148486000Y-82699000D02*
X156314000Y-82699000D01*
X148475000Y-82739000D02*
X156325000Y-82739000D01*
X148464000Y-82779000D02*
X156336000Y-82779000D01*
X148453000Y-82819000D02*
X156347000Y-82819000D01*
X148443000Y-82859000D02*
X156357000Y-82859000D01*
X148433000Y-82899000D02*
X156367000Y-82899000D01*
X148424000Y-82939000D02*
X156376000Y-82939000D01*
X148415000Y-82979000D02*
X156385000Y-82979000D01*
X148406000Y-83019000D02*
X156394000Y-83019000D01*
X148398000Y-83059000D02*
X156402000Y-83059000D01*
X148390000Y-83099000D02*
X156410000Y-83099000D01*
X148383000Y-83139000D02*
X156417000Y-83139000D01*
X148376000Y-83180000D02*
X156424000Y-83180000D01*
X148370000Y-83220000D02*
X156430000Y-83220000D01*
X148363000Y-83260000D02*
X156437000Y-83260000D01*
X148358000Y-83300000D02*
X156442000Y-83300000D01*
X148352000Y-83340000D02*
X156448000Y-83340000D01*
X148348000Y-83380000D02*
X156452000Y-83380000D01*
X148343000Y-83420000D02*
X156457000Y-83420000D01*
X148339000Y-83460000D02*
X156461000Y-83460000D01*
X148335000Y-83500000D02*
X156465000Y-83500000D01*
X148332000Y-83540000D02*
X156468000Y-83540000D01*
X148329000Y-83580000D02*
X156471000Y-83580000D01*
X148326000Y-83620000D02*
X156474000Y-83620000D01*
X148324000Y-83660000D02*
X156476000Y-83660000D01*
X148323000Y-83700000D02*
X156477000Y-83700000D01*
X148321000Y-83740000D02*
X156479000Y-83740000D01*
X148320000Y-83780000D02*
X156480000Y-83780000D01*
X148320000Y-83820000D02*
X156480000Y-83820000D01*
X148320000Y-83860000D02*
X156480000Y-83860000D01*
X156520000Y-83860000D02*
G75*
G03*
X156520000Y-83860000I-4120000J0D01*
G01*
D11*
%TO.C,U2*%
X137800000Y-130680000D02*
X137800000Y-130680000D01*
X138960000Y-130680000D02*
X137800000Y-130680000D01*
X139950000Y-137680000D02*
X139950000Y-131680000D01*
X156030000Y-137680000D02*
X164459999Y-137680000D01*
X156030000Y-136680000D02*
X156030000Y-137680000D01*
X147810000Y-136680000D02*
X156030000Y-136680000D01*
X147810000Y-137680000D02*
X147810000Y-136680000D01*
X139950000Y-137680000D02*
X147810000Y-137680000D01*
X137800000Y-104600000D02*
X137800000Y-130680000D01*
X162460000Y-102600000D02*
X139800000Y-102600000D01*
X164460000Y-137680000D02*
X164460000Y-104600000D01*
X139800000Y-102600000D02*
G75*
G03*
X137800000Y-104600000I0J-2000000D01*
G01*
X164460000Y-104600000D02*
G75*
G03*
X162460000Y-102600000I-2000000J0D01*
G01*
X139950000Y-131680000D02*
G75*
G03*
X138950000Y-130680000I-1000000J0D01*
G01*
D14*
%TO.C,U1*%
X135950000Y-129810000D02*
X135950000Y-128160000D01*
X135950000Y-128160000D02*
X118050000Y-128160000D01*
X118050000Y-128160000D02*
X118050000Y-133460000D01*
X118050000Y-133460000D02*
X135950000Y-133460000D01*
X135950000Y-133460000D02*
X135950000Y-131810000D01*
X135950000Y-131810000D02*
G75*
G02*
X135950000Y-129810000I0J1000000D01*
G01*
%TO.C,R5*%
X159560000Y-100780000D02*
X159560000Y-97340000D01*
X159560000Y-97340000D02*
X150320000Y-97340000D01*
X150320000Y-97340000D02*
X150320000Y-100780000D01*
X150320000Y-100780000D02*
X159560000Y-100780000D01*
X160250000Y-99060000D02*
X159560000Y-99060000D01*
X149630000Y-99060000D02*
X150320000Y-99060000D01*
%TO.C,R4*%
X123640000Y-112220000D02*
X120200000Y-112220000D01*
X120200000Y-112220000D02*
X120200000Y-121460000D01*
X120200000Y-121460000D02*
X123640000Y-121460000D01*
X123640000Y-121460000D02*
X123640000Y-112220000D01*
X121920000Y-111530000D02*
X121920000Y-112220000D01*
X121920000Y-122150000D02*
X121920000Y-121460000D01*
%TO.C,R3*%
X130360000Y-121460000D02*
X133800000Y-121460000D01*
X133800000Y-121460000D02*
X133800000Y-112220000D01*
X133800000Y-112220000D02*
X130360000Y-112220000D01*
X130360000Y-112220000D02*
X130360000Y-121460000D01*
X132080000Y-122150000D02*
X132080000Y-121460000D01*
X132080000Y-111530000D02*
X132080000Y-112220000D01*
%TO.C,R2*%
X128720000Y-112220000D02*
X125280000Y-112220000D01*
X125280000Y-112220000D02*
X125280000Y-121460000D01*
X125280000Y-121460000D02*
X128720000Y-121460000D01*
X128720000Y-121460000D02*
X128720000Y-112220000D01*
X127000000Y-111530000D02*
X127000000Y-112220000D01*
X127000000Y-122150000D02*
X127000000Y-121460000D01*
%TO.C,R1*%
X118560000Y-112220000D02*
X115120000Y-112220000D01*
X115120000Y-112220000D02*
X115120000Y-121460000D01*
X115120000Y-121460000D02*
X118560000Y-121460000D01*
X118560000Y-121460000D02*
X118560000Y-112220000D01*
X116840000Y-111530000D02*
X116840000Y-112220000D01*
X116840000Y-122150000D02*
X116840000Y-121460000D01*
%TO.C,C1*%
X115184000Y-130144759D02*
X114554000Y-130144759D01*
X114869000Y-129829759D02*
X114869000Y-130459759D01*
X113432000Y-136571000D02*
X112628000Y-136571000D01*
X113663000Y-136531000D02*
X112397000Y-136531000D01*
X113832000Y-136491000D02*
X112228000Y-136491000D01*
X113970000Y-136451000D02*
X112090000Y-136451000D01*
X114089000Y-136411000D02*
X111971000Y-136411000D01*
X114195000Y-136371000D02*
X111865000Y-136371000D01*
X114292000Y-136331000D02*
X111768000Y-136331000D01*
X114380000Y-136291000D02*
X111680000Y-136291000D01*
X114462000Y-136251000D02*
X111598000Y-136251000D01*
X114539000Y-136211000D02*
X111521000Y-136211000D01*
X114611000Y-136171000D02*
X111449000Y-136171000D01*
X114680000Y-136131000D02*
X111380000Y-136131000D01*
X114744000Y-136091000D02*
X111316000Y-136091000D01*
X114806000Y-136051000D02*
X111254000Y-136051000D01*
X114864000Y-136011000D02*
X111196000Y-136011000D01*
X114920000Y-135971000D02*
X111140000Y-135971000D01*
X114974000Y-135931000D02*
X111086000Y-135931000D01*
X115025000Y-135891000D02*
X111035000Y-135891000D01*
X115074000Y-135851000D02*
X110986000Y-135851000D01*
X115122000Y-135811000D02*
X110938000Y-135811000D01*
X115167000Y-135771000D02*
X110893000Y-135771000D01*
X115212000Y-135731000D02*
X110848000Y-135731000D01*
X115254000Y-135691000D02*
X110806000Y-135691000D01*
X115295000Y-135651000D02*
X110765000Y-135651000D01*
X111990000Y-135611000D02*
X110725000Y-135611000D01*
X115335000Y-135611000D02*
X114070000Y-135611000D01*
X111990000Y-135571000D02*
X110687000Y-135571000D01*
X115373000Y-135571000D02*
X114070000Y-135571000D01*
X111990000Y-135531000D02*
X110650000Y-135531000D01*
X115410000Y-135531000D02*
X114070000Y-135531000D01*
X111990000Y-135491000D02*
X110614000Y-135491000D01*
X115446000Y-135491000D02*
X114070000Y-135491000D01*
X111990000Y-135451000D02*
X110580000Y-135451000D01*
X115480000Y-135451000D02*
X114070000Y-135451000D01*
X111990000Y-135411000D02*
X110546000Y-135411000D01*
X115514000Y-135411000D02*
X114070000Y-135411000D01*
X111990000Y-135371000D02*
X110514000Y-135371000D01*
X115546000Y-135371000D02*
X114070000Y-135371000D01*
X111990000Y-135331000D02*
X110482000Y-135331000D01*
X115578000Y-135331000D02*
X114070000Y-135331000D01*
X111990000Y-135291000D02*
X110452000Y-135291000D01*
X115608000Y-135291000D02*
X114070000Y-135291000D01*
X111990000Y-135251000D02*
X110423000Y-135251000D01*
X115637000Y-135251000D02*
X114070000Y-135251000D01*
X111990000Y-135211000D02*
X110394000Y-135211000D01*
X115666000Y-135211000D02*
X114070000Y-135211000D01*
X111990000Y-135171000D02*
X110366000Y-135171000D01*
X115694000Y-135171000D02*
X114070000Y-135171000D01*
X111990000Y-135131000D02*
X110340000Y-135131000D01*
X115720000Y-135131000D02*
X114070000Y-135131000D01*
X111990000Y-135091000D02*
X110314000Y-135091000D01*
X115746000Y-135091000D02*
X114070000Y-135091000D01*
X111990000Y-135051000D02*
X110288000Y-135051000D01*
X115772000Y-135051000D02*
X114070000Y-135051000D01*
X111990000Y-135011000D02*
X110264000Y-135011000D01*
X115796000Y-135011000D02*
X114070000Y-135011000D01*
X111990000Y-134971000D02*
X110240000Y-134971000D01*
X115820000Y-134971000D02*
X114070000Y-134971000D01*
X111990000Y-134931000D02*
X110218000Y-134931000D01*
X115842000Y-134931000D02*
X114070000Y-134931000D01*
X111990000Y-134891000D02*
X110196000Y-134891000D01*
X115864000Y-134891000D02*
X114070000Y-134891000D01*
X111990000Y-134851000D02*
X110174000Y-134851000D01*
X115886000Y-134851000D02*
X114070000Y-134851000D01*
X111990000Y-134811000D02*
X110154000Y-134811000D01*
X115906000Y-134811000D02*
X114070000Y-134811000D01*
X111990000Y-134771000D02*
X110134000Y-134771000D01*
X115926000Y-134771000D02*
X114070000Y-134771000D01*
X111990000Y-134731000D02*
X110114000Y-134731000D01*
X115946000Y-134731000D02*
X114070000Y-134731000D01*
X111990000Y-134691000D02*
X110096000Y-134691000D01*
X115964000Y-134691000D02*
X114070000Y-134691000D01*
X111990000Y-134651000D02*
X110078000Y-134651000D01*
X115982000Y-134651000D02*
X114070000Y-134651000D01*
X111990000Y-134611000D02*
X110060000Y-134611000D01*
X116000000Y-134611000D02*
X114070000Y-134611000D01*
X111990000Y-134571000D02*
X110044000Y-134571000D01*
X116016000Y-134571000D02*
X114070000Y-134571000D01*
X111990000Y-134531000D02*
X110028000Y-134531000D01*
X116032000Y-134531000D02*
X114070000Y-134531000D01*
X111990000Y-134491000D02*
X110012000Y-134491000D01*
X116048000Y-134491000D02*
X114070000Y-134491000D01*
X111990000Y-134451000D02*
X109997000Y-134451000D01*
X116063000Y-134451000D02*
X114070000Y-134451000D01*
X111990000Y-134411000D02*
X109983000Y-134411000D01*
X116077000Y-134411000D02*
X114070000Y-134411000D01*
X111990000Y-134371000D02*
X109969000Y-134371000D01*
X116091000Y-134371000D02*
X114070000Y-134371000D01*
X111990000Y-134331000D02*
X109956000Y-134331000D01*
X116104000Y-134331000D02*
X114070000Y-134331000D01*
X111990000Y-134291000D02*
X109944000Y-134291000D01*
X116116000Y-134291000D02*
X114070000Y-134291000D01*
X111990000Y-134251000D02*
X109932000Y-134251000D01*
X116128000Y-134251000D02*
X114070000Y-134251000D01*
X111990000Y-134211000D02*
X109920000Y-134211000D01*
X116140000Y-134211000D02*
X114070000Y-134211000D01*
X111990000Y-134171000D02*
X109909000Y-134171000D01*
X116151000Y-134171000D02*
X114070000Y-134171000D01*
X111990000Y-134131000D02*
X109899000Y-134131000D01*
X116161000Y-134131000D02*
X114070000Y-134131000D01*
X111990000Y-134091000D02*
X109889000Y-134091000D01*
X116171000Y-134091000D02*
X114070000Y-134091000D01*
X111990000Y-134051000D02*
X109880000Y-134051000D01*
X116180000Y-134051000D02*
X114070000Y-134051000D01*
X111990000Y-134010000D02*
X109871000Y-134010000D01*
X116189000Y-134010000D02*
X114070000Y-134010000D01*
X111990000Y-133970000D02*
X109863000Y-133970000D01*
X116197000Y-133970000D02*
X114070000Y-133970000D01*
X111990000Y-133930000D02*
X109855000Y-133930000D01*
X116205000Y-133930000D02*
X114070000Y-133930000D01*
X111990000Y-133890000D02*
X109848000Y-133890000D01*
X116212000Y-133890000D02*
X114070000Y-133890000D01*
X111990000Y-133850000D02*
X109841000Y-133850000D01*
X116219000Y-133850000D02*
X114070000Y-133850000D01*
X111990000Y-133810000D02*
X109835000Y-133810000D01*
X116225000Y-133810000D02*
X114070000Y-133810000D01*
X111990000Y-133770000D02*
X109829000Y-133770000D01*
X116231000Y-133770000D02*
X114070000Y-133770000D01*
X111990000Y-133730000D02*
X109824000Y-133730000D01*
X116236000Y-133730000D02*
X114070000Y-133730000D01*
X111990000Y-133690000D02*
X109819000Y-133690000D01*
X116241000Y-133690000D02*
X114070000Y-133690000D01*
X111990000Y-133650000D02*
X109815000Y-133650000D01*
X116245000Y-133650000D02*
X114070000Y-133650000D01*
X111990000Y-133610000D02*
X109812000Y-133610000D01*
X116248000Y-133610000D02*
X114070000Y-133610000D01*
X111990000Y-133570000D02*
X109808000Y-133570000D01*
X116252000Y-133570000D02*
X114070000Y-133570000D01*
X116254000Y-133530000D02*
X109806000Y-133530000D01*
X116257000Y-133490000D02*
X109803000Y-133490000D01*
X116258000Y-133450000D02*
X109802000Y-133450000D01*
X116260000Y-133410000D02*
X109800000Y-133410000D01*
X116260000Y-133370000D02*
X109800000Y-133370000D01*
X116260000Y-133330000D02*
X109800000Y-133330000D01*
X116300000Y-133330000D02*
G75*
G03*
X116300000Y-133330000I-3270000J0D01*
G01*
%TO.C,D1*%
X122170000Y-107800000D02*
X122170000Y-105560000D01*
X121930000Y-107800000D02*
X121930000Y-105560000D01*
X122050000Y-107800000D02*
X122050000Y-105560000D01*
X115340000Y-106680000D02*
X118530000Y-106680000D01*
X125960000Y-106680000D02*
X122770000Y-106680000D01*
X118530000Y-107800000D02*
X122770000Y-107800000D01*
X118530000Y-105560000D02*
X118530000Y-107800000D01*
X122770000Y-105560000D02*
X118530000Y-105560000D01*
X122770000Y-107800000D02*
X122770000Y-105560000D01*
%TO.C,J1*%
D11*
X90973333Y-102103333D02*
X90973333Y-103103333D01*
X90906666Y-103303333D01*
X90773333Y-103436666D01*
X90573333Y-103503333D01*
X90440000Y-103503333D01*
X92373333Y-103503333D02*
X91573333Y-103503333D01*
X91973333Y-103503333D02*
X91973333Y-102103333D01*
X91840000Y-102303333D01*
X91706666Y-102436666D01*
X91573333Y-102503333D01*
%TO.C,J2*%
X173523333Y-108453333D02*
X173523333Y-109453333D01*
X173456666Y-109653333D01*
X173323333Y-109786666D01*
X173123333Y-109853333D01*
X172990000Y-109853333D01*
X174123333Y-108586666D02*
X174190000Y-108520000D01*
X174323333Y-108453333D01*
X174656666Y-108453333D01*
X174790000Y-108520000D01*
X174856666Y-108586666D01*
X174923333Y-108720000D01*
X174923333Y-108853333D01*
X174856666Y-109053333D01*
X174056666Y-109853333D01*
X174923333Y-109853333D01*
%TO.C,J3*%
X173523333Y-100833333D02*
X173523333Y-101833333D01*
X173456666Y-102033333D01*
X173323333Y-102166666D01*
X173123333Y-102233333D01*
X172990000Y-102233333D01*
X174056666Y-100833333D02*
X174923333Y-100833333D01*
X174456666Y-101366666D01*
X174656666Y-101366666D01*
X174790000Y-101433333D01*
X174856666Y-101500000D01*
X174923333Y-101633333D01*
X174923333Y-101966666D01*
X174856666Y-102100000D01*
X174790000Y-102166666D01*
X174656666Y-102233333D01*
X174256666Y-102233333D01*
X174123333Y-102166666D01*
X174056666Y-102100000D01*
%TO.C,U3*%
X160528095Y-86022380D02*
X160528095Y-86831904D01*
X160575714Y-86927142D01*
X160623333Y-86974761D01*
X160718571Y-87022380D01*
X160909047Y-87022380D01*
X161004285Y-86974761D01*
X161051904Y-86927142D01*
X161099523Y-86831904D01*
X161099523Y-86022380D01*
X161480476Y-86022380D02*
X162099523Y-86022380D01*
X161766190Y-86403333D01*
X161909047Y-86403333D01*
X162004285Y-86450952D01*
X162051904Y-86498571D01*
X162099523Y-86593809D01*
X162099523Y-86831904D01*
X162051904Y-86927142D01*
X162004285Y-86974761D01*
X161909047Y-87022380D01*
X161623333Y-87022380D01*
X161528095Y-86974761D01*
X161480476Y-86927142D01*
%TO.C,C2*%
X146983333Y-84217142D02*
X146935714Y-84264761D01*
X146792857Y-84312380D01*
X146697619Y-84312380D01*
X146554761Y-84264761D01*
X146459523Y-84169523D01*
X146411904Y-84074285D01*
X146364285Y-83883809D01*
X146364285Y-83740952D01*
X146411904Y-83550476D01*
X146459523Y-83455238D01*
X146554761Y-83360000D01*
X146697619Y-83312380D01*
X146792857Y-83312380D01*
X146935714Y-83360000D01*
X146983333Y-83407619D01*
X147364285Y-83407619D02*
X147411904Y-83360000D01*
X147507142Y-83312380D01*
X147745238Y-83312380D01*
X147840476Y-83360000D01*
X147888095Y-83407619D01*
X147935714Y-83502857D01*
X147935714Y-83598095D01*
X147888095Y-83740952D01*
X147316666Y-84312380D01*
X147935714Y-84312380D01*
%TO.C,*%
%TO.C,U2*%
X151003095Y-134707380D02*
X151003095Y-135516904D01*
X151050714Y-135612142D01*
X151098333Y-135659761D01*
X151193571Y-135707380D01*
X151384047Y-135707380D01*
X151479285Y-135659761D01*
X151526904Y-135612142D01*
X151574523Y-135516904D01*
X151574523Y-134707380D01*
X152003095Y-134802619D02*
X152050714Y-134755000D01*
X152145952Y-134707380D01*
X152384047Y-134707380D01*
X152479285Y-134755000D01*
X152526904Y-134802619D01*
X152574523Y-134897857D01*
X152574523Y-134993095D01*
X152526904Y-135135952D01*
X151955476Y-135707380D01*
X152574523Y-135707380D01*
%TO.C,U1*%
X116078095Y-130262380D02*
X116078095Y-131071904D01*
X116125714Y-131167142D01*
X116173333Y-131214761D01*
X116268571Y-131262380D01*
X116459047Y-131262380D01*
X116554285Y-131214761D01*
X116601904Y-131167142D01*
X116649523Y-131071904D01*
X116649523Y-130262380D01*
X117649523Y-131262380D02*
X117078095Y-131262380D01*
X117363809Y-131262380D02*
X117363809Y-130262380D01*
X117268571Y-130405238D01*
X117173333Y-130500476D01*
X117078095Y-130548095D01*
%TO.C,R5*%
X154773333Y-102232380D02*
X154440000Y-101756190D01*
X154201904Y-102232380D02*
X154201904Y-101232380D01*
X154582857Y-101232380D01*
X154678095Y-101280000D01*
X154725714Y-101327619D01*
X154773333Y-101422857D01*
X154773333Y-101565714D01*
X154725714Y-101660952D01*
X154678095Y-101708571D01*
X154582857Y-101756190D01*
X154201904Y-101756190D01*
X155678095Y-101232380D02*
X155201904Y-101232380D01*
X155154285Y-101708571D01*
X155201904Y-101660952D01*
X155297142Y-101613333D01*
X155535238Y-101613333D01*
X155630476Y-101660952D01*
X155678095Y-101708571D01*
X155725714Y-101803809D01*
X155725714Y-102041904D01*
X155678095Y-102137142D01*
X155630476Y-102184761D01*
X155535238Y-102232380D01*
X155297142Y-102232380D01*
X155201904Y-102184761D01*
X155154285Y-102137142D01*
%TO.C,R4*%
X119213333Y-117292380D02*
X118880000Y-116816190D01*
X118641904Y-117292380D02*
X118641904Y-116292380D01*
X119022857Y-116292380D01*
X119118095Y-116340000D01*
X119165714Y-116387619D01*
X119213333Y-116482857D01*
X119213333Y-116625714D01*
X119165714Y-116720952D01*
X119118095Y-116768571D01*
X119022857Y-116816190D01*
X118641904Y-116816190D01*
X120070476Y-116625714D02*
X120070476Y-117292380D01*
X119832380Y-116244761D02*
X119594285Y-116959047D01*
X120213333Y-116959047D01*
%TO.C,R3*%
X129193333Y-117292380D02*
X128860000Y-116816190D01*
X128621904Y-117292380D02*
X128621904Y-116292380D01*
X129002857Y-116292380D01*
X129098095Y-116340000D01*
X129145714Y-116387619D01*
X129193333Y-116482857D01*
X129193333Y-116625714D01*
X129145714Y-116720952D01*
X129098095Y-116768571D01*
X129002857Y-116816190D01*
X128621904Y-116816190D01*
X129526666Y-116292380D02*
X130145714Y-116292380D01*
X129812380Y-116673333D01*
X129955238Y-116673333D01*
X130050476Y-116720952D01*
X130098095Y-116768571D01*
X130145714Y-116863809D01*
X130145714Y-117101904D01*
X130098095Y-117197142D01*
X130050476Y-117244761D01*
X129955238Y-117292380D01*
X129669523Y-117292380D01*
X129574285Y-117244761D01*
X129526666Y-117197142D01*
%TO.C,R2*%
X124293333Y-117292380D02*
X123960000Y-116816190D01*
X123721904Y-117292380D02*
X123721904Y-116292380D01*
X124102857Y-116292380D01*
X124198095Y-116340000D01*
X124245714Y-116387619D01*
X124293333Y-116482857D01*
X124293333Y-116625714D01*
X124245714Y-116720952D01*
X124198095Y-116768571D01*
X124102857Y-116816190D01*
X123721904Y-116816190D01*
X124674285Y-116387619D02*
X124721904Y-116340000D01*
X124817142Y-116292380D01*
X125055238Y-116292380D01*
X125150476Y-116340000D01*
X125198095Y-116387619D01*
X125245714Y-116482857D01*
X125245714Y-116578095D01*
X125198095Y-116720952D01*
X124626666Y-117292380D01*
X125245714Y-117292380D01*
%TO.C,R1*%
X114133333Y-117292380D02*
X113800000Y-116816190D01*
X113561904Y-117292380D02*
X113561904Y-116292380D01*
X113942857Y-116292380D01*
X114038095Y-116340000D01*
X114085714Y-116387619D01*
X114133333Y-116482857D01*
X114133333Y-116625714D01*
X114085714Y-116720952D01*
X114038095Y-116768571D01*
X113942857Y-116816190D01*
X113561904Y-116816190D01*
X115085714Y-117292380D02*
X114514285Y-117292380D01*
X114800000Y-117292380D02*
X114800000Y-116292380D01*
X114704761Y-116435238D01*
X114609523Y-116530476D01*
X114514285Y-116578095D01*
%TO.C,C1*%
X107783333Y-133687142D02*
X107735714Y-133734761D01*
X107592857Y-133782380D01*
X107497619Y-133782380D01*
X107354761Y-133734761D01*
X107259523Y-133639523D01*
X107211904Y-133544285D01*
X107164285Y-133353809D01*
X107164285Y-133210952D01*
X107211904Y-133020476D01*
X107259523Y-132925238D01*
X107354761Y-132830000D01*
X107497619Y-132782380D01*
X107592857Y-132782380D01*
X107735714Y-132830000D01*
X107783333Y-132877619D01*
X108735714Y-133782380D02*
X108164285Y-133782380D01*
X108450000Y-133782380D02*
X108450000Y-132782380D01*
X108354761Y-132925238D01*
X108259523Y-133020476D01*
X108164285Y-133068095D01*
%TO.C,D1*%
X119911904Y-109252380D02*
X119911904Y-108252380D01*
X120150000Y-108252380D01*
X120292857Y-108300000D01*
X120388095Y-108395238D01*
X120435714Y-108490476D01*
X120483333Y-108680952D01*
X120483333Y-108823809D01*
X120435714Y-109014285D01*
X120388095Y-109109523D01*
X120292857Y-109204761D01*
X120150000Y-109252380D01*
X119911904Y-109252380D01*
X121435714Y-109252380D02*
X120864285Y-109252380D01*
X121150000Y-109252380D02*
X121150000Y-108252380D01*
X121054761Y-108395238D01*
X120959523Y-108490476D01*
X120864285Y-108538095D01*
X126738095Y-108932380D02*
X126738095Y-107932380D01*
X127309523Y-108932380D02*
X126880952Y-108360952D01*
X127309523Y-107932380D02*
X126738095Y-108503809D01*
%TD*%
M02*
