M48
; DRILL file {KiCad (5.1.10)-1} date 05/21/22 15:35:12
; FORMAT={-:-/ absolute / inch / decimal}
; #@! TF.CreationDate,2022-05-21T15:35:12-04:00
; #@! TF.GenerationSoftware,Kicad,Pcbnew,(5.1.10)-1
; #@! TF.FileFunction,Plated,1,2,PTH
FMAT,2
INCH
T1C0.0315
T2C0.0400
T3C0.0472
T4C0.0591
T5C0.0630
T6C0.1378
%
G90
G05
T1
X4.45Y-5.2
X4.45Y-5.2984
X4.5Y-4.2
X4.6Y-4.35
X4.6Y-4.85
X4.7Y-5.0
X4.7Y-5.3
X4.8Y-4.35
X4.8Y-4.85
X4.8Y-5.0
X4.8Y-5.3
X4.9Y-5.0
X4.9Y-5.3
X5.0Y-4.2
X5.0Y-4.35
X5.0Y-4.85
X5.0Y-5.0
X5.0Y-5.3
X5.1Y-5.0
X5.1Y-5.3
X5.2Y-4.35
X5.2Y-4.85
X5.2Y-5.0
X5.2Y-5.3
X5.3Y-5.0
X5.3Y-5.3
X5.85Y-3.9
X6.0Y-3.2031
X6.0Y-3.4
X6.2Y-3.5
X6.2Y-3.6
X6.2Y-3.7
X6.35Y-3.9
X6.5Y-3.5
X6.5Y-3.6
X6.5Y-3.7
T2
X5.5Y-4.35
X5.5Y-4.45
X5.5Y-4.55
X5.5Y-4.65
X5.5Y-4.75
X5.5Y-4.85
X5.5Y-4.95
X5.5Y-5.05
X6.4Y-4.35
X6.4Y-4.45
X6.4Y-4.55
X6.4Y-4.65
X6.4Y-4.75
X6.4Y-4.85
X6.4Y-4.95
X6.4Y-5.05
T3
X4.0Y-4.35
X4.0Y-4.95
X4.3Y-4.65
T4
X4.1Y-3.2268
X4.1Y-3.65
X5.6157Y-3.2268
X5.6157Y-3.5417
T5
X3.6Y-3.65
X3.6Y-3.85
X6.85Y-3.6
X6.85Y-3.8
X6.85Y-4.5
X6.85Y-4.7
X6.85Y-4.9
T6
X3.6Y-3.325
X3.6Y-5.2
X6.85Y-3.325
X6.85Y-5.2
T0
M30
