%TF.GenerationSoftware,KiCad,Pcbnew,(5.1.10)-1*%
%TF.CreationDate,2022-05-21T15:35:01-04:00*%
%TF.ProjectId,Tool_Sensor,546f6f6c-5f53-4656-9e73-6f722e6b6963,rev?*%
%TF.SameCoordinates,Original*%
%TF.FileFunction,Soldermask,Top*%
%TF.FilePolarity,Negative*%
%FSLAX46Y46*%
G04 Gerber Fmt 4.6, Leading zero omitted, Abs format (unit mm)*
G04 Created by KiCad (PCBNEW (5.1.10)-1) date 2022-05-21 15:35:01*
%MOMM*%
%LPD*%
G01*
G04 APERTURE LIST*
%ADD10C,1.850000*%
%ADD11R,1.850000X1.850000*%
%ADD12C,2.400000*%
%ADD13R,2.400000X2.400000*%
%ADD14R,3.000000X3.000000*%
%ADD15C,3.000000*%
%ADD16R,1.600000X1.600000*%
%ADD17O,1.600000X1.600000*%
%ADD18C,1.600000*%
%ADD19C,7.000000*%
%ADD20C,1.800000*%
G04 APERTURE END LIST*
D10*
%TO.C,T1*%
X109220000Y-118110000D03*
X101600000Y-125730000D03*
D11*
X101600000Y-110490000D03*
%TD*%
D12*
%TO.C,J1*%
X91440000Y-92710000D03*
D13*
X91440000Y-97790000D03*
%TD*%
%TO.C,J2*%
X173990000Y-114300000D03*
D12*
X173990000Y-119380000D03*
X173990000Y-124460000D03*
%TD*%
D13*
%TO.C,J3*%
X173990000Y-91440000D03*
D12*
X173990000Y-96520000D03*
%TD*%
D14*
%TO.C,PS1*%
X104140000Y-92710000D03*
D15*
X142640000Y-89960000D03*
X104140000Y-81960000D03*
X142640000Y-81960000D03*
%TD*%
D16*
%TO.C,U3*%
X157480000Y-88900000D03*
D17*
X165100000Y-93980000D03*
X157480000Y-91440000D03*
X165100000Y-91440000D03*
X157480000Y-93980000D03*
X165100000Y-88900000D03*
%TD*%
D18*
%TO.C,C2*%
X152400000Y-81360000D03*
D16*
X152400000Y-86360000D03*
%TD*%
D19*
%TO.C,*%
X91440000Y-84455000D03*
%TD*%
%TO.C,*%
X91440000Y-132080000D03*
%TD*%
%TO.C,*%
X173990000Y-132080000D03*
%TD*%
%TO.C,*%
X173990000Y-84455000D03*
%TD*%
D20*
%TO.C,U2*%
X139700000Y-128270000D03*
X162560000Y-128270000D03*
X139700000Y-125730000D03*
X162560000Y-125730000D03*
X139700000Y-123190000D03*
X162560000Y-123190000D03*
X139700000Y-120650000D03*
X162560000Y-120650000D03*
X139700000Y-118110000D03*
X162560000Y-118110000D03*
X139700000Y-115570000D03*
X162560000Y-115570000D03*
X139700000Y-113030000D03*
X162560000Y-113030000D03*
X139700000Y-110490000D03*
X162560000Y-110490000D03*
%TD*%
D17*
%TO.C,U1*%
X134620000Y-134620000D03*
X119380000Y-127000000D03*
X132080000Y-134620000D03*
X121920000Y-127000000D03*
X129540000Y-134620000D03*
X124460000Y-127000000D03*
X127000000Y-134620000D03*
X127000000Y-127000000D03*
X124460000Y-134620000D03*
X129540000Y-127000000D03*
X121920000Y-134620000D03*
X132080000Y-127000000D03*
X119380000Y-134620000D03*
D16*
X134620000Y-127000000D03*
%TD*%
D17*
%TO.C,R5*%
X148590000Y-99060000D03*
D18*
X161290000Y-99060000D03*
%TD*%
D17*
%TO.C,R4*%
X121920000Y-123190000D03*
D18*
X121920000Y-110490000D03*
%TD*%
D17*
%TO.C,R3*%
X132080000Y-110490000D03*
D18*
X132080000Y-123190000D03*
%TD*%
D17*
%TO.C,R2*%
X127000000Y-123190000D03*
D18*
X127000000Y-110490000D03*
%TD*%
D17*
%TO.C,R1*%
X116840000Y-123190000D03*
D18*
X116840000Y-110490000D03*
%TD*%
D16*
%TO.C,C1*%
X113030000Y-132080000D03*
D18*
X113030000Y-134580000D03*
%TD*%
D16*
%TO.C,D1*%
X127000000Y-106680000D03*
D17*
X114300000Y-106680000D03*
%TD*%
M02*
