%TF.GenerationSoftware,KiCad,Pcbnew,(5.1.10)-1*%
%TF.CreationDate,2022-05-21T15:35:01-04:00*%
%TF.ProjectId,Tool_Sensor,546f6f6c-5f53-4656-9e73-6f722e6b6963,rev?*%
%TF.SameCoordinates,Original*%
%TF.FileFunction,Copper,L1,Top*%
%TF.FilePolarity,Positive*%
%FSLAX46Y46*%
G04 Gerber Fmt 4.6, Leading zero omitted, Abs format (unit mm)*
G04 Created by KiCad (PCBNEW (5.1.10)-1) date 2022-05-21 15:35:01*
%MOMM*%
%LPD*%
G01*
G04 APERTURE LIST*
%TA.AperFunction,ComponentPad*%
%ADD10C,1.850000*%
%TD*%
%TA.AperFunction,ComponentPad*%
%ADD11R,1.850000X1.850000*%
%TD*%
%TA.AperFunction,ComponentPad*%
%ADD12C,2.400000*%
%TD*%
%TA.AperFunction,ComponentPad*%
%ADD13R,2.400000X2.400000*%
%TD*%
%TA.AperFunction,ComponentPad*%
%ADD14R,3.000000X3.000000*%
%TD*%
%TA.AperFunction,ComponentPad*%
%ADD15C,3.000000*%
%TD*%
%TA.AperFunction,ComponentPad*%
%ADD16R,1.600000X1.600000*%
%TD*%
%TA.AperFunction,ComponentPad*%
%ADD17O,1.600000X1.600000*%
%TD*%
%TA.AperFunction,ComponentPad*%
%ADD18C,1.600000*%
%TD*%
%TA.AperFunction,ComponentPad*%
%ADD19C,7.000000*%
%TD*%
%TA.AperFunction,ComponentPad*%
%ADD20C,1.800000*%
%TD*%
%TA.AperFunction,Conductor*%
%ADD21C,1.016000*%
%TD*%
G04 APERTURE END LIST*
D10*
%TO.P,T1,3*%
%TO.N,Net-(T1-Pad3)*%
X109220000Y-118110000D03*
%TO.P,T1,2*%
%TO.N,GND*%
X101600000Y-125730000D03*
D11*
%TO.P,T1,1*%
%TO.N,Net-(D1-Pad2)*%
X101600000Y-110490000D03*
%TD*%
D12*
%TO.P,J1,2*%
%TO.N,Net-(J1-Pad2)*%
X91440000Y-92710000D03*
D13*
%TO.P,J1,1*%
%TO.N,Net-(J1-Pad1)*%
X91440000Y-97790000D03*
%TD*%
%TO.P,J2,1*%
%TO.N,GND*%
X173990000Y-114300000D03*
D12*
%TO.P,J2,2*%
%TO.N,Net-(J2-Pad2)*%
X173990000Y-119380000D03*
%TO.P,J2,3*%
%TO.N,+5V*%
X173990000Y-124460000D03*
%TD*%
D13*
%TO.P,J3,1*%
%TO.N,Net-(J3-Pad1)*%
X173990000Y-91440000D03*
D12*
%TO.P,J3,2*%
%TO.N,Net-(J3-Pad2)*%
X173990000Y-96520000D03*
%TD*%
D14*
%TO.P,PS1,1*%
%TO.N,Net-(J1-Pad1)*%
X104140000Y-92710000D03*
D15*
%TO.P,PS1,4*%
%TO.N,+5V*%
X142640000Y-89960000D03*
%TO.P,PS1,2*%
%TO.N,Net-(J1-Pad2)*%
X104140000Y-81960000D03*
%TO.P,PS1,3*%
%TO.N,GND*%
X142640000Y-81960000D03*
%TD*%
D16*
%TO.P,U3,1*%
%TO.N,Net-(R5-Pad1)*%
X157480000Y-88900000D03*
D17*
%TO.P,U3,4*%
%TO.N,Net-(J3-Pad2)*%
X165100000Y-93980000D03*
%TO.P,U3,2*%
%TO.N,GND*%
X157480000Y-91440000D03*
%TO.P,U3,5*%
%TO.N,Net-(J3-Pad1)*%
X165100000Y-91440000D03*
%TO.P,U3,3*%
%TO.N,Net-(U3-Pad3)*%
X157480000Y-93980000D03*
%TO.P,U3,6*%
%TO.N,Net-(U3-Pad6)*%
X165100000Y-88900000D03*
%TD*%
D18*
%TO.P,C2,2*%
%TO.N,GND*%
X152400000Y-81360000D03*
D16*
%TO.P,C2,1*%
%TO.N,+5V*%
X152400000Y-86360000D03*
%TD*%
D19*
%TO.P,,1*%
%TO.N,N/C*%
X91440000Y-84455000D03*
%TD*%
%TO.P,,1*%
%TO.N,N/C*%
X91440000Y-132080000D03*
%TD*%
%TO.P,,1*%
%TO.N,N/C*%
X173990000Y-132080000D03*
%TD*%
%TO.P,,1*%
%TO.N,N/C*%
X173990000Y-84455000D03*
%TD*%
D20*
%TO.P,U2,8*%
%TO.N,Net-(U2-Pad8)*%
X139700000Y-128270000D03*
%TO.P,U2,9*%
%TO.N,+5V*%
X162560000Y-128270000D03*
%TO.P,U2,7*%
%TO.N,Net-(U2-Pad7)*%
X139700000Y-125730000D03*
%TO.P,U2,10*%
%TO.N,GND*%
X162560000Y-125730000D03*
%TO.P,U2,6*%
%TO.N,Net-(U2-Pad6)*%
X139700000Y-123190000D03*
%TO.P,U2,11*%
%TO.N,Net-(U2-Pad11)*%
X162560000Y-123190000D03*
%TO.P,U2,5*%
%TO.N,Net-(U2-Pad5)*%
X139700000Y-120650000D03*
%TO.P,U2,12*%
%TO.N,Net-(U2-Pad12)*%
X162560000Y-120650000D03*
%TO.P,U2,4*%
%TO.N,Net-(U1-Pad1)*%
X139700000Y-118110000D03*
%TO.P,U2,13*%
%TO.N,Net-(R5-Pad2)*%
X162560000Y-118110000D03*
%TO.P,U2,3*%
%TO.N,Net-(U2-Pad3)*%
X139700000Y-115570000D03*
%TO.P,U2,14*%
%TO.N,Net-(J2-Pad2)*%
X162560000Y-115570000D03*
%TO.P,U2,2*%
%TO.N,Net-(U2-Pad2)*%
X139700000Y-113030000D03*
%TO.P,U2,15*%
%TO.N,Net-(U2-Pad15)*%
X162560000Y-113030000D03*
%TO.P,U2,1*%
%TO.N,Net-(U2-Pad1)*%
X139700000Y-110490000D03*
%TO.P,U2,16*%
%TO.N,Net-(U2-Pad16)*%
X162560000Y-110490000D03*
%TD*%
D17*
%TO.P,U1,14*%
%TO.N,N/C*%
X134620000Y-134620000D03*
%TO.P,U1,7*%
%TO.N,Net-(C1-Pad1)*%
X119380000Y-127000000D03*
%TO.P,U1,13*%
%TO.N,N/C*%
X132080000Y-134620000D03*
%TO.P,U1,6*%
%TO.N,Net-(R2-Pad2)*%
X121920000Y-127000000D03*
%TO.P,U1,12*%
%TO.N,GND*%
X129540000Y-134620000D03*
%TO.P,U1,5*%
%TO.N,N/C*%
X124460000Y-127000000D03*
%TO.P,U1,11*%
X127000000Y-134620000D03*
%TO.P,U1,4*%
X127000000Y-127000000D03*
%TO.P,U1,10*%
X124460000Y-134620000D03*
%TO.P,U1,3*%
%TO.N,+5V*%
X129540000Y-127000000D03*
%TO.P,U1,9*%
%TO.N,N/C*%
X121920000Y-134620000D03*
%TO.P,U1,2*%
X132080000Y-127000000D03*
%TO.P,U1,8*%
X119380000Y-134620000D03*
D16*
%TO.P,U1,1*%
%TO.N,Net-(U1-Pad1)*%
X134620000Y-127000000D03*
%TD*%
D17*
%TO.P,R5,2*%
%TO.N,Net-(R5-Pad2)*%
X148590000Y-99060000D03*
D18*
%TO.P,R5,1*%
%TO.N,Net-(R5-Pad1)*%
X161290000Y-99060000D03*
%TD*%
D17*
%TO.P,R4,2*%
%TO.N,GND*%
X121920000Y-123190000D03*
D18*
%TO.P,R4,1*%
%TO.N,Net-(C1-Pad1)*%
X121920000Y-110490000D03*
%TD*%
D17*
%TO.P,R3,2*%
%TO.N,GND*%
X132080000Y-110490000D03*
D18*
%TO.P,R3,1*%
%TO.N,Net-(R2-Pad2)*%
X132080000Y-123190000D03*
%TD*%
D17*
%TO.P,R2,2*%
%TO.N,Net-(R2-Pad2)*%
X127000000Y-123190000D03*
D18*
%TO.P,R2,1*%
%TO.N,+5V*%
X127000000Y-110490000D03*
%TD*%
D17*
%TO.P,R1,2*%
%TO.N,GND*%
X116840000Y-123190000D03*
D18*
%TO.P,R1,1*%
%TO.N,Net-(D1-Pad2)*%
X116840000Y-110490000D03*
%TD*%
D16*
%TO.P,C1,1*%
%TO.N,Net-(C1-Pad1)*%
X113030000Y-132080000D03*
D18*
%TO.P,C1,2*%
%TO.N,GND*%
X113030000Y-134580000D03*
%TD*%
D16*
%TO.P,D1,1*%
%TO.N,Net-(C1-Pad1)*%
X127000000Y-106680000D03*
D17*
%TO.P,D1,2*%
%TO.N,Net-(D1-Pad2)*%
X114300000Y-106680000D03*
%TD*%
D21*
%TO.N,Net-(C1-Pad1)*%
X119380000Y-113030000D02*
X121920000Y-110490000D01*
X115570000Y-128270000D02*
X113030000Y-130810000D01*
X113030000Y-130810000D02*
X113030000Y-132080000D01*
X115570000Y-128270000D02*
X116840000Y-127000000D01*
X116840000Y-127000000D02*
X119380000Y-127000000D01*
X119380000Y-113030000D02*
X119380000Y-127000000D01*
X121920000Y-110490000D02*
X125730000Y-106680000D01*
X125730000Y-106680000D02*
X127000000Y-106680000D01*
%TO.N,Net-(D1-Pad2)*%
X114300000Y-106680000D02*
X114300000Y-110490000D01*
X114300000Y-110490000D02*
X116840000Y-110490000D01*
X101600000Y-110490000D02*
X114300000Y-110490000D01*
%TO.N,Net-(J2-Pad2)*%
X173990000Y-119380000D02*
X170180000Y-119380000D01*
X170180000Y-119380000D02*
X166370000Y-115570000D01*
X166370000Y-115570000D02*
X162560000Y-115570000D01*
%TO.N,Net-(J3-Pad1)*%
X165100000Y-91440000D02*
X173990000Y-91440000D01*
%TO.N,Net-(J3-Pad2)*%
X165100000Y-93980000D02*
X167640000Y-96520000D01*
X167640000Y-96520000D02*
X173990000Y-96520000D01*
%TO.N,Net-(R2-Pad2)*%
X132080000Y-123190000D02*
X127000000Y-123190000D01*
X121920000Y-127000000D02*
X125730000Y-123190000D01*
X125730000Y-123190000D02*
X127000000Y-123190000D01*
%TO.N,Net-(R5-Pad1)*%
X161290000Y-99060000D02*
X161290000Y-92710000D01*
X161290000Y-92710000D02*
X157480000Y-88900000D01*
%TO.N,Net-(R5-Pad2)*%
X162560000Y-118110000D02*
X151130000Y-118110000D01*
X148590000Y-115570000D02*
X148590000Y-99060000D01*
X151130000Y-118110000D02*
X148590000Y-115570000D01*
%TO.N,Net-(U1-Pad1)*%
X139700000Y-118110000D02*
X137160000Y-118110000D01*
X137160000Y-118110000D02*
X134620000Y-120650000D01*
X134620000Y-120650000D02*
X134620000Y-127000000D01*
%TD*%
M02*
