%TF.GenerationSoftware,KiCad,Pcbnew,(5.1.10)-1*%
%TF.CreationDate,2022-05-21T15:35:01-04:00*%
%TF.ProjectId,Tool_Sensor,546f6f6c-5f53-4656-9e73-6f722e6b6963,rev?*%
%TF.SameCoordinates,Original*%
%TF.FileFunction,Copper,L2,Bot*%
%TF.FilePolarity,Positive*%
%FSLAX46Y46*%
G04 Gerber Fmt 4.6, Leading zero omitted, Abs format (unit mm)*
G04 Created by KiCad (PCBNEW (5.1.10)-1) date 2022-05-21 15:35:01*
%MOMM*%
%LPD*%
G01*
G04 APERTURE LIST*
%TA.AperFunction,ComponentPad*%
%ADD10C,1.850000*%
%TD*%
%TA.AperFunction,ComponentPad*%
%ADD11R,1.850000X1.850000*%
%TD*%
%TA.AperFunction,ComponentPad*%
%ADD12C,2.400000*%
%TD*%
%TA.AperFunction,ComponentPad*%
%ADD13R,2.400000X2.400000*%
%TD*%
%TA.AperFunction,ComponentPad*%
%ADD14R,3.000000X3.000000*%
%TD*%
%TA.AperFunction,ComponentPad*%
%ADD15C,3.000000*%
%TD*%
%TA.AperFunction,ComponentPad*%
%ADD16R,1.600000X1.600000*%
%TD*%
%TA.AperFunction,ComponentPad*%
%ADD17O,1.600000X1.600000*%
%TD*%
%TA.AperFunction,ComponentPad*%
%ADD18C,1.600000*%
%TD*%
%TA.AperFunction,ComponentPad*%
%ADD19C,7.000000*%
%TD*%
%TA.AperFunction,ComponentPad*%
%ADD20C,1.800000*%
%TD*%
%TA.AperFunction,Conductor*%
%ADD21C,3.048000*%
%TD*%
%TA.AperFunction,Conductor*%
%ADD22C,1.000000*%
%TD*%
%TA.AperFunction,Conductor*%
%ADD23C,2.540000*%
%TD*%
%TA.AperFunction,Conductor*%
%ADD24C,0.254000*%
%TD*%
%TA.AperFunction,Conductor*%
%ADD25C,0.100000*%
%TD*%
G04 APERTURE END LIST*
D10*
%TO.P,T1,3*%
%TO.N,Net-(T1-Pad3)*%
X109220000Y-118110000D03*
%TO.P,T1,2*%
%TO.N,GND*%
X101600000Y-125730000D03*
D11*
%TO.P,T1,1*%
%TO.N,Net-(D1-Pad2)*%
X101600000Y-110490000D03*
%TD*%
D12*
%TO.P,J1,2*%
%TO.N,Net-(J1-Pad2)*%
X91440000Y-92710000D03*
D13*
%TO.P,J1,1*%
%TO.N,Net-(J1-Pad1)*%
X91440000Y-97790000D03*
%TD*%
%TO.P,J2,1*%
%TO.N,GND*%
X173990000Y-114300000D03*
D12*
%TO.P,J2,2*%
%TO.N,Net-(J2-Pad2)*%
X173990000Y-119380000D03*
%TO.P,J2,3*%
%TO.N,+5V*%
X173990000Y-124460000D03*
%TD*%
D13*
%TO.P,J3,1*%
%TO.N,Net-(J3-Pad1)*%
X173990000Y-91440000D03*
D12*
%TO.P,J3,2*%
%TO.N,Net-(J3-Pad2)*%
X173990000Y-96520000D03*
%TD*%
D14*
%TO.P,PS1,1*%
%TO.N,Net-(J1-Pad1)*%
X104140000Y-92710000D03*
D15*
%TO.P,PS1,4*%
%TO.N,+5V*%
X142640000Y-89960000D03*
%TO.P,PS1,2*%
%TO.N,Net-(J1-Pad2)*%
X104140000Y-81960000D03*
%TO.P,PS1,3*%
%TO.N,GND*%
X142640000Y-81960000D03*
%TD*%
D16*
%TO.P,U3,1*%
%TO.N,Net-(R5-Pad1)*%
X157480000Y-88900000D03*
D17*
%TO.P,U3,4*%
%TO.N,Net-(J3-Pad2)*%
X165100000Y-93980000D03*
%TO.P,U3,2*%
%TO.N,GND*%
X157480000Y-91440000D03*
%TO.P,U3,5*%
%TO.N,Net-(J3-Pad1)*%
X165100000Y-91440000D03*
%TO.P,U3,3*%
%TO.N,Net-(U3-Pad3)*%
X157480000Y-93980000D03*
%TO.P,U3,6*%
%TO.N,Net-(U3-Pad6)*%
X165100000Y-88900000D03*
%TD*%
D18*
%TO.P,C2,2*%
%TO.N,GND*%
X152400000Y-81360000D03*
D16*
%TO.P,C2,1*%
%TO.N,+5V*%
X152400000Y-86360000D03*
%TD*%
D19*
%TO.P,,1*%
%TO.N,N/C*%
X91440000Y-84455000D03*
%TD*%
%TO.P,,1*%
%TO.N,N/C*%
X91440000Y-132080000D03*
%TD*%
%TO.P,,1*%
%TO.N,N/C*%
X173990000Y-132080000D03*
%TD*%
%TO.P,,1*%
%TO.N,N/C*%
X173990000Y-84455000D03*
%TD*%
D20*
%TO.P,U2,8*%
%TO.N,Net-(U2-Pad8)*%
X139700000Y-128270000D03*
%TO.P,U2,9*%
%TO.N,+5V*%
X162560000Y-128270000D03*
%TO.P,U2,7*%
%TO.N,Net-(U2-Pad7)*%
X139700000Y-125730000D03*
%TO.P,U2,10*%
%TO.N,GND*%
X162560000Y-125730000D03*
%TO.P,U2,6*%
%TO.N,Net-(U2-Pad6)*%
X139700000Y-123190000D03*
%TO.P,U2,11*%
%TO.N,Net-(U2-Pad11)*%
X162560000Y-123190000D03*
%TO.P,U2,5*%
%TO.N,Net-(U2-Pad5)*%
X139700000Y-120650000D03*
%TO.P,U2,12*%
%TO.N,Net-(U2-Pad12)*%
X162560000Y-120650000D03*
%TO.P,U2,4*%
%TO.N,Net-(U1-Pad1)*%
X139700000Y-118110000D03*
%TO.P,U2,13*%
%TO.N,Net-(R5-Pad2)*%
X162560000Y-118110000D03*
%TO.P,U2,3*%
%TO.N,Net-(U2-Pad3)*%
X139700000Y-115570000D03*
%TO.P,U2,14*%
%TO.N,Net-(J2-Pad2)*%
X162560000Y-115570000D03*
%TO.P,U2,2*%
%TO.N,Net-(U2-Pad2)*%
X139700000Y-113030000D03*
%TO.P,U2,15*%
%TO.N,Net-(U2-Pad15)*%
X162560000Y-113030000D03*
%TO.P,U2,1*%
%TO.N,Net-(U2-Pad1)*%
X139700000Y-110490000D03*
%TO.P,U2,16*%
%TO.N,Net-(U2-Pad16)*%
X162560000Y-110490000D03*
%TD*%
D17*
%TO.P,U1,14*%
%TO.N,N/C*%
X134620000Y-134620000D03*
%TO.P,U1,7*%
%TO.N,Net-(C1-Pad1)*%
X119380000Y-127000000D03*
%TO.P,U1,13*%
%TO.N,N/C*%
X132080000Y-134620000D03*
%TO.P,U1,6*%
%TO.N,Net-(R2-Pad2)*%
X121920000Y-127000000D03*
%TO.P,U1,12*%
%TO.N,GND*%
X129540000Y-134620000D03*
%TO.P,U1,5*%
%TO.N,N/C*%
X124460000Y-127000000D03*
%TO.P,U1,11*%
X127000000Y-134620000D03*
%TO.P,U1,4*%
X127000000Y-127000000D03*
%TO.P,U1,10*%
X124460000Y-134620000D03*
%TO.P,U1,3*%
%TO.N,+5V*%
X129540000Y-127000000D03*
%TO.P,U1,9*%
%TO.N,N/C*%
X121920000Y-134620000D03*
%TO.P,U1,2*%
X132080000Y-127000000D03*
%TO.P,U1,8*%
X119380000Y-134620000D03*
D16*
%TO.P,U1,1*%
%TO.N,Net-(U1-Pad1)*%
X134620000Y-127000000D03*
%TD*%
D17*
%TO.P,R5,2*%
%TO.N,Net-(R5-Pad2)*%
X148590000Y-99060000D03*
D18*
%TO.P,R5,1*%
%TO.N,Net-(R5-Pad1)*%
X161290000Y-99060000D03*
%TD*%
D17*
%TO.P,R4,2*%
%TO.N,GND*%
X121920000Y-123190000D03*
D18*
%TO.P,R4,1*%
%TO.N,Net-(C1-Pad1)*%
X121920000Y-110490000D03*
%TD*%
D17*
%TO.P,R3,2*%
%TO.N,GND*%
X132080000Y-110490000D03*
D18*
%TO.P,R3,1*%
%TO.N,Net-(R2-Pad2)*%
X132080000Y-123190000D03*
%TD*%
D17*
%TO.P,R2,2*%
%TO.N,Net-(R2-Pad2)*%
X127000000Y-123190000D03*
D18*
%TO.P,R2,1*%
%TO.N,+5V*%
X127000000Y-110490000D03*
%TD*%
D17*
%TO.P,R1,2*%
%TO.N,GND*%
X116840000Y-123190000D03*
D18*
%TO.P,R1,1*%
%TO.N,Net-(D1-Pad2)*%
X116840000Y-110490000D03*
%TD*%
D16*
%TO.P,C1,1*%
%TO.N,Net-(C1-Pad1)*%
X113030000Y-132080000D03*
D18*
%TO.P,C1,2*%
%TO.N,GND*%
X113030000Y-134580000D03*
%TD*%
D16*
%TO.P,D1,1*%
%TO.N,Net-(C1-Pad1)*%
X127000000Y-106680000D03*
D17*
%TO.P,D1,2*%
%TO.N,Net-(D1-Pad2)*%
X114300000Y-106680000D03*
%TD*%
D21*
%TO.N,Net-(J1-Pad2)*%
X99060000Y-88900000D02*
X95250000Y-92710000D01*
X99060000Y-88900000D02*
X104140000Y-83820000D01*
X91440000Y-92710000D02*
X95250000Y-92710000D01*
X104140000Y-83820000D02*
X104140000Y-81960000D01*
%TO.N,Net-(J1-Pad1)*%
X95250000Y-97790000D02*
X91440000Y-97790000D01*
X104140000Y-92710000D02*
X99060000Y-97790000D01*
X99060000Y-97790000D02*
X95250000Y-97790000D01*
D22*
%TO.N,+5V*%
X128270000Y-110490000D02*
X129540000Y-111760000D01*
D23*
X127000000Y-110490000D02*
X128270000Y-110490000D01*
X129540000Y-111760000D02*
X129540000Y-109220000D01*
X129540000Y-128270000D02*
X129540000Y-111760000D01*
X162560000Y-128270000D02*
X148590000Y-128270000D01*
X148590000Y-128270000D02*
X142640000Y-122320000D01*
X129540000Y-109220000D02*
X132480000Y-106280000D01*
D22*
X140100000Y-106280000D02*
X142640000Y-103740000D01*
D23*
X142640000Y-106280000D02*
X142640000Y-103740000D01*
X132480000Y-106280000D02*
X140100000Y-106280000D01*
X142640000Y-103740000D02*
X142640000Y-96120000D01*
X140100000Y-106280000D02*
X142640000Y-106280000D01*
X142640000Y-108820000D02*
X142640000Y-106280000D01*
D22*
X140100000Y-106280000D02*
X142640000Y-108820000D01*
D23*
X142640000Y-122320000D02*
X142640000Y-108820000D01*
D22*
X173990000Y-124460000D02*
X166370000Y-124460000D01*
X166370000Y-124460000D02*
X162560000Y-128270000D01*
D23*
X142640000Y-96120000D02*
X142640000Y-89960000D01*
X148800000Y-89960000D02*
X152400000Y-86360000D01*
X142640000Y-89960000D02*
X148800000Y-89960000D01*
%TD*%
D24*
%TO.N,GND*%
X178410001Y-137770000D02*
X87020000Y-137770000D01*
X87020000Y-131672738D01*
X87305000Y-131672738D01*
X87305000Y-132487262D01*
X87463906Y-133286135D01*
X87775611Y-134038657D01*
X88228136Y-134715909D01*
X88804091Y-135291864D01*
X89481343Y-135744389D01*
X90233865Y-136056094D01*
X91032738Y-136215000D01*
X91847262Y-136215000D01*
X92646135Y-136056094D01*
X93398657Y-135744389D01*
X93655604Y-135572702D01*
X112216903Y-135572702D01*
X112288486Y-135816671D01*
X112543996Y-135937571D01*
X112818184Y-136006300D01*
X113100512Y-136020217D01*
X113380130Y-135978787D01*
X113646292Y-135883603D01*
X113771514Y-135816671D01*
X113843097Y-135572702D01*
X113030000Y-134759605D01*
X112216903Y-135572702D01*
X93655604Y-135572702D01*
X94075909Y-135291864D01*
X94651864Y-134715909D01*
X94695560Y-134650512D01*
X111589783Y-134650512D01*
X111631213Y-134930130D01*
X111726397Y-135196292D01*
X111793329Y-135321514D01*
X112037298Y-135393097D01*
X112850395Y-134580000D01*
X113209605Y-134580000D01*
X114022702Y-135393097D01*
X114266671Y-135321514D01*
X114387571Y-135066004D01*
X114456300Y-134791816D01*
X114470217Y-134509488D01*
X114465651Y-134478665D01*
X117945000Y-134478665D01*
X117945000Y-134761335D01*
X118000147Y-135038574D01*
X118108320Y-135299727D01*
X118265363Y-135534759D01*
X118465241Y-135734637D01*
X118700273Y-135891680D01*
X118961426Y-135999853D01*
X119238665Y-136055000D01*
X119521335Y-136055000D01*
X119798574Y-135999853D01*
X120059727Y-135891680D01*
X120294759Y-135734637D01*
X120494637Y-135534759D01*
X120650000Y-135302241D01*
X120805363Y-135534759D01*
X121005241Y-135734637D01*
X121240273Y-135891680D01*
X121501426Y-135999853D01*
X121778665Y-136055000D01*
X122061335Y-136055000D01*
X122338574Y-135999853D01*
X122599727Y-135891680D01*
X122834759Y-135734637D01*
X123034637Y-135534759D01*
X123190000Y-135302241D01*
X123345363Y-135534759D01*
X123545241Y-135734637D01*
X123780273Y-135891680D01*
X124041426Y-135999853D01*
X124318665Y-136055000D01*
X124601335Y-136055000D01*
X124878574Y-135999853D01*
X125139727Y-135891680D01*
X125374759Y-135734637D01*
X125574637Y-135534759D01*
X125730000Y-135302241D01*
X125885363Y-135534759D01*
X126085241Y-135734637D01*
X126320273Y-135891680D01*
X126581426Y-135999853D01*
X126858665Y-136055000D01*
X127141335Y-136055000D01*
X127418574Y-135999853D01*
X127679727Y-135891680D01*
X127914759Y-135734637D01*
X128114637Y-135534759D01*
X128271680Y-135299727D01*
X128276067Y-135289135D01*
X128387615Y-135475131D01*
X128576586Y-135683519D01*
X128802580Y-135851037D01*
X129056913Y-135971246D01*
X129190961Y-136011904D01*
X129413000Y-135889915D01*
X129413000Y-134747000D01*
X129393000Y-134747000D01*
X129393000Y-134493000D01*
X129413000Y-134493000D01*
X129413000Y-133350085D01*
X129667000Y-133350085D01*
X129667000Y-134493000D01*
X129687000Y-134493000D01*
X129687000Y-134747000D01*
X129667000Y-134747000D01*
X129667000Y-135889915D01*
X129889039Y-136011904D01*
X130023087Y-135971246D01*
X130277420Y-135851037D01*
X130503414Y-135683519D01*
X130692385Y-135475131D01*
X130803933Y-135289135D01*
X130808320Y-135299727D01*
X130965363Y-135534759D01*
X131165241Y-135734637D01*
X131400273Y-135891680D01*
X131661426Y-135999853D01*
X131938665Y-136055000D01*
X132221335Y-136055000D01*
X132498574Y-135999853D01*
X132759727Y-135891680D01*
X132994759Y-135734637D01*
X133194637Y-135534759D01*
X133350000Y-135302241D01*
X133505363Y-135534759D01*
X133705241Y-135734637D01*
X133940273Y-135891680D01*
X134201426Y-135999853D01*
X134478665Y-136055000D01*
X134761335Y-136055000D01*
X135038574Y-135999853D01*
X135299727Y-135891680D01*
X135534759Y-135734637D01*
X135734637Y-135534759D01*
X135891680Y-135299727D01*
X135999853Y-135038574D01*
X136055000Y-134761335D01*
X136055000Y-134478665D01*
X135999853Y-134201426D01*
X135891680Y-133940273D01*
X135734637Y-133705241D01*
X135534759Y-133505363D01*
X135299727Y-133348320D01*
X135038574Y-133240147D01*
X134761335Y-133185000D01*
X134478665Y-133185000D01*
X134201426Y-133240147D01*
X133940273Y-133348320D01*
X133705241Y-133505363D01*
X133505363Y-133705241D01*
X133350000Y-133937759D01*
X133194637Y-133705241D01*
X132994759Y-133505363D01*
X132759727Y-133348320D01*
X132498574Y-133240147D01*
X132221335Y-133185000D01*
X131938665Y-133185000D01*
X131661426Y-133240147D01*
X131400273Y-133348320D01*
X131165241Y-133505363D01*
X130965363Y-133705241D01*
X130808320Y-133940273D01*
X130803933Y-133950865D01*
X130692385Y-133764869D01*
X130503414Y-133556481D01*
X130277420Y-133388963D01*
X130023087Y-133268754D01*
X129889039Y-133228096D01*
X129667000Y-133350085D01*
X129413000Y-133350085D01*
X129190961Y-133228096D01*
X129056913Y-133268754D01*
X128802580Y-133388963D01*
X128576586Y-133556481D01*
X128387615Y-133764869D01*
X128276067Y-133950865D01*
X128271680Y-133940273D01*
X128114637Y-133705241D01*
X127914759Y-133505363D01*
X127679727Y-133348320D01*
X127418574Y-133240147D01*
X127141335Y-133185000D01*
X126858665Y-133185000D01*
X126581426Y-133240147D01*
X126320273Y-133348320D01*
X126085241Y-133505363D01*
X125885363Y-133705241D01*
X125730000Y-133937759D01*
X125574637Y-133705241D01*
X125374759Y-133505363D01*
X125139727Y-133348320D01*
X124878574Y-133240147D01*
X124601335Y-133185000D01*
X124318665Y-133185000D01*
X124041426Y-133240147D01*
X123780273Y-133348320D01*
X123545241Y-133505363D01*
X123345363Y-133705241D01*
X123190000Y-133937759D01*
X123034637Y-133705241D01*
X122834759Y-133505363D01*
X122599727Y-133348320D01*
X122338574Y-133240147D01*
X122061335Y-133185000D01*
X121778665Y-133185000D01*
X121501426Y-133240147D01*
X121240273Y-133348320D01*
X121005241Y-133505363D01*
X120805363Y-133705241D01*
X120650000Y-133937759D01*
X120494637Y-133705241D01*
X120294759Y-133505363D01*
X120059727Y-133348320D01*
X119798574Y-133240147D01*
X119521335Y-133185000D01*
X119238665Y-133185000D01*
X118961426Y-133240147D01*
X118700273Y-133348320D01*
X118465241Y-133505363D01*
X118265363Y-133705241D01*
X118108320Y-133940273D01*
X118000147Y-134201426D01*
X117945000Y-134478665D01*
X114465651Y-134478665D01*
X114428787Y-134229870D01*
X114333603Y-133963708D01*
X114266671Y-133838486D01*
X114022702Y-133766903D01*
X113209605Y-134580000D01*
X112850395Y-134580000D01*
X112037298Y-133766903D01*
X111793329Y-133838486D01*
X111672429Y-134093996D01*
X111603700Y-134368184D01*
X111589783Y-134650512D01*
X94695560Y-134650512D01*
X95104389Y-134038657D01*
X95416094Y-133286135D01*
X95575000Y-132487262D01*
X95575000Y-131672738D01*
X95496880Y-131280000D01*
X111591928Y-131280000D01*
X111591928Y-132880000D01*
X111604188Y-133004482D01*
X111640498Y-133124180D01*
X111699463Y-133234494D01*
X111778815Y-133331185D01*
X111875506Y-133410537D01*
X111985820Y-133469502D01*
X112105518Y-133505812D01*
X112230000Y-133518072D01*
X112237215Y-133518072D01*
X112216903Y-133587298D01*
X113030000Y-134400395D01*
X113843097Y-133587298D01*
X113822785Y-133518072D01*
X113830000Y-133518072D01*
X113954482Y-133505812D01*
X114074180Y-133469502D01*
X114184494Y-133410537D01*
X114281185Y-133331185D01*
X114360537Y-133234494D01*
X114419502Y-133124180D01*
X114455812Y-133004482D01*
X114468072Y-132880000D01*
X114468072Y-131672738D01*
X169855000Y-131672738D01*
X169855000Y-132487262D01*
X170013906Y-133286135D01*
X170325611Y-134038657D01*
X170778136Y-134715909D01*
X171354091Y-135291864D01*
X172031343Y-135744389D01*
X172783865Y-136056094D01*
X173582738Y-136215000D01*
X174397262Y-136215000D01*
X175196135Y-136056094D01*
X175948657Y-135744389D01*
X176625909Y-135291864D01*
X177201864Y-134715909D01*
X177654389Y-134038657D01*
X177966094Y-133286135D01*
X178125000Y-132487262D01*
X178125000Y-131672738D01*
X177966094Y-130873865D01*
X177654389Y-130121343D01*
X177201864Y-129444091D01*
X176625909Y-128868136D01*
X175948657Y-128415611D01*
X175196135Y-128103906D01*
X174397262Y-127945000D01*
X173582738Y-127945000D01*
X172783865Y-128103906D01*
X172031343Y-128415611D01*
X171354091Y-128868136D01*
X170778136Y-129444091D01*
X170325611Y-130121343D01*
X170013906Y-130873865D01*
X169855000Y-131672738D01*
X114468072Y-131672738D01*
X114468072Y-131280000D01*
X114455812Y-131155518D01*
X114419502Y-131035820D01*
X114360537Y-130925506D01*
X114281185Y-130828815D01*
X114184494Y-130749463D01*
X114074180Y-130690498D01*
X113954482Y-130654188D01*
X113830000Y-130641928D01*
X112230000Y-130641928D01*
X112105518Y-130654188D01*
X111985820Y-130690498D01*
X111875506Y-130749463D01*
X111778815Y-130828815D01*
X111699463Y-130925506D01*
X111640498Y-131035820D01*
X111604188Y-131155518D01*
X111591928Y-131280000D01*
X95496880Y-131280000D01*
X95416094Y-130873865D01*
X95104389Y-130121343D01*
X94651864Y-129444091D01*
X94075909Y-128868136D01*
X93398657Y-128415611D01*
X92646135Y-128103906D01*
X91847262Y-127945000D01*
X91032738Y-127945000D01*
X90233865Y-128103906D01*
X89481343Y-128415611D01*
X88804091Y-128868136D01*
X88228136Y-129444091D01*
X87775611Y-130121343D01*
X87463906Y-130873865D01*
X87305000Y-131672738D01*
X87020000Y-131672738D01*
X87020000Y-126811917D01*
X100697688Y-126811917D01*
X100784393Y-127068653D01*
X101061223Y-127202048D01*
X101358757Y-127278873D01*
X101665562Y-127296176D01*
X101969848Y-127253292D01*
X102259921Y-127151868D01*
X102415607Y-127068653D01*
X102486524Y-126858665D01*
X117945000Y-126858665D01*
X117945000Y-127141335D01*
X118000147Y-127418574D01*
X118108320Y-127679727D01*
X118265363Y-127914759D01*
X118465241Y-128114637D01*
X118700273Y-128271680D01*
X118961426Y-128379853D01*
X119238665Y-128435000D01*
X119521335Y-128435000D01*
X119798574Y-128379853D01*
X120059727Y-128271680D01*
X120294759Y-128114637D01*
X120494637Y-127914759D01*
X120650000Y-127682241D01*
X120805363Y-127914759D01*
X121005241Y-128114637D01*
X121240273Y-128271680D01*
X121501426Y-128379853D01*
X121778665Y-128435000D01*
X122061335Y-128435000D01*
X122338574Y-128379853D01*
X122599727Y-128271680D01*
X122834759Y-128114637D01*
X123034637Y-127914759D01*
X123190000Y-127682241D01*
X123345363Y-127914759D01*
X123545241Y-128114637D01*
X123780273Y-128271680D01*
X124041426Y-128379853D01*
X124318665Y-128435000D01*
X124601335Y-128435000D01*
X124878574Y-128379853D01*
X125139727Y-128271680D01*
X125374759Y-128114637D01*
X125574637Y-127914759D01*
X125730000Y-127682241D01*
X125885363Y-127914759D01*
X126085241Y-128114637D01*
X126320273Y-128271680D01*
X126581426Y-128379853D01*
X126858665Y-128435000D01*
X127141335Y-128435000D01*
X127418574Y-128379853D01*
X127635000Y-128290207D01*
X127635000Y-128363581D01*
X127662564Y-128643444D01*
X127771494Y-129002538D01*
X127948387Y-129333482D01*
X128186444Y-129623556D01*
X128476518Y-129861613D01*
X128807461Y-130038506D01*
X129166555Y-130147436D01*
X129540000Y-130184217D01*
X129913444Y-130147436D01*
X130272538Y-130038506D01*
X130603482Y-129861613D01*
X130893556Y-129623556D01*
X131131613Y-129333482D01*
X131308506Y-129002539D01*
X131417436Y-128643445D01*
X131445000Y-128363582D01*
X131445000Y-128290207D01*
X131661426Y-128379853D01*
X131938665Y-128435000D01*
X132221335Y-128435000D01*
X132498574Y-128379853D01*
X132759727Y-128271680D01*
X132994759Y-128114637D01*
X133193357Y-127916039D01*
X133194188Y-127924482D01*
X133230498Y-128044180D01*
X133289463Y-128154494D01*
X133368815Y-128251185D01*
X133465506Y-128330537D01*
X133575820Y-128389502D01*
X133695518Y-128425812D01*
X133820000Y-128438072D01*
X135420000Y-128438072D01*
X135544482Y-128425812D01*
X135664180Y-128389502D01*
X135774494Y-128330537D01*
X135871185Y-128251185D01*
X135950537Y-128154494D01*
X136009502Y-128044180D01*
X136045812Y-127924482D01*
X136058072Y-127800000D01*
X136058072Y-126200000D01*
X136045812Y-126075518D01*
X136009502Y-125955820D01*
X135950537Y-125845506D01*
X135871185Y-125748815D01*
X135774494Y-125669463D01*
X135664180Y-125610498D01*
X135544482Y-125574188D01*
X135420000Y-125561928D01*
X133820000Y-125561928D01*
X133695518Y-125574188D01*
X133575820Y-125610498D01*
X133465506Y-125669463D01*
X133368815Y-125748815D01*
X133289463Y-125845506D01*
X133230498Y-125955820D01*
X133194188Y-126075518D01*
X133193357Y-126083961D01*
X132994759Y-125885363D01*
X132759727Y-125728320D01*
X132498574Y-125620147D01*
X132221335Y-125565000D01*
X131938665Y-125565000D01*
X131661426Y-125620147D01*
X131445000Y-125709793D01*
X131445000Y-124480207D01*
X131661426Y-124569853D01*
X131938665Y-124625000D01*
X132221335Y-124625000D01*
X132498574Y-124569853D01*
X132759727Y-124461680D01*
X132994759Y-124304637D01*
X133194637Y-124104759D01*
X133351680Y-123869727D01*
X133459853Y-123608574D01*
X133515000Y-123331335D01*
X133515000Y-123048665D01*
X133459853Y-122771426D01*
X133351680Y-122510273D01*
X133194637Y-122275241D01*
X132994759Y-122075363D01*
X132759727Y-121918320D01*
X132498574Y-121810147D01*
X132221335Y-121755000D01*
X131938665Y-121755000D01*
X131661426Y-121810147D01*
X131445000Y-121899793D01*
X131445000Y-111769445D01*
X131596913Y-111841246D01*
X131730961Y-111881904D01*
X131953000Y-111759915D01*
X131953000Y-110617000D01*
X132207000Y-110617000D01*
X132207000Y-111759915D01*
X132429039Y-111881904D01*
X132563087Y-111841246D01*
X132817420Y-111721037D01*
X133043414Y-111553519D01*
X133232385Y-111345131D01*
X133377070Y-111103881D01*
X133471909Y-110839040D01*
X133350624Y-110617000D01*
X132207000Y-110617000D01*
X131953000Y-110617000D01*
X131933000Y-110617000D01*
X131933000Y-110363000D01*
X131953000Y-110363000D01*
X131953000Y-110343000D01*
X132207000Y-110343000D01*
X132207000Y-110363000D01*
X133350624Y-110363000D01*
X133471909Y-110140960D01*
X133377070Y-109876119D01*
X133232385Y-109634869D01*
X133043414Y-109426481D01*
X132817420Y-109258963D01*
X132563087Y-109138754D01*
X132429039Y-109098096D01*
X132266899Y-109187176D01*
X133269076Y-108185000D01*
X140399869Y-108185000D01*
X140735000Y-108520132D01*
X140735000Y-108913581D01*
X140735001Y-108913591D01*
X140735001Y-109354184D01*
X140678505Y-109297688D01*
X140427095Y-109129701D01*
X140147743Y-109013989D01*
X139851184Y-108955000D01*
X139548816Y-108955000D01*
X139252257Y-109013989D01*
X138972905Y-109129701D01*
X138721495Y-109297688D01*
X138507688Y-109511495D01*
X138339701Y-109762905D01*
X138223989Y-110042257D01*
X138165000Y-110338816D01*
X138165000Y-110641184D01*
X138223989Y-110937743D01*
X138339701Y-111217095D01*
X138507688Y-111468505D01*
X138721495Y-111682312D01*
X138837763Y-111760000D01*
X138721495Y-111837688D01*
X138507688Y-112051495D01*
X138339701Y-112302905D01*
X138223989Y-112582257D01*
X138165000Y-112878816D01*
X138165000Y-113181184D01*
X138223989Y-113477743D01*
X138339701Y-113757095D01*
X138507688Y-114008505D01*
X138721495Y-114222312D01*
X138837763Y-114300000D01*
X138721495Y-114377688D01*
X138507688Y-114591495D01*
X138339701Y-114842905D01*
X138223989Y-115122257D01*
X138165000Y-115418816D01*
X138165000Y-115721184D01*
X138223989Y-116017743D01*
X138339701Y-116297095D01*
X138507688Y-116548505D01*
X138721495Y-116762312D01*
X138837763Y-116840000D01*
X138721495Y-116917688D01*
X138507688Y-117131495D01*
X138339701Y-117382905D01*
X138223989Y-117662257D01*
X138165000Y-117958816D01*
X138165000Y-118261184D01*
X138223989Y-118557743D01*
X138339701Y-118837095D01*
X138507688Y-119088505D01*
X138721495Y-119302312D01*
X138837763Y-119380000D01*
X138721495Y-119457688D01*
X138507688Y-119671495D01*
X138339701Y-119922905D01*
X138223989Y-120202257D01*
X138165000Y-120498816D01*
X138165000Y-120801184D01*
X138223989Y-121097743D01*
X138339701Y-121377095D01*
X138507688Y-121628505D01*
X138721495Y-121842312D01*
X138837763Y-121920000D01*
X138721495Y-121997688D01*
X138507688Y-122211495D01*
X138339701Y-122462905D01*
X138223989Y-122742257D01*
X138165000Y-123038816D01*
X138165000Y-123341184D01*
X138223989Y-123637743D01*
X138339701Y-123917095D01*
X138507688Y-124168505D01*
X138721495Y-124382312D01*
X138837763Y-124460000D01*
X138721495Y-124537688D01*
X138507688Y-124751495D01*
X138339701Y-125002905D01*
X138223989Y-125282257D01*
X138165000Y-125578816D01*
X138165000Y-125881184D01*
X138223989Y-126177743D01*
X138339701Y-126457095D01*
X138507688Y-126708505D01*
X138721495Y-126922312D01*
X138837763Y-127000000D01*
X138721495Y-127077688D01*
X138507688Y-127291495D01*
X138339701Y-127542905D01*
X138223989Y-127822257D01*
X138165000Y-128118816D01*
X138165000Y-128421184D01*
X138223989Y-128717743D01*
X138339701Y-128997095D01*
X138507688Y-129248505D01*
X138721495Y-129462312D01*
X138972905Y-129630299D01*
X139252257Y-129746011D01*
X139548816Y-129805000D01*
X139851184Y-129805000D01*
X140147743Y-129746011D01*
X140427095Y-129630299D01*
X140678505Y-129462312D01*
X140892312Y-129248505D01*
X141060299Y-128997095D01*
X141176011Y-128717743D01*
X141235000Y-128421184D01*
X141235000Y-128118816D01*
X141176011Y-127822257D01*
X141060299Y-127542905D01*
X140892312Y-127291495D01*
X140678505Y-127077688D01*
X140562237Y-127000000D01*
X140678505Y-126922312D01*
X140892312Y-126708505D01*
X141060299Y-126457095D01*
X141176011Y-126177743D01*
X141235000Y-125881184D01*
X141235000Y-125578816D01*
X141176011Y-125282257D01*
X141060299Y-125002905D01*
X140892312Y-124751495D01*
X140678505Y-124537688D01*
X140562237Y-124460000D01*
X140678505Y-124382312D01*
X140892312Y-124168505D01*
X141060299Y-123917095D01*
X141176011Y-123637743D01*
X141191822Y-123558258D01*
X141286444Y-123673556D01*
X141359145Y-123733220D01*
X147176789Y-129550866D01*
X147236444Y-129623556D01*
X147309134Y-129683211D01*
X147526517Y-129861613D01*
X147857460Y-130038506D01*
X147941037Y-130063859D01*
X148216555Y-130147436D01*
X148496418Y-130175000D01*
X148496420Y-130175000D01*
X148590000Y-130184217D01*
X148683580Y-130175000D01*
X162653582Y-130175000D01*
X162933445Y-130147436D01*
X163292539Y-130038506D01*
X163623482Y-129861613D01*
X163913556Y-129623556D01*
X164151613Y-129333482D01*
X164328506Y-129002539D01*
X164437436Y-128643445D01*
X164474217Y-128270000D01*
X164446504Y-127988627D01*
X166840133Y-125595000D01*
X172541447Y-125595000D01*
X172564662Y-125629744D01*
X172820256Y-125885338D01*
X173120801Y-126086156D01*
X173454750Y-126224482D01*
X173809268Y-126295000D01*
X174170732Y-126295000D01*
X174525250Y-126224482D01*
X174859199Y-126086156D01*
X175159744Y-125885338D01*
X175415338Y-125629744D01*
X175616156Y-125329199D01*
X175754482Y-124995250D01*
X175825000Y-124640732D01*
X175825000Y-124279268D01*
X175754482Y-123924750D01*
X175616156Y-123590801D01*
X175415338Y-123290256D01*
X175159744Y-123034662D01*
X174859199Y-122833844D01*
X174525250Y-122695518D01*
X174170732Y-122625000D01*
X173809268Y-122625000D01*
X173454750Y-122695518D01*
X173120801Y-122833844D01*
X172820256Y-123034662D01*
X172564662Y-123290256D01*
X172541447Y-123325000D01*
X166425752Y-123325000D01*
X166370000Y-123319509D01*
X166147501Y-123341423D01*
X165933553Y-123406324D01*
X165736377Y-123511716D01*
X165606856Y-123618011D01*
X165606854Y-123618013D01*
X165563551Y-123653551D01*
X165528013Y-123696854D01*
X164007039Y-125217829D01*
X163958222Y-125078801D01*
X163878261Y-124929208D01*
X163624080Y-124845525D01*
X162739605Y-125730000D01*
X162753748Y-125744143D01*
X162574143Y-125923748D01*
X162560000Y-125909605D01*
X162545858Y-125923748D01*
X162366253Y-125744143D01*
X162380395Y-125730000D01*
X161495920Y-124845525D01*
X161241739Y-124929208D01*
X161110842Y-125201775D01*
X161035635Y-125494642D01*
X161019009Y-125796553D01*
X161061603Y-126095907D01*
X161156090Y-126365000D01*
X149379077Y-126365000D01*
X144545000Y-121530925D01*
X144545000Y-110338816D01*
X161025000Y-110338816D01*
X161025000Y-110641184D01*
X161083989Y-110937743D01*
X161199701Y-111217095D01*
X161367688Y-111468505D01*
X161581495Y-111682312D01*
X161697763Y-111760000D01*
X161581495Y-111837688D01*
X161367688Y-112051495D01*
X161199701Y-112302905D01*
X161083989Y-112582257D01*
X161025000Y-112878816D01*
X161025000Y-113181184D01*
X161083989Y-113477743D01*
X161199701Y-113757095D01*
X161367688Y-114008505D01*
X161581495Y-114222312D01*
X161697763Y-114300000D01*
X161581495Y-114377688D01*
X161367688Y-114591495D01*
X161199701Y-114842905D01*
X161083989Y-115122257D01*
X161025000Y-115418816D01*
X161025000Y-115721184D01*
X161083989Y-116017743D01*
X161199701Y-116297095D01*
X161367688Y-116548505D01*
X161581495Y-116762312D01*
X161697763Y-116840000D01*
X161581495Y-116917688D01*
X161367688Y-117131495D01*
X161199701Y-117382905D01*
X161083989Y-117662257D01*
X161025000Y-117958816D01*
X161025000Y-118261184D01*
X161083989Y-118557743D01*
X161199701Y-118837095D01*
X161367688Y-119088505D01*
X161581495Y-119302312D01*
X161697763Y-119380000D01*
X161581495Y-119457688D01*
X161367688Y-119671495D01*
X161199701Y-119922905D01*
X161083989Y-120202257D01*
X161025000Y-120498816D01*
X161025000Y-120801184D01*
X161083989Y-121097743D01*
X161199701Y-121377095D01*
X161367688Y-121628505D01*
X161581495Y-121842312D01*
X161697763Y-121920000D01*
X161581495Y-121997688D01*
X161367688Y-122211495D01*
X161199701Y-122462905D01*
X161083989Y-122742257D01*
X161025000Y-123038816D01*
X161025000Y-123341184D01*
X161083989Y-123637743D01*
X161199701Y-123917095D01*
X161367688Y-124168505D01*
X161581495Y-124382312D01*
X161735105Y-124484951D01*
X161675525Y-124665920D01*
X162560000Y-125550395D01*
X163444475Y-124665920D01*
X163384895Y-124484951D01*
X163538505Y-124382312D01*
X163752312Y-124168505D01*
X163920299Y-123917095D01*
X164036011Y-123637743D01*
X164095000Y-123341184D01*
X164095000Y-123038816D01*
X164036011Y-122742257D01*
X163920299Y-122462905D01*
X163752312Y-122211495D01*
X163538505Y-121997688D01*
X163422237Y-121920000D01*
X163538505Y-121842312D01*
X163752312Y-121628505D01*
X163920299Y-121377095D01*
X164036011Y-121097743D01*
X164095000Y-120801184D01*
X164095000Y-120498816D01*
X164036011Y-120202257D01*
X163920299Y-119922905D01*
X163752312Y-119671495D01*
X163538505Y-119457688D01*
X163422237Y-119380000D01*
X163538505Y-119302312D01*
X163641549Y-119199268D01*
X172155000Y-119199268D01*
X172155000Y-119560732D01*
X172225518Y-119915250D01*
X172363844Y-120249199D01*
X172564662Y-120549744D01*
X172820256Y-120805338D01*
X173120801Y-121006156D01*
X173454750Y-121144482D01*
X173809268Y-121215000D01*
X174170732Y-121215000D01*
X174525250Y-121144482D01*
X174859199Y-121006156D01*
X175159744Y-120805338D01*
X175415338Y-120549744D01*
X175616156Y-120249199D01*
X175754482Y-119915250D01*
X175825000Y-119560732D01*
X175825000Y-119199268D01*
X175754482Y-118844750D01*
X175616156Y-118510801D01*
X175415338Y-118210256D01*
X175159744Y-117954662D01*
X174859199Y-117753844D01*
X174525250Y-117615518D01*
X174170732Y-117545000D01*
X173809268Y-117545000D01*
X173454750Y-117615518D01*
X173120801Y-117753844D01*
X172820256Y-117954662D01*
X172564662Y-118210256D01*
X172363844Y-118510801D01*
X172225518Y-118844750D01*
X172155000Y-119199268D01*
X163641549Y-119199268D01*
X163752312Y-119088505D01*
X163920299Y-118837095D01*
X164036011Y-118557743D01*
X164095000Y-118261184D01*
X164095000Y-117958816D01*
X164036011Y-117662257D01*
X163920299Y-117382905D01*
X163752312Y-117131495D01*
X163538505Y-116917688D01*
X163422237Y-116840000D01*
X163538505Y-116762312D01*
X163752312Y-116548505D01*
X163920299Y-116297095D01*
X164036011Y-116017743D01*
X164095000Y-115721184D01*
X164095000Y-115500000D01*
X172151928Y-115500000D01*
X172164188Y-115624482D01*
X172200498Y-115744180D01*
X172259463Y-115854494D01*
X172338815Y-115951185D01*
X172435506Y-116030537D01*
X172545820Y-116089502D01*
X172665518Y-116125812D01*
X172790000Y-116138072D01*
X173704250Y-116135000D01*
X173863000Y-115976250D01*
X173863000Y-114427000D01*
X174117000Y-114427000D01*
X174117000Y-115976250D01*
X174275750Y-116135000D01*
X175190000Y-116138072D01*
X175314482Y-116125812D01*
X175434180Y-116089502D01*
X175544494Y-116030537D01*
X175641185Y-115951185D01*
X175720537Y-115854494D01*
X175779502Y-115744180D01*
X175815812Y-115624482D01*
X175828072Y-115500000D01*
X175825000Y-114585750D01*
X175666250Y-114427000D01*
X174117000Y-114427000D01*
X173863000Y-114427000D01*
X172313750Y-114427000D01*
X172155000Y-114585750D01*
X172151928Y-115500000D01*
X164095000Y-115500000D01*
X164095000Y-115418816D01*
X164036011Y-115122257D01*
X163920299Y-114842905D01*
X163752312Y-114591495D01*
X163538505Y-114377688D01*
X163422237Y-114300000D01*
X163538505Y-114222312D01*
X163752312Y-114008505D01*
X163920299Y-113757095D01*
X164036011Y-113477743D01*
X164095000Y-113181184D01*
X164095000Y-113100000D01*
X172151928Y-113100000D01*
X172155000Y-114014250D01*
X172313750Y-114173000D01*
X173863000Y-114173000D01*
X173863000Y-112623750D01*
X174117000Y-112623750D01*
X174117000Y-114173000D01*
X175666250Y-114173000D01*
X175825000Y-114014250D01*
X175828072Y-113100000D01*
X175815812Y-112975518D01*
X175779502Y-112855820D01*
X175720537Y-112745506D01*
X175641185Y-112648815D01*
X175544494Y-112569463D01*
X175434180Y-112510498D01*
X175314482Y-112474188D01*
X175190000Y-112461928D01*
X174275750Y-112465000D01*
X174117000Y-112623750D01*
X173863000Y-112623750D01*
X173704250Y-112465000D01*
X172790000Y-112461928D01*
X172665518Y-112474188D01*
X172545820Y-112510498D01*
X172435506Y-112569463D01*
X172338815Y-112648815D01*
X172259463Y-112745506D01*
X172200498Y-112855820D01*
X172164188Y-112975518D01*
X172151928Y-113100000D01*
X164095000Y-113100000D01*
X164095000Y-112878816D01*
X164036011Y-112582257D01*
X163920299Y-112302905D01*
X163752312Y-112051495D01*
X163538505Y-111837688D01*
X163422237Y-111760000D01*
X163538505Y-111682312D01*
X163752312Y-111468505D01*
X163920299Y-111217095D01*
X164036011Y-110937743D01*
X164095000Y-110641184D01*
X164095000Y-110338816D01*
X164036011Y-110042257D01*
X163920299Y-109762905D01*
X163752312Y-109511495D01*
X163538505Y-109297688D01*
X163287095Y-109129701D01*
X163007743Y-109013989D01*
X162711184Y-108955000D01*
X162408816Y-108955000D01*
X162112257Y-109013989D01*
X161832905Y-109129701D01*
X161581495Y-109297688D01*
X161367688Y-109511495D01*
X161199701Y-109762905D01*
X161083989Y-110042257D01*
X161025000Y-110338816D01*
X144545000Y-110338816D01*
X144545000Y-106373581D01*
X144554217Y-106280000D01*
X144545000Y-106186418D01*
X144545000Y-98918665D01*
X147155000Y-98918665D01*
X147155000Y-99201335D01*
X147210147Y-99478574D01*
X147318320Y-99739727D01*
X147475363Y-99974759D01*
X147675241Y-100174637D01*
X147910273Y-100331680D01*
X148171426Y-100439853D01*
X148448665Y-100495000D01*
X148731335Y-100495000D01*
X149008574Y-100439853D01*
X149269727Y-100331680D01*
X149504759Y-100174637D01*
X149704637Y-99974759D01*
X149861680Y-99739727D01*
X149969853Y-99478574D01*
X150025000Y-99201335D01*
X150025000Y-98918665D01*
X159855000Y-98918665D01*
X159855000Y-99201335D01*
X159910147Y-99478574D01*
X160018320Y-99739727D01*
X160175363Y-99974759D01*
X160375241Y-100174637D01*
X160610273Y-100331680D01*
X160871426Y-100439853D01*
X161148665Y-100495000D01*
X161431335Y-100495000D01*
X161708574Y-100439853D01*
X161969727Y-100331680D01*
X162204759Y-100174637D01*
X162404637Y-99974759D01*
X162561680Y-99739727D01*
X162669853Y-99478574D01*
X162725000Y-99201335D01*
X162725000Y-98918665D01*
X162669853Y-98641426D01*
X162561680Y-98380273D01*
X162404637Y-98145241D01*
X162204759Y-97945363D01*
X161969727Y-97788320D01*
X161708574Y-97680147D01*
X161431335Y-97625000D01*
X161148665Y-97625000D01*
X160871426Y-97680147D01*
X160610273Y-97788320D01*
X160375241Y-97945363D01*
X160175363Y-98145241D01*
X160018320Y-98380273D01*
X159910147Y-98641426D01*
X159855000Y-98918665D01*
X150025000Y-98918665D01*
X149969853Y-98641426D01*
X149861680Y-98380273D01*
X149704637Y-98145241D01*
X149504759Y-97945363D01*
X149269727Y-97788320D01*
X149008574Y-97680147D01*
X148731335Y-97625000D01*
X148448665Y-97625000D01*
X148171426Y-97680147D01*
X147910273Y-97788320D01*
X147675241Y-97945363D01*
X147475363Y-98145241D01*
X147318320Y-98380273D01*
X147210147Y-98641426D01*
X147155000Y-98918665D01*
X144545000Y-98918665D01*
X144545000Y-96339268D01*
X172155000Y-96339268D01*
X172155000Y-96700732D01*
X172225518Y-97055250D01*
X172363844Y-97389199D01*
X172564662Y-97689744D01*
X172820256Y-97945338D01*
X173120801Y-98146156D01*
X173454750Y-98284482D01*
X173809268Y-98355000D01*
X174170732Y-98355000D01*
X174525250Y-98284482D01*
X174859199Y-98146156D01*
X175159744Y-97945338D01*
X175415338Y-97689744D01*
X175616156Y-97389199D01*
X175754482Y-97055250D01*
X175825000Y-96700732D01*
X175825000Y-96339268D01*
X175754482Y-95984750D01*
X175616156Y-95650801D01*
X175415338Y-95350256D01*
X175159744Y-95094662D01*
X174859199Y-94893844D01*
X174525250Y-94755518D01*
X174170732Y-94685000D01*
X173809268Y-94685000D01*
X173454750Y-94755518D01*
X173120801Y-94893844D01*
X172820256Y-95094662D01*
X172564662Y-95350256D01*
X172363844Y-95650801D01*
X172225518Y-95984750D01*
X172155000Y-96339268D01*
X144545000Y-96339268D01*
X144545000Y-93838665D01*
X156045000Y-93838665D01*
X156045000Y-94121335D01*
X156100147Y-94398574D01*
X156208320Y-94659727D01*
X156365363Y-94894759D01*
X156565241Y-95094637D01*
X156800273Y-95251680D01*
X157061426Y-95359853D01*
X157338665Y-95415000D01*
X157621335Y-95415000D01*
X157898574Y-95359853D01*
X158159727Y-95251680D01*
X158394759Y-95094637D01*
X158594637Y-94894759D01*
X158751680Y-94659727D01*
X158859853Y-94398574D01*
X158915000Y-94121335D01*
X158915000Y-93838665D01*
X158859853Y-93561426D01*
X158751680Y-93300273D01*
X158594637Y-93065241D01*
X158394759Y-92865363D01*
X158159727Y-92708320D01*
X158149135Y-92703933D01*
X158335131Y-92592385D01*
X158543519Y-92403414D01*
X158711037Y-92177420D01*
X158831246Y-91923087D01*
X158871904Y-91789039D01*
X158749915Y-91567000D01*
X157607000Y-91567000D01*
X157607000Y-91587000D01*
X157353000Y-91587000D01*
X157353000Y-91567000D01*
X156210085Y-91567000D01*
X156088096Y-91789039D01*
X156128754Y-91923087D01*
X156248963Y-92177420D01*
X156416481Y-92403414D01*
X156624869Y-92592385D01*
X156810865Y-92703933D01*
X156800273Y-92708320D01*
X156565241Y-92865363D01*
X156365363Y-93065241D01*
X156208320Y-93300273D01*
X156100147Y-93561426D01*
X156045000Y-93838665D01*
X144545000Y-93838665D01*
X144545000Y-91865000D01*
X148706420Y-91865000D01*
X148800000Y-91874217D01*
X148893580Y-91865000D01*
X148893582Y-91865000D01*
X149173445Y-91837436D01*
X149532539Y-91728506D01*
X149863482Y-91551613D01*
X150153556Y-91313556D01*
X150213220Y-91240855D01*
X153354076Y-88100000D01*
X156041928Y-88100000D01*
X156041928Y-89700000D01*
X156054188Y-89824482D01*
X156090498Y-89944180D01*
X156149463Y-90054494D01*
X156228815Y-90151185D01*
X156325506Y-90230537D01*
X156435820Y-90289502D01*
X156555518Y-90325812D01*
X156580080Y-90328231D01*
X156416481Y-90476586D01*
X156248963Y-90702580D01*
X156128754Y-90956913D01*
X156088096Y-91090961D01*
X156210085Y-91313000D01*
X157353000Y-91313000D01*
X157353000Y-91293000D01*
X157607000Y-91293000D01*
X157607000Y-91313000D01*
X158749915Y-91313000D01*
X158871904Y-91090961D01*
X158831246Y-90956913D01*
X158711037Y-90702580D01*
X158543519Y-90476586D01*
X158379920Y-90328231D01*
X158404482Y-90325812D01*
X158524180Y-90289502D01*
X158634494Y-90230537D01*
X158731185Y-90151185D01*
X158810537Y-90054494D01*
X158869502Y-89944180D01*
X158905812Y-89824482D01*
X158918072Y-89700000D01*
X158918072Y-88758665D01*
X163665000Y-88758665D01*
X163665000Y-89041335D01*
X163720147Y-89318574D01*
X163828320Y-89579727D01*
X163985363Y-89814759D01*
X164185241Y-90014637D01*
X164417759Y-90170000D01*
X164185241Y-90325363D01*
X163985363Y-90525241D01*
X163828320Y-90760273D01*
X163720147Y-91021426D01*
X163665000Y-91298665D01*
X163665000Y-91581335D01*
X163720147Y-91858574D01*
X163828320Y-92119727D01*
X163985363Y-92354759D01*
X164185241Y-92554637D01*
X164417759Y-92710000D01*
X164185241Y-92865363D01*
X163985363Y-93065241D01*
X163828320Y-93300273D01*
X163720147Y-93561426D01*
X163665000Y-93838665D01*
X163665000Y-94121335D01*
X163720147Y-94398574D01*
X163828320Y-94659727D01*
X163985363Y-94894759D01*
X164185241Y-95094637D01*
X164420273Y-95251680D01*
X164681426Y-95359853D01*
X164958665Y-95415000D01*
X165241335Y-95415000D01*
X165518574Y-95359853D01*
X165779727Y-95251680D01*
X166014759Y-95094637D01*
X166214637Y-94894759D01*
X166371680Y-94659727D01*
X166479853Y-94398574D01*
X166535000Y-94121335D01*
X166535000Y-93838665D01*
X166479853Y-93561426D01*
X166371680Y-93300273D01*
X166214637Y-93065241D01*
X166014759Y-92865363D01*
X165782241Y-92710000D01*
X166014759Y-92554637D01*
X166214637Y-92354759D01*
X166371680Y-92119727D01*
X166479853Y-91858574D01*
X166535000Y-91581335D01*
X166535000Y-91298665D01*
X166479853Y-91021426D01*
X166371680Y-90760273D01*
X166214637Y-90525241D01*
X166014759Y-90325363D01*
X165887004Y-90240000D01*
X172151928Y-90240000D01*
X172151928Y-92640000D01*
X172164188Y-92764482D01*
X172200498Y-92884180D01*
X172259463Y-92994494D01*
X172338815Y-93091185D01*
X172435506Y-93170537D01*
X172545820Y-93229502D01*
X172665518Y-93265812D01*
X172790000Y-93278072D01*
X175190000Y-93278072D01*
X175314482Y-93265812D01*
X175434180Y-93229502D01*
X175544494Y-93170537D01*
X175641185Y-93091185D01*
X175720537Y-92994494D01*
X175779502Y-92884180D01*
X175815812Y-92764482D01*
X175828072Y-92640000D01*
X175828072Y-90240000D01*
X175815812Y-90115518D01*
X175779502Y-89995820D01*
X175720537Y-89885506D01*
X175641185Y-89788815D01*
X175544494Y-89709463D01*
X175434180Y-89650498D01*
X175314482Y-89614188D01*
X175190000Y-89601928D01*
X172790000Y-89601928D01*
X172665518Y-89614188D01*
X172545820Y-89650498D01*
X172435506Y-89709463D01*
X172338815Y-89788815D01*
X172259463Y-89885506D01*
X172200498Y-89995820D01*
X172164188Y-90115518D01*
X172151928Y-90240000D01*
X165887004Y-90240000D01*
X165782241Y-90170000D01*
X166014759Y-90014637D01*
X166214637Y-89814759D01*
X166371680Y-89579727D01*
X166479853Y-89318574D01*
X166535000Y-89041335D01*
X166535000Y-88758665D01*
X166479853Y-88481426D01*
X166371680Y-88220273D01*
X166214637Y-87985241D01*
X166014759Y-87785363D01*
X165779727Y-87628320D01*
X165518574Y-87520147D01*
X165241335Y-87465000D01*
X164958665Y-87465000D01*
X164681426Y-87520147D01*
X164420273Y-87628320D01*
X164185241Y-87785363D01*
X163985363Y-87985241D01*
X163828320Y-88220273D01*
X163720147Y-88481426D01*
X163665000Y-88758665D01*
X158918072Y-88758665D01*
X158918072Y-88100000D01*
X158905812Y-87975518D01*
X158869502Y-87855820D01*
X158810537Y-87745506D01*
X158731185Y-87648815D01*
X158634494Y-87569463D01*
X158524180Y-87510498D01*
X158404482Y-87474188D01*
X158280000Y-87461928D01*
X156680000Y-87461928D01*
X156555518Y-87474188D01*
X156435820Y-87510498D01*
X156325506Y-87569463D01*
X156228815Y-87648815D01*
X156149463Y-87745506D01*
X156090498Y-87855820D01*
X156054188Y-87975518D01*
X156041928Y-88100000D01*
X153354076Y-88100000D01*
X153813211Y-87640866D01*
X153991613Y-87423483D01*
X154168506Y-87092540D01*
X154277435Y-86733445D01*
X154314217Y-86360000D01*
X154277435Y-85986555D01*
X154168506Y-85627461D01*
X153991613Y-85296518D01*
X153753555Y-85006445D01*
X153463482Y-84768387D01*
X153132539Y-84591494D01*
X152773445Y-84482565D01*
X152400000Y-84445783D01*
X152026555Y-84482565D01*
X151667460Y-84591494D01*
X151336517Y-84768387D01*
X151119134Y-84946789D01*
X148010925Y-88055000D01*
X143619946Y-88055000D01*
X143262756Y-87907047D01*
X142850279Y-87825000D01*
X142429721Y-87825000D01*
X142017244Y-87907047D01*
X141628698Y-88067988D01*
X141279017Y-88301637D01*
X140981637Y-88599017D01*
X140747988Y-88948698D01*
X140587047Y-89337244D01*
X140505000Y-89749721D01*
X140505000Y-90170279D01*
X140587047Y-90582756D01*
X140735001Y-90939948D01*
X140735000Y-96213581D01*
X140735001Y-96213591D01*
X140735000Y-103833581D01*
X140735001Y-103833590D01*
X140735001Y-104039868D01*
X140399869Y-104375000D01*
X132573580Y-104375000D01*
X132480000Y-104365783D01*
X132386420Y-104375000D01*
X132386418Y-104375000D01*
X132106555Y-104402564D01*
X131747461Y-104511494D01*
X131593410Y-104593836D01*
X131416517Y-104688387D01*
X131318319Y-104768977D01*
X131126444Y-104926444D01*
X131066784Y-104999140D01*
X128410297Y-107655628D01*
X128425812Y-107604482D01*
X128438072Y-107480000D01*
X128438072Y-105880000D01*
X128425812Y-105755518D01*
X128389502Y-105635820D01*
X128330537Y-105525506D01*
X128251185Y-105428815D01*
X128154494Y-105349463D01*
X128044180Y-105290498D01*
X127924482Y-105254188D01*
X127800000Y-105241928D01*
X126200000Y-105241928D01*
X126075518Y-105254188D01*
X125955820Y-105290498D01*
X125845506Y-105349463D01*
X125748815Y-105428815D01*
X125669463Y-105525506D01*
X125610498Y-105635820D01*
X125574188Y-105755518D01*
X125561928Y-105880000D01*
X125561928Y-107480000D01*
X125574188Y-107604482D01*
X125610498Y-107724180D01*
X125669463Y-107834494D01*
X125748815Y-107931185D01*
X125845506Y-108010537D01*
X125955820Y-108069502D01*
X126075518Y-108105812D01*
X126200000Y-108118072D01*
X127800000Y-108118072D01*
X127924482Y-108105812D01*
X128011718Y-108079349D01*
X127948387Y-108156518D01*
X127771495Y-108487461D01*
X127741907Y-108585000D01*
X126906418Y-108585000D01*
X126626555Y-108612564D01*
X126267461Y-108721494D01*
X125936518Y-108898387D01*
X125646444Y-109136444D01*
X125408387Y-109426518D01*
X125231494Y-109757461D01*
X125122564Y-110116555D01*
X125085783Y-110490000D01*
X125122564Y-110863445D01*
X125231494Y-111222539D01*
X125408387Y-111553482D01*
X125646444Y-111843556D01*
X125936518Y-112081613D01*
X126267461Y-112258506D01*
X126626555Y-112367436D01*
X126906418Y-112395000D01*
X127635001Y-112395000D01*
X127635000Y-121899794D01*
X127418574Y-121810147D01*
X127141335Y-121755000D01*
X126858665Y-121755000D01*
X126581426Y-121810147D01*
X126320273Y-121918320D01*
X126085241Y-122075363D01*
X125885363Y-122275241D01*
X125728320Y-122510273D01*
X125620147Y-122771426D01*
X125565000Y-123048665D01*
X125565000Y-123331335D01*
X125620147Y-123608574D01*
X125728320Y-123869727D01*
X125885363Y-124104759D01*
X126085241Y-124304637D01*
X126320273Y-124461680D01*
X126581426Y-124569853D01*
X126858665Y-124625000D01*
X127141335Y-124625000D01*
X127418574Y-124569853D01*
X127635000Y-124480206D01*
X127635000Y-125709794D01*
X127418574Y-125620147D01*
X127141335Y-125565000D01*
X126858665Y-125565000D01*
X126581426Y-125620147D01*
X126320273Y-125728320D01*
X126085241Y-125885363D01*
X125885363Y-126085241D01*
X125730000Y-126317759D01*
X125574637Y-126085241D01*
X125374759Y-125885363D01*
X125139727Y-125728320D01*
X124878574Y-125620147D01*
X124601335Y-125565000D01*
X124318665Y-125565000D01*
X124041426Y-125620147D01*
X123780273Y-125728320D01*
X123545241Y-125885363D01*
X123345363Y-126085241D01*
X123190000Y-126317759D01*
X123034637Y-126085241D01*
X122834759Y-125885363D01*
X122599727Y-125728320D01*
X122338574Y-125620147D01*
X122061335Y-125565000D01*
X121778665Y-125565000D01*
X121501426Y-125620147D01*
X121240273Y-125728320D01*
X121005241Y-125885363D01*
X120805363Y-126085241D01*
X120650000Y-126317759D01*
X120494637Y-126085241D01*
X120294759Y-125885363D01*
X120059727Y-125728320D01*
X119798574Y-125620147D01*
X119521335Y-125565000D01*
X119238665Y-125565000D01*
X118961426Y-125620147D01*
X118700273Y-125728320D01*
X118465241Y-125885363D01*
X118265363Y-126085241D01*
X118108320Y-126320273D01*
X118000147Y-126581426D01*
X117945000Y-126858665D01*
X102486524Y-126858665D01*
X102502312Y-126811917D01*
X101600000Y-125909605D01*
X100697688Y-126811917D01*
X87020000Y-126811917D01*
X87020000Y-125795562D01*
X100033824Y-125795562D01*
X100076708Y-126099848D01*
X100178132Y-126389921D01*
X100261347Y-126545607D01*
X100518083Y-126632312D01*
X101420395Y-125730000D01*
X101779605Y-125730000D01*
X102681917Y-126632312D01*
X102938653Y-126545607D01*
X103072048Y-126268777D01*
X103148873Y-125971243D01*
X103166176Y-125664438D01*
X103123292Y-125360152D01*
X103021868Y-125070079D01*
X102938653Y-124914393D01*
X102681917Y-124827688D01*
X101779605Y-125730000D01*
X101420395Y-125730000D01*
X100518083Y-124827688D01*
X100261347Y-124914393D01*
X100127952Y-125191223D01*
X100051127Y-125488757D01*
X100033824Y-125795562D01*
X87020000Y-125795562D01*
X87020000Y-124648083D01*
X100697688Y-124648083D01*
X101600000Y-125550395D01*
X102502312Y-124648083D01*
X102415607Y-124391347D01*
X102138777Y-124257952D01*
X101841243Y-124181127D01*
X101534438Y-124163824D01*
X101230152Y-124206708D01*
X100940079Y-124308132D01*
X100784393Y-124391347D01*
X100697688Y-124648083D01*
X87020000Y-124648083D01*
X87020000Y-123539040D01*
X115448091Y-123539040D01*
X115542930Y-123803881D01*
X115687615Y-124045131D01*
X115876586Y-124253519D01*
X116102580Y-124421037D01*
X116356913Y-124541246D01*
X116490961Y-124581904D01*
X116713000Y-124459915D01*
X116713000Y-123317000D01*
X116967000Y-123317000D01*
X116967000Y-124459915D01*
X117189039Y-124581904D01*
X117323087Y-124541246D01*
X117577420Y-124421037D01*
X117803414Y-124253519D01*
X117992385Y-124045131D01*
X118137070Y-123803881D01*
X118231909Y-123539040D01*
X120528091Y-123539040D01*
X120622930Y-123803881D01*
X120767615Y-124045131D01*
X120956586Y-124253519D01*
X121182580Y-124421037D01*
X121436913Y-124541246D01*
X121570961Y-124581904D01*
X121793000Y-124459915D01*
X121793000Y-123317000D01*
X122047000Y-123317000D01*
X122047000Y-124459915D01*
X122269039Y-124581904D01*
X122403087Y-124541246D01*
X122657420Y-124421037D01*
X122883414Y-124253519D01*
X123072385Y-124045131D01*
X123217070Y-123803881D01*
X123311909Y-123539040D01*
X123190624Y-123317000D01*
X122047000Y-123317000D01*
X121793000Y-123317000D01*
X120649376Y-123317000D01*
X120528091Y-123539040D01*
X118231909Y-123539040D01*
X118110624Y-123317000D01*
X116967000Y-123317000D01*
X116713000Y-123317000D01*
X115569376Y-123317000D01*
X115448091Y-123539040D01*
X87020000Y-123539040D01*
X87020000Y-122840960D01*
X115448091Y-122840960D01*
X115569376Y-123063000D01*
X116713000Y-123063000D01*
X116713000Y-121920085D01*
X116967000Y-121920085D01*
X116967000Y-123063000D01*
X118110624Y-123063000D01*
X118231909Y-122840960D01*
X120528091Y-122840960D01*
X120649376Y-123063000D01*
X121793000Y-123063000D01*
X121793000Y-121920085D01*
X122047000Y-121920085D01*
X122047000Y-123063000D01*
X123190624Y-123063000D01*
X123311909Y-122840960D01*
X123217070Y-122576119D01*
X123072385Y-122334869D01*
X122883414Y-122126481D01*
X122657420Y-121958963D01*
X122403087Y-121838754D01*
X122269039Y-121798096D01*
X122047000Y-121920085D01*
X121793000Y-121920085D01*
X121570961Y-121798096D01*
X121436913Y-121838754D01*
X121182580Y-121958963D01*
X120956586Y-122126481D01*
X120767615Y-122334869D01*
X120622930Y-122576119D01*
X120528091Y-122840960D01*
X118231909Y-122840960D01*
X118137070Y-122576119D01*
X117992385Y-122334869D01*
X117803414Y-122126481D01*
X117577420Y-121958963D01*
X117323087Y-121838754D01*
X117189039Y-121798096D01*
X116967000Y-121920085D01*
X116713000Y-121920085D01*
X116490961Y-121798096D01*
X116356913Y-121838754D01*
X116102580Y-121958963D01*
X115876586Y-122126481D01*
X115687615Y-122334869D01*
X115542930Y-122576119D01*
X115448091Y-122840960D01*
X87020000Y-122840960D01*
X87020000Y-117956353D01*
X107660000Y-117956353D01*
X107660000Y-118263647D01*
X107719950Y-118565035D01*
X107837546Y-118848937D01*
X108008269Y-119104442D01*
X108225558Y-119321731D01*
X108481063Y-119492454D01*
X108764965Y-119610050D01*
X109066353Y-119670000D01*
X109373647Y-119670000D01*
X109675035Y-119610050D01*
X109958937Y-119492454D01*
X110214442Y-119321731D01*
X110431731Y-119104442D01*
X110602454Y-118848937D01*
X110720050Y-118565035D01*
X110780000Y-118263647D01*
X110780000Y-117956353D01*
X110720050Y-117654965D01*
X110602454Y-117371063D01*
X110431731Y-117115558D01*
X110214442Y-116898269D01*
X109958937Y-116727546D01*
X109675035Y-116609950D01*
X109373647Y-116550000D01*
X109066353Y-116550000D01*
X108764965Y-116609950D01*
X108481063Y-116727546D01*
X108225558Y-116898269D01*
X108008269Y-117115558D01*
X107837546Y-117371063D01*
X107719950Y-117654965D01*
X107660000Y-117956353D01*
X87020000Y-117956353D01*
X87020000Y-109565000D01*
X100036928Y-109565000D01*
X100036928Y-111415000D01*
X100049188Y-111539482D01*
X100085498Y-111659180D01*
X100144463Y-111769494D01*
X100223815Y-111866185D01*
X100320506Y-111945537D01*
X100430820Y-112004502D01*
X100550518Y-112040812D01*
X100675000Y-112053072D01*
X102525000Y-112053072D01*
X102649482Y-112040812D01*
X102769180Y-112004502D01*
X102879494Y-111945537D01*
X102976185Y-111866185D01*
X103055537Y-111769494D01*
X103114502Y-111659180D01*
X103150812Y-111539482D01*
X103163072Y-111415000D01*
X103163072Y-110348665D01*
X115405000Y-110348665D01*
X115405000Y-110631335D01*
X115460147Y-110908574D01*
X115568320Y-111169727D01*
X115725363Y-111404759D01*
X115925241Y-111604637D01*
X116160273Y-111761680D01*
X116421426Y-111869853D01*
X116698665Y-111925000D01*
X116981335Y-111925000D01*
X117258574Y-111869853D01*
X117519727Y-111761680D01*
X117754759Y-111604637D01*
X117954637Y-111404759D01*
X118111680Y-111169727D01*
X118219853Y-110908574D01*
X118275000Y-110631335D01*
X118275000Y-110348665D01*
X120485000Y-110348665D01*
X120485000Y-110631335D01*
X120540147Y-110908574D01*
X120648320Y-111169727D01*
X120805363Y-111404759D01*
X121005241Y-111604637D01*
X121240273Y-111761680D01*
X121501426Y-111869853D01*
X121778665Y-111925000D01*
X122061335Y-111925000D01*
X122338574Y-111869853D01*
X122599727Y-111761680D01*
X122834759Y-111604637D01*
X123034637Y-111404759D01*
X123191680Y-111169727D01*
X123299853Y-110908574D01*
X123355000Y-110631335D01*
X123355000Y-110348665D01*
X123299853Y-110071426D01*
X123191680Y-109810273D01*
X123034637Y-109575241D01*
X122834759Y-109375363D01*
X122599727Y-109218320D01*
X122338574Y-109110147D01*
X122061335Y-109055000D01*
X121778665Y-109055000D01*
X121501426Y-109110147D01*
X121240273Y-109218320D01*
X121005241Y-109375363D01*
X120805363Y-109575241D01*
X120648320Y-109810273D01*
X120540147Y-110071426D01*
X120485000Y-110348665D01*
X118275000Y-110348665D01*
X118219853Y-110071426D01*
X118111680Y-109810273D01*
X117954637Y-109575241D01*
X117754759Y-109375363D01*
X117519727Y-109218320D01*
X117258574Y-109110147D01*
X116981335Y-109055000D01*
X116698665Y-109055000D01*
X116421426Y-109110147D01*
X116160273Y-109218320D01*
X115925241Y-109375363D01*
X115725363Y-109575241D01*
X115568320Y-109810273D01*
X115460147Y-110071426D01*
X115405000Y-110348665D01*
X103163072Y-110348665D01*
X103163072Y-109565000D01*
X103150812Y-109440518D01*
X103114502Y-109320820D01*
X103055537Y-109210506D01*
X102976185Y-109113815D01*
X102879494Y-109034463D01*
X102769180Y-108975498D01*
X102649482Y-108939188D01*
X102525000Y-108926928D01*
X100675000Y-108926928D01*
X100550518Y-108939188D01*
X100430820Y-108975498D01*
X100320506Y-109034463D01*
X100223815Y-109113815D01*
X100144463Y-109210506D01*
X100085498Y-109320820D01*
X100049188Y-109440518D01*
X100036928Y-109565000D01*
X87020000Y-109565000D01*
X87020000Y-106538665D01*
X112865000Y-106538665D01*
X112865000Y-106821335D01*
X112920147Y-107098574D01*
X113028320Y-107359727D01*
X113185363Y-107594759D01*
X113385241Y-107794637D01*
X113620273Y-107951680D01*
X113881426Y-108059853D01*
X114158665Y-108115000D01*
X114441335Y-108115000D01*
X114718574Y-108059853D01*
X114979727Y-107951680D01*
X115214759Y-107794637D01*
X115414637Y-107594759D01*
X115571680Y-107359727D01*
X115679853Y-107098574D01*
X115735000Y-106821335D01*
X115735000Y-106538665D01*
X115679853Y-106261426D01*
X115571680Y-106000273D01*
X115414637Y-105765241D01*
X115214759Y-105565363D01*
X114979727Y-105408320D01*
X114718574Y-105300147D01*
X114441335Y-105245000D01*
X114158665Y-105245000D01*
X113881426Y-105300147D01*
X113620273Y-105408320D01*
X113385241Y-105565363D01*
X113185363Y-105765241D01*
X113028320Y-106000273D01*
X112920147Y-106261426D01*
X112865000Y-106538665D01*
X87020000Y-106538665D01*
X87020000Y-97790000D01*
X89270554Y-97790000D01*
X89312239Y-98213238D01*
X89435693Y-98620211D01*
X89601928Y-98931214D01*
X89601928Y-98990000D01*
X89614188Y-99114482D01*
X89650498Y-99234180D01*
X89709463Y-99344494D01*
X89788815Y-99441185D01*
X89885506Y-99520537D01*
X89995820Y-99579502D01*
X90115518Y-99615812D01*
X90240000Y-99628072D01*
X90298786Y-99628072D01*
X90609789Y-99794307D01*
X91016762Y-99917761D01*
X91333939Y-99949000D01*
X98953942Y-99949000D01*
X99060000Y-99959446D01*
X99166058Y-99949000D01*
X99166061Y-99949000D01*
X99483238Y-99917761D01*
X99890211Y-99794307D01*
X100265280Y-99593828D01*
X100594030Y-99324030D01*
X100661644Y-99241642D01*
X105055216Y-94848072D01*
X105640000Y-94848072D01*
X105764482Y-94835812D01*
X105884180Y-94799502D01*
X105994494Y-94740537D01*
X106091185Y-94661185D01*
X106170537Y-94564494D01*
X106229502Y-94454180D01*
X106265812Y-94334482D01*
X106278072Y-94210000D01*
X106278072Y-93028540D01*
X106309446Y-92710000D01*
X106278072Y-92391460D01*
X106278072Y-91210000D01*
X106265812Y-91085518D01*
X106229502Y-90965820D01*
X106170537Y-90855506D01*
X106091185Y-90758815D01*
X105994494Y-90679463D01*
X105884180Y-90620498D01*
X105764482Y-90584188D01*
X105640000Y-90571928D01*
X104458540Y-90571928D01*
X104140000Y-90540554D01*
X103821460Y-90571928D01*
X102640000Y-90571928D01*
X102515518Y-90584188D01*
X102395820Y-90620498D01*
X102285506Y-90679463D01*
X102188815Y-90758815D01*
X102109463Y-90855506D01*
X102050498Y-90965820D01*
X102014188Y-91085518D01*
X102001928Y-91210000D01*
X102001928Y-91794784D01*
X98165714Y-95631000D01*
X91333939Y-95631000D01*
X91016762Y-95662239D01*
X90609789Y-95785693D01*
X90298786Y-95951928D01*
X90240000Y-95951928D01*
X90115518Y-95964188D01*
X89995820Y-96000498D01*
X89885506Y-96059463D01*
X89788815Y-96138815D01*
X89709463Y-96235506D01*
X89650498Y-96345820D01*
X89614188Y-96465518D01*
X89601928Y-96590000D01*
X89601928Y-96648786D01*
X89435693Y-96959789D01*
X89312239Y-97366762D01*
X89270554Y-97790000D01*
X87020000Y-97790000D01*
X87020000Y-92710000D01*
X89270554Y-92710000D01*
X89312239Y-93133238D01*
X89435693Y-93540211D01*
X89636172Y-93915280D01*
X89905970Y-94244030D01*
X90234720Y-94513828D01*
X90609789Y-94714307D01*
X91016762Y-94837761D01*
X91333939Y-94869000D01*
X95143942Y-94869000D01*
X95250000Y-94879446D01*
X95356058Y-94869000D01*
X95356061Y-94869000D01*
X95673238Y-94837761D01*
X96080211Y-94714307D01*
X96455280Y-94513828D01*
X96784030Y-94244030D01*
X96851644Y-94161642D01*
X100661640Y-90351647D01*
X100661644Y-90351642D01*
X105591653Y-85421635D01*
X105674030Y-85354030D01*
X105741635Y-85271653D01*
X105741640Y-85271648D01*
X105943828Y-85025280D01*
X106144306Y-84650212D01*
X106144307Y-84650211D01*
X106267761Y-84243238D01*
X106299000Y-83926061D01*
X106299000Y-83926058D01*
X106309446Y-83820000D01*
X106299000Y-83713942D01*
X106299000Y-83451653D01*
X141327952Y-83451653D01*
X141483962Y-83767214D01*
X141858745Y-83958020D01*
X142263551Y-84072044D01*
X142682824Y-84104902D01*
X143100451Y-84055334D01*
X143123802Y-84047738D01*
X169855000Y-84047738D01*
X169855000Y-84862262D01*
X170013906Y-85661135D01*
X170325611Y-86413657D01*
X170778136Y-87090909D01*
X171354091Y-87666864D01*
X172031343Y-88119389D01*
X172783865Y-88431094D01*
X173582738Y-88590000D01*
X174397262Y-88590000D01*
X175196135Y-88431094D01*
X175948657Y-88119389D01*
X176625909Y-87666864D01*
X177201864Y-87090909D01*
X177654389Y-86413657D01*
X177966094Y-85661135D01*
X178125000Y-84862262D01*
X178125000Y-84047738D01*
X177966094Y-83248865D01*
X177654389Y-82496343D01*
X177201864Y-81819091D01*
X176625909Y-81243136D01*
X175948657Y-80790611D01*
X175196135Y-80478906D01*
X174397262Y-80320000D01*
X173582738Y-80320000D01*
X172783865Y-80478906D01*
X172031343Y-80790611D01*
X171354091Y-81243136D01*
X170778136Y-81819091D01*
X170325611Y-82496343D01*
X170013906Y-83248865D01*
X169855000Y-84047738D01*
X143123802Y-84047738D01*
X143500383Y-83925243D01*
X143796038Y-83767214D01*
X143952048Y-83451653D01*
X142640000Y-82139605D01*
X141327952Y-83451653D01*
X106299000Y-83451653D01*
X106299000Y-82002824D01*
X140495098Y-82002824D01*
X140544666Y-82420451D01*
X140674757Y-82820383D01*
X140832786Y-83116038D01*
X141148347Y-83272048D01*
X142460395Y-81960000D01*
X142819605Y-81960000D01*
X144131653Y-83272048D01*
X144447214Y-83116038D01*
X144638020Y-82741255D01*
X144747465Y-82352702D01*
X151586903Y-82352702D01*
X151658486Y-82596671D01*
X151913996Y-82717571D01*
X152188184Y-82786300D01*
X152470512Y-82800217D01*
X152750130Y-82758787D01*
X153016292Y-82663603D01*
X153141514Y-82596671D01*
X153213097Y-82352702D01*
X152400000Y-81539605D01*
X151586903Y-82352702D01*
X144747465Y-82352702D01*
X144752044Y-82336449D01*
X144784902Y-81917176D01*
X144735334Y-81499549D01*
X144712878Y-81430512D01*
X150959783Y-81430512D01*
X151001213Y-81710130D01*
X151096397Y-81976292D01*
X151163329Y-82101514D01*
X151407298Y-82173097D01*
X152220395Y-81360000D01*
X152579605Y-81360000D01*
X153392702Y-82173097D01*
X153636671Y-82101514D01*
X153757571Y-81846004D01*
X153826300Y-81571816D01*
X153840217Y-81289488D01*
X153798787Y-81009870D01*
X153703603Y-80743708D01*
X153636671Y-80618486D01*
X153392702Y-80546903D01*
X152579605Y-81360000D01*
X152220395Y-81360000D01*
X151407298Y-80546903D01*
X151163329Y-80618486D01*
X151042429Y-80873996D01*
X150973700Y-81148184D01*
X150959783Y-81430512D01*
X144712878Y-81430512D01*
X144605243Y-81099617D01*
X144447214Y-80803962D01*
X144131653Y-80647952D01*
X142819605Y-81960000D01*
X142460395Y-81960000D01*
X141148347Y-80647952D01*
X140832786Y-80803962D01*
X140641980Y-81178745D01*
X140527956Y-81583551D01*
X140495098Y-82002824D01*
X106299000Y-82002824D01*
X106299000Y-81853940D01*
X106267761Y-81536762D01*
X106144307Y-81129789D01*
X105943828Y-80754720D01*
X105708808Y-80468347D01*
X141327952Y-80468347D01*
X142640000Y-81780395D01*
X143952048Y-80468347D01*
X143902091Y-80367298D01*
X151586903Y-80367298D01*
X152400000Y-81180395D01*
X153213097Y-80367298D01*
X153141514Y-80123329D01*
X152886004Y-80002429D01*
X152611816Y-79933700D01*
X152329488Y-79919783D01*
X152049870Y-79961213D01*
X151783708Y-80056397D01*
X151658486Y-80123329D01*
X151586903Y-80367298D01*
X143902091Y-80367298D01*
X143796038Y-80152786D01*
X143421255Y-79961980D01*
X143016449Y-79847956D01*
X142597176Y-79815098D01*
X142179549Y-79864666D01*
X141779617Y-79994757D01*
X141483962Y-80152786D01*
X141327952Y-80468347D01*
X105708808Y-80468347D01*
X105674030Y-80425970D01*
X105345280Y-80156172D01*
X104970211Y-79955693D01*
X104563238Y-79832239D01*
X104140000Y-79790554D01*
X103716763Y-79832239D01*
X103309790Y-79955693D01*
X102934721Y-80156172D01*
X102605971Y-80425970D01*
X102336173Y-80754720D01*
X102135694Y-81129789D01*
X102012239Y-81536762D01*
X101981000Y-81853939D01*
X101981000Y-82925712D01*
X97608358Y-87298356D01*
X97608353Y-87298360D01*
X94355714Y-90551000D01*
X91333939Y-90551000D01*
X91016762Y-90582239D01*
X90609789Y-90705693D01*
X90234720Y-90906172D01*
X89905970Y-91175970D01*
X89636172Y-91504720D01*
X89435693Y-91879789D01*
X89312239Y-92286762D01*
X89270554Y-92710000D01*
X87020000Y-92710000D01*
X87020000Y-84047738D01*
X87305000Y-84047738D01*
X87305000Y-84862262D01*
X87463906Y-85661135D01*
X87775611Y-86413657D01*
X88228136Y-87090909D01*
X88804091Y-87666864D01*
X89481343Y-88119389D01*
X90233865Y-88431094D01*
X91032738Y-88590000D01*
X91847262Y-88590000D01*
X92646135Y-88431094D01*
X93398657Y-88119389D01*
X94075909Y-87666864D01*
X94651864Y-87090909D01*
X95104389Y-86413657D01*
X95416094Y-85661135D01*
X95575000Y-84862262D01*
X95575000Y-84047738D01*
X95416094Y-83248865D01*
X95104389Y-82496343D01*
X94651864Y-81819091D01*
X94075909Y-81243136D01*
X93398657Y-80790611D01*
X92646135Y-80478906D01*
X91847262Y-80320000D01*
X91032738Y-80320000D01*
X90233865Y-80478906D01*
X89481343Y-80790611D01*
X88804091Y-81243136D01*
X88228136Y-81819091D01*
X87775611Y-82496343D01*
X87463906Y-83248865D01*
X87305000Y-84047738D01*
X87020000Y-84047738D01*
X87020000Y-78765000D01*
X178410000Y-78765000D01*
X178410001Y-137770000D01*
%TA.AperFunction,Conductor*%
D25*
G36*
X178410001Y-137770000D02*
G01*
X87020000Y-137770000D01*
X87020000Y-131672738D01*
X87305000Y-131672738D01*
X87305000Y-132487262D01*
X87463906Y-133286135D01*
X87775611Y-134038657D01*
X88228136Y-134715909D01*
X88804091Y-135291864D01*
X89481343Y-135744389D01*
X90233865Y-136056094D01*
X91032738Y-136215000D01*
X91847262Y-136215000D01*
X92646135Y-136056094D01*
X93398657Y-135744389D01*
X93655604Y-135572702D01*
X112216903Y-135572702D01*
X112288486Y-135816671D01*
X112543996Y-135937571D01*
X112818184Y-136006300D01*
X113100512Y-136020217D01*
X113380130Y-135978787D01*
X113646292Y-135883603D01*
X113771514Y-135816671D01*
X113843097Y-135572702D01*
X113030000Y-134759605D01*
X112216903Y-135572702D01*
X93655604Y-135572702D01*
X94075909Y-135291864D01*
X94651864Y-134715909D01*
X94695560Y-134650512D01*
X111589783Y-134650512D01*
X111631213Y-134930130D01*
X111726397Y-135196292D01*
X111793329Y-135321514D01*
X112037298Y-135393097D01*
X112850395Y-134580000D01*
X113209605Y-134580000D01*
X114022702Y-135393097D01*
X114266671Y-135321514D01*
X114387571Y-135066004D01*
X114456300Y-134791816D01*
X114470217Y-134509488D01*
X114465651Y-134478665D01*
X117945000Y-134478665D01*
X117945000Y-134761335D01*
X118000147Y-135038574D01*
X118108320Y-135299727D01*
X118265363Y-135534759D01*
X118465241Y-135734637D01*
X118700273Y-135891680D01*
X118961426Y-135999853D01*
X119238665Y-136055000D01*
X119521335Y-136055000D01*
X119798574Y-135999853D01*
X120059727Y-135891680D01*
X120294759Y-135734637D01*
X120494637Y-135534759D01*
X120650000Y-135302241D01*
X120805363Y-135534759D01*
X121005241Y-135734637D01*
X121240273Y-135891680D01*
X121501426Y-135999853D01*
X121778665Y-136055000D01*
X122061335Y-136055000D01*
X122338574Y-135999853D01*
X122599727Y-135891680D01*
X122834759Y-135734637D01*
X123034637Y-135534759D01*
X123190000Y-135302241D01*
X123345363Y-135534759D01*
X123545241Y-135734637D01*
X123780273Y-135891680D01*
X124041426Y-135999853D01*
X124318665Y-136055000D01*
X124601335Y-136055000D01*
X124878574Y-135999853D01*
X125139727Y-135891680D01*
X125374759Y-135734637D01*
X125574637Y-135534759D01*
X125730000Y-135302241D01*
X125885363Y-135534759D01*
X126085241Y-135734637D01*
X126320273Y-135891680D01*
X126581426Y-135999853D01*
X126858665Y-136055000D01*
X127141335Y-136055000D01*
X127418574Y-135999853D01*
X127679727Y-135891680D01*
X127914759Y-135734637D01*
X128114637Y-135534759D01*
X128271680Y-135299727D01*
X128276067Y-135289135D01*
X128387615Y-135475131D01*
X128576586Y-135683519D01*
X128802580Y-135851037D01*
X129056913Y-135971246D01*
X129190961Y-136011904D01*
X129413000Y-135889915D01*
X129413000Y-134747000D01*
X129393000Y-134747000D01*
X129393000Y-134493000D01*
X129413000Y-134493000D01*
X129413000Y-133350085D01*
X129667000Y-133350085D01*
X129667000Y-134493000D01*
X129687000Y-134493000D01*
X129687000Y-134747000D01*
X129667000Y-134747000D01*
X129667000Y-135889915D01*
X129889039Y-136011904D01*
X130023087Y-135971246D01*
X130277420Y-135851037D01*
X130503414Y-135683519D01*
X130692385Y-135475131D01*
X130803933Y-135289135D01*
X130808320Y-135299727D01*
X130965363Y-135534759D01*
X131165241Y-135734637D01*
X131400273Y-135891680D01*
X131661426Y-135999853D01*
X131938665Y-136055000D01*
X132221335Y-136055000D01*
X132498574Y-135999853D01*
X132759727Y-135891680D01*
X132994759Y-135734637D01*
X133194637Y-135534759D01*
X133350000Y-135302241D01*
X133505363Y-135534759D01*
X133705241Y-135734637D01*
X133940273Y-135891680D01*
X134201426Y-135999853D01*
X134478665Y-136055000D01*
X134761335Y-136055000D01*
X135038574Y-135999853D01*
X135299727Y-135891680D01*
X135534759Y-135734637D01*
X135734637Y-135534759D01*
X135891680Y-135299727D01*
X135999853Y-135038574D01*
X136055000Y-134761335D01*
X136055000Y-134478665D01*
X135999853Y-134201426D01*
X135891680Y-133940273D01*
X135734637Y-133705241D01*
X135534759Y-133505363D01*
X135299727Y-133348320D01*
X135038574Y-133240147D01*
X134761335Y-133185000D01*
X134478665Y-133185000D01*
X134201426Y-133240147D01*
X133940273Y-133348320D01*
X133705241Y-133505363D01*
X133505363Y-133705241D01*
X133350000Y-133937759D01*
X133194637Y-133705241D01*
X132994759Y-133505363D01*
X132759727Y-133348320D01*
X132498574Y-133240147D01*
X132221335Y-133185000D01*
X131938665Y-133185000D01*
X131661426Y-133240147D01*
X131400273Y-133348320D01*
X131165241Y-133505363D01*
X130965363Y-133705241D01*
X130808320Y-133940273D01*
X130803933Y-133950865D01*
X130692385Y-133764869D01*
X130503414Y-133556481D01*
X130277420Y-133388963D01*
X130023087Y-133268754D01*
X129889039Y-133228096D01*
X129667000Y-133350085D01*
X129413000Y-133350085D01*
X129190961Y-133228096D01*
X129056913Y-133268754D01*
X128802580Y-133388963D01*
X128576586Y-133556481D01*
X128387615Y-133764869D01*
X128276067Y-133950865D01*
X128271680Y-133940273D01*
X128114637Y-133705241D01*
X127914759Y-133505363D01*
X127679727Y-133348320D01*
X127418574Y-133240147D01*
X127141335Y-133185000D01*
X126858665Y-133185000D01*
X126581426Y-133240147D01*
X126320273Y-133348320D01*
X126085241Y-133505363D01*
X125885363Y-133705241D01*
X125730000Y-133937759D01*
X125574637Y-133705241D01*
X125374759Y-133505363D01*
X125139727Y-133348320D01*
X124878574Y-133240147D01*
X124601335Y-133185000D01*
X124318665Y-133185000D01*
X124041426Y-133240147D01*
X123780273Y-133348320D01*
X123545241Y-133505363D01*
X123345363Y-133705241D01*
X123190000Y-133937759D01*
X123034637Y-133705241D01*
X122834759Y-133505363D01*
X122599727Y-133348320D01*
X122338574Y-133240147D01*
X122061335Y-133185000D01*
X121778665Y-133185000D01*
X121501426Y-133240147D01*
X121240273Y-133348320D01*
X121005241Y-133505363D01*
X120805363Y-133705241D01*
X120650000Y-133937759D01*
X120494637Y-133705241D01*
X120294759Y-133505363D01*
X120059727Y-133348320D01*
X119798574Y-133240147D01*
X119521335Y-133185000D01*
X119238665Y-133185000D01*
X118961426Y-133240147D01*
X118700273Y-133348320D01*
X118465241Y-133505363D01*
X118265363Y-133705241D01*
X118108320Y-133940273D01*
X118000147Y-134201426D01*
X117945000Y-134478665D01*
X114465651Y-134478665D01*
X114428787Y-134229870D01*
X114333603Y-133963708D01*
X114266671Y-133838486D01*
X114022702Y-133766903D01*
X113209605Y-134580000D01*
X112850395Y-134580000D01*
X112037298Y-133766903D01*
X111793329Y-133838486D01*
X111672429Y-134093996D01*
X111603700Y-134368184D01*
X111589783Y-134650512D01*
X94695560Y-134650512D01*
X95104389Y-134038657D01*
X95416094Y-133286135D01*
X95575000Y-132487262D01*
X95575000Y-131672738D01*
X95496880Y-131280000D01*
X111591928Y-131280000D01*
X111591928Y-132880000D01*
X111604188Y-133004482D01*
X111640498Y-133124180D01*
X111699463Y-133234494D01*
X111778815Y-133331185D01*
X111875506Y-133410537D01*
X111985820Y-133469502D01*
X112105518Y-133505812D01*
X112230000Y-133518072D01*
X112237215Y-133518072D01*
X112216903Y-133587298D01*
X113030000Y-134400395D01*
X113843097Y-133587298D01*
X113822785Y-133518072D01*
X113830000Y-133518072D01*
X113954482Y-133505812D01*
X114074180Y-133469502D01*
X114184494Y-133410537D01*
X114281185Y-133331185D01*
X114360537Y-133234494D01*
X114419502Y-133124180D01*
X114455812Y-133004482D01*
X114468072Y-132880000D01*
X114468072Y-131672738D01*
X169855000Y-131672738D01*
X169855000Y-132487262D01*
X170013906Y-133286135D01*
X170325611Y-134038657D01*
X170778136Y-134715909D01*
X171354091Y-135291864D01*
X172031343Y-135744389D01*
X172783865Y-136056094D01*
X173582738Y-136215000D01*
X174397262Y-136215000D01*
X175196135Y-136056094D01*
X175948657Y-135744389D01*
X176625909Y-135291864D01*
X177201864Y-134715909D01*
X177654389Y-134038657D01*
X177966094Y-133286135D01*
X178125000Y-132487262D01*
X178125000Y-131672738D01*
X177966094Y-130873865D01*
X177654389Y-130121343D01*
X177201864Y-129444091D01*
X176625909Y-128868136D01*
X175948657Y-128415611D01*
X175196135Y-128103906D01*
X174397262Y-127945000D01*
X173582738Y-127945000D01*
X172783865Y-128103906D01*
X172031343Y-128415611D01*
X171354091Y-128868136D01*
X170778136Y-129444091D01*
X170325611Y-130121343D01*
X170013906Y-130873865D01*
X169855000Y-131672738D01*
X114468072Y-131672738D01*
X114468072Y-131280000D01*
X114455812Y-131155518D01*
X114419502Y-131035820D01*
X114360537Y-130925506D01*
X114281185Y-130828815D01*
X114184494Y-130749463D01*
X114074180Y-130690498D01*
X113954482Y-130654188D01*
X113830000Y-130641928D01*
X112230000Y-130641928D01*
X112105518Y-130654188D01*
X111985820Y-130690498D01*
X111875506Y-130749463D01*
X111778815Y-130828815D01*
X111699463Y-130925506D01*
X111640498Y-131035820D01*
X111604188Y-131155518D01*
X111591928Y-131280000D01*
X95496880Y-131280000D01*
X95416094Y-130873865D01*
X95104389Y-130121343D01*
X94651864Y-129444091D01*
X94075909Y-128868136D01*
X93398657Y-128415611D01*
X92646135Y-128103906D01*
X91847262Y-127945000D01*
X91032738Y-127945000D01*
X90233865Y-128103906D01*
X89481343Y-128415611D01*
X88804091Y-128868136D01*
X88228136Y-129444091D01*
X87775611Y-130121343D01*
X87463906Y-130873865D01*
X87305000Y-131672738D01*
X87020000Y-131672738D01*
X87020000Y-126811917D01*
X100697688Y-126811917D01*
X100784393Y-127068653D01*
X101061223Y-127202048D01*
X101358757Y-127278873D01*
X101665562Y-127296176D01*
X101969848Y-127253292D01*
X102259921Y-127151868D01*
X102415607Y-127068653D01*
X102486524Y-126858665D01*
X117945000Y-126858665D01*
X117945000Y-127141335D01*
X118000147Y-127418574D01*
X118108320Y-127679727D01*
X118265363Y-127914759D01*
X118465241Y-128114637D01*
X118700273Y-128271680D01*
X118961426Y-128379853D01*
X119238665Y-128435000D01*
X119521335Y-128435000D01*
X119798574Y-128379853D01*
X120059727Y-128271680D01*
X120294759Y-128114637D01*
X120494637Y-127914759D01*
X120650000Y-127682241D01*
X120805363Y-127914759D01*
X121005241Y-128114637D01*
X121240273Y-128271680D01*
X121501426Y-128379853D01*
X121778665Y-128435000D01*
X122061335Y-128435000D01*
X122338574Y-128379853D01*
X122599727Y-128271680D01*
X122834759Y-128114637D01*
X123034637Y-127914759D01*
X123190000Y-127682241D01*
X123345363Y-127914759D01*
X123545241Y-128114637D01*
X123780273Y-128271680D01*
X124041426Y-128379853D01*
X124318665Y-128435000D01*
X124601335Y-128435000D01*
X124878574Y-128379853D01*
X125139727Y-128271680D01*
X125374759Y-128114637D01*
X125574637Y-127914759D01*
X125730000Y-127682241D01*
X125885363Y-127914759D01*
X126085241Y-128114637D01*
X126320273Y-128271680D01*
X126581426Y-128379853D01*
X126858665Y-128435000D01*
X127141335Y-128435000D01*
X127418574Y-128379853D01*
X127635000Y-128290207D01*
X127635000Y-128363581D01*
X127662564Y-128643444D01*
X127771494Y-129002538D01*
X127948387Y-129333482D01*
X128186444Y-129623556D01*
X128476518Y-129861613D01*
X128807461Y-130038506D01*
X129166555Y-130147436D01*
X129540000Y-130184217D01*
X129913444Y-130147436D01*
X130272538Y-130038506D01*
X130603482Y-129861613D01*
X130893556Y-129623556D01*
X131131613Y-129333482D01*
X131308506Y-129002539D01*
X131417436Y-128643445D01*
X131445000Y-128363582D01*
X131445000Y-128290207D01*
X131661426Y-128379853D01*
X131938665Y-128435000D01*
X132221335Y-128435000D01*
X132498574Y-128379853D01*
X132759727Y-128271680D01*
X132994759Y-128114637D01*
X133193357Y-127916039D01*
X133194188Y-127924482D01*
X133230498Y-128044180D01*
X133289463Y-128154494D01*
X133368815Y-128251185D01*
X133465506Y-128330537D01*
X133575820Y-128389502D01*
X133695518Y-128425812D01*
X133820000Y-128438072D01*
X135420000Y-128438072D01*
X135544482Y-128425812D01*
X135664180Y-128389502D01*
X135774494Y-128330537D01*
X135871185Y-128251185D01*
X135950537Y-128154494D01*
X136009502Y-128044180D01*
X136045812Y-127924482D01*
X136058072Y-127800000D01*
X136058072Y-126200000D01*
X136045812Y-126075518D01*
X136009502Y-125955820D01*
X135950537Y-125845506D01*
X135871185Y-125748815D01*
X135774494Y-125669463D01*
X135664180Y-125610498D01*
X135544482Y-125574188D01*
X135420000Y-125561928D01*
X133820000Y-125561928D01*
X133695518Y-125574188D01*
X133575820Y-125610498D01*
X133465506Y-125669463D01*
X133368815Y-125748815D01*
X133289463Y-125845506D01*
X133230498Y-125955820D01*
X133194188Y-126075518D01*
X133193357Y-126083961D01*
X132994759Y-125885363D01*
X132759727Y-125728320D01*
X132498574Y-125620147D01*
X132221335Y-125565000D01*
X131938665Y-125565000D01*
X131661426Y-125620147D01*
X131445000Y-125709793D01*
X131445000Y-124480207D01*
X131661426Y-124569853D01*
X131938665Y-124625000D01*
X132221335Y-124625000D01*
X132498574Y-124569853D01*
X132759727Y-124461680D01*
X132994759Y-124304637D01*
X133194637Y-124104759D01*
X133351680Y-123869727D01*
X133459853Y-123608574D01*
X133515000Y-123331335D01*
X133515000Y-123048665D01*
X133459853Y-122771426D01*
X133351680Y-122510273D01*
X133194637Y-122275241D01*
X132994759Y-122075363D01*
X132759727Y-121918320D01*
X132498574Y-121810147D01*
X132221335Y-121755000D01*
X131938665Y-121755000D01*
X131661426Y-121810147D01*
X131445000Y-121899793D01*
X131445000Y-111769445D01*
X131596913Y-111841246D01*
X131730961Y-111881904D01*
X131953000Y-111759915D01*
X131953000Y-110617000D01*
X132207000Y-110617000D01*
X132207000Y-111759915D01*
X132429039Y-111881904D01*
X132563087Y-111841246D01*
X132817420Y-111721037D01*
X133043414Y-111553519D01*
X133232385Y-111345131D01*
X133377070Y-111103881D01*
X133471909Y-110839040D01*
X133350624Y-110617000D01*
X132207000Y-110617000D01*
X131953000Y-110617000D01*
X131933000Y-110617000D01*
X131933000Y-110363000D01*
X131953000Y-110363000D01*
X131953000Y-110343000D01*
X132207000Y-110343000D01*
X132207000Y-110363000D01*
X133350624Y-110363000D01*
X133471909Y-110140960D01*
X133377070Y-109876119D01*
X133232385Y-109634869D01*
X133043414Y-109426481D01*
X132817420Y-109258963D01*
X132563087Y-109138754D01*
X132429039Y-109098096D01*
X132266899Y-109187176D01*
X133269076Y-108185000D01*
X140399869Y-108185000D01*
X140735000Y-108520132D01*
X140735000Y-108913581D01*
X140735001Y-108913591D01*
X140735001Y-109354184D01*
X140678505Y-109297688D01*
X140427095Y-109129701D01*
X140147743Y-109013989D01*
X139851184Y-108955000D01*
X139548816Y-108955000D01*
X139252257Y-109013989D01*
X138972905Y-109129701D01*
X138721495Y-109297688D01*
X138507688Y-109511495D01*
X138339701Y-109762905D01*
X138223989Y-110042257D01*
X138165000Y-110338816D01*
X138165000Y-110641184D01*
X138223989Y-110937743D01*
X138339701Y-111217095D01*
X138507688Y-111468505D01*
X138721495Y-111682312D01*
X138837763Y-111760000D01*
X138721495Y-111837688D01*
X138507688Y-112051495D01*
X138339701Y-112302905D01*
X138223989Y-112582257D01*
X138165000Y-112878816D01*
X138165000Y-113181184D01*
X138223989Y-113477743D01*
X138339701Y-113757095D01*
X138507688Y-114008505D01*
X138721495Y-114222312D01*
X138837763Y-114300000D01*
X138721495Y-114377688D01*
X138507688Y-114591495D01*
X138339701Y-114842905D01*
X138223989Y-115122257D01*
X138165000Y-115418816D01*
X138165000Y-115721184D01*
X138223989Y-116017743D01*
X138339701Y-116297095D01*
X138507688Y-116548505D01*
X138721495Y-116762312D01*
X138837763Y-116840000D01*
X138721495Y-116917688D01*
X138507688Y-117131495D01*
X138339701Y-117382905D01*
X138223989Y-117662257D01*
X138165000Y-117958816D01*
X138165000Y-118261184D01*
X138223989Y-118557743D01*
X138339701Y-118837095D01*
X138507688Y-119088505D01*
X138721495Y-119302312D01*
X138837763Y-119380000D01*
X138721495Y-119457688D01*
X138507688Y-119671495D01*
X138339701Y-119922905D01*
X138223989Y-120202257D01*
X138165000Y-120498816D01*
X138165000Y-120801184D01*
X138223989Y-121097743D01*
X138339701Y-121377095D01*
X138507688Y-121628505D01*
X138721495Y-121842312D01*
X138837763Y-121920000D01*
X138721495Y-121997688D01*
X138507688Y-122211495D01*
X138339701Y-122462905D01*
X138223989Y-122742257D01*
X138165000Y-123038816D01*
X138165000Y-123341184D01*
X138223989Y-123637743D01*
X138339701Y-123917095D01*
X138507688Y-124168505D01*
X138721495Y-124382312D01*
X138837763Y-124460000D01*
X138721495Y-124537688D01*
X138507688Y-124751495D01*
X138339701Y-125002905D01*
X138223989Y-125282257D01*
X138165000Y-125578816D01*
X138165000Y-125881184D01*
X138223989Y-126177743D01*
X138339701Y-126457095D01*
X138507688Y-126708505D01*
X138721495Y-126922312D01*
X138837763Y-127000000D01*
X138721495Y-127077688D01*
X138507688Y-127291495D01*
X138339701Y-127542905D01*
X138223989Y-127822257D01*
X138165000Y-128118816D01*
X138165000Y-128421184D01*
X138223989Y-128717743D01*
X138339701Y-128997095D01*
X138507688Y-129248505D01*
X138721495Y-129462312D01*
X138972905Y-129630299D01*
X139252257Y-129746011D01*
X139548816Y-129805000D01*
X139851184Y-129805000D01*
X140147743Y-129746011D01*
X140427095Y-129630299D01*
X140678505Y-129462312D01*
X140892312Y-129248505D01*
X141060299Y-128997095D01*
X141176011Y-128717743D01*
X141235000Y-128421184D01*
X141235000Y-128118816D01*
X141176011Y-127822257D01*
X141060299Y-127542905D01*
X140892312Y-127291495D01*
X140678505Y-127077688D01*
X140562237Y-127000000D01*
X140678505Y-126922312D01*
X140892312Y-126708505D01*
X141060299Y-126457095D01*
X141176011Y-126177743D01*
X141235000Y-125881184D01*
X141235000Y-125578816D01*
X141176011Y-125282257D01*
X141060299Y-125002905D01*
X140892312Y-124751495D01*
X140678505Y-124537688D01*
X140562237Y-124460000D01*
X140678505Y-124382312D01*
X140892312Y-124168505D01*
X141060299Y-123917095D01*
X141176011Y-123637743D01*
X141191822Y-123558258D01*
X141286444Y-123673556D01*
X141359145Y-123733220D01*
X147176789Y-129550866D01*
X147236444Y-129623556D01*
X147309134Y-129683211D01*
X147526517Y-129861613D01*
X147857460Y-130038506D01*
X147941037Y-130063859D01*
X148216555Y-130147436D01*
X148496418Y-130175000D01*
X148496420Y-130175000D01*
X148590000Y-130184217D01*
X148683580Y-130175000D01*
X162653582Y-130175000D01*
X162933445Y-130147436D01*
X163292539Y-130038506D01*
X163623482Y-129861613D01*
X163913556Y-129623556D01*
X164151613Y-129333482D01*
X164328506Y-129002539D01*
X164437436Y-128643445D01*
X164474217Y-128270000D01*
X164446504Y-127988627D01*
X166840133Y-125595000D01*
X172541447Y-125595000D01*
X172564662Y-125629744D01*
X172820256Y-125885338D01*
X173120801Y-126086156D01*
X173454750Y-126224482D01*
X173809268Y-126295000D01*
X174170732Y-126295000D01*
X174525250Y-126224482D01*
X174859199Y-126086156D01*
X175159744Y-125885338D01*
X175415338Y-125629744D01*
X175616156Y-125329199D01*
X175754482Y-124995250D01*
X175825000Y-124640732D01*
X175825000Y-124279268D01*
X175754482Y-123924750D01*
X175616156Y-123590801D01*
X175415338Y-123290256D01*
X175159744Y-123034662D01*
X174859199Y-122833844D01*
X174525250Y-122695518D01*
X174170732Y-122625000D01*
X173809268Y-122625000D01*
X173454750Y-122695518D01*
X173120801Y-122833844D01*
X172820256Y-123034662D01*
X172564662Y-123290256D01*
X172541447Y-123325000D01*
X166425752Y-123325000D01*
X166370000Y-123319509D01*
X166147501Y-123341423D01*
X165933553Y-123406324D01*
X165736377Y-123511716D01*
X165606856Y-123618011D01*
X165606854Y-123618013D01*
X165563551Y-123653551D01*
X165528013Y-123696854D01*
X164007039Y-125217829D01*
X163958222Y-125078801D01*
X163878261Y-124929208D01*
X163624080Y-124845525D01*
X162739605Y-125730000D01*
X162753748Y-125744143D01*
X162574143Y-125923748D01*
X162560000Y-125909605D01*
X162545858Y-125923748D01*
X162366253Y-125744143D01*
X162380395Y-125730000D01*
X161495920Y-124845525D01*
X161241739Y-124929208D01*
X161110842Y-125201775D01*
X161035635Y-125494642D01*
X161019009Y-125796553D01*
X161061603Y-126095907D01*
X161156090Y-126365000D01*
X149379077Y-126365000D01*
X144545000Y-121530925D01*
X144545000Y-110338816D01*
X161025000Y-110338816D01*
X161025000Y-110641184D01*
X161083989Y-110937743D01*
X161199701Y-111217095D01*
X161367688Y-111468505D01*
X161581495Y-111682312D01*
X161697763Y-111760000D01*
X161581495Y-111837688D01*
X161367688Y-112051495D01*
X161199701Y-112302905D01*
X161083989Y-112582257D01*
X161025000Y-112878816D01*
X161025000Y-113181184D01*
X161083989Y-113477743D01*
X161199701Y-113757095D01*
X161367688Y-114008505D01*
X161581495Y-114222312D01*
X161697763Y-114300000D01*
X161581495Y-114377688D01*
X161367688Y-114591495D01*
X161199701Y-114842905D01*
X161083989Y-115122257D01*
X161025000Y-115418816D01*
X161025000Y-115721184D01*
X161083989Y-116017743D01*
X161199701Y-116297095D01*
X161367688Y-116548505D01*
X161581495Y-116762312D01*
X161697763Y-116840000D01*
X161581495Y-116917688D01*
X161367688Y-117131495D01*
X161199701Y-117382905D01*
X161083989Y-117662257D01*
X161025000Y-117958816D01*
X161025000Y-118261184D01*
X161083989Y-118557743D01*
X161199701Y-118837095D01*
X161367688Y-119088505D01*
X161581495Y-119302312D01*
X161697763Y-119380000D01*
X161581495Y-119457688D01*
X161367688Y-119671495D01*
X161199701Y-119922905D01*
X161083989Y-120202257D01*
X161025000Y-120498816D01*
X161025000Y-120801184D01*
X161083989Y-121097743D01*
X161199701Y-121377095D01*
X161367688Y-121628505D01*
X161581495Y-121842312D01*
X161697763Y-121920000D01*
X161581495Y-121997688D01*
X161367688Y-122211495D01*
X161199701Y-122462905D01*
X161083989Y-122742257D01*
X161025000Y-123038816D01*
X161025000Y-123341184D01*
X161083989Y-123637743D01*
X161199701Y-123917095D01*
X161367688Y-124168505D01*
X161581495Y-124382312D01*
X161735105Y-124484951D01*
X161675525Y-124665920D01*
X162560000Y-125550395D01*
X163444475Y-124665920D01*
X163384895Y-124484951D01*
X163538505Y-124382312D01*
X163752312Y-124168505D01*
X163920299Y-123917095D01*
X164036011Y-123637743D01*
X164095000Y-123341184D01*
X164095000Y-123038816D01*
X164036011Y-122742257D01*
X163920299Y-122462905D01*
X163752312Y-122211495D01*
X163538505Y-121997688D01*
X163422237Y-121920000D01*
X163538505Y-121842312D01*
X163752312Y-121628505D01*
X163920299Y-121377095D01*
X164036011Y-121097743D01*
X164095000Y-120801184D01*
X164095000Y-120498816D01*
X164036011Y-120202257D01*
X163920299Y-119922905D01*
X163752312Y-119671495D01*
X163538505Y-119457688D01*
X163422237Y-119380000D01*
X163538505Y-119302312D01*
X163641549Y-119199268D01*
X172155000Y-119199268D01*
X172155000Y-119560732D01*
X172225518Y-119915250D01*
X172363844Y-120249199D01*
X172564662Y-120549744D01*
X172820256Y-120805338D01*
X173120801Y-121006156D01*
X173454750Y-121144482D01*
X173809268Y-121215000D01*
X174170732Y-121215000D01*
X174525250Y-121144482D01*
X174859199Y-121006156D01*
X175159744Y-120805338D01*
X175415338Y-120549744D01*
X175616156Y-120249199D01*
X175754482Y-119915250D01*
X175825000Y-119560732D01*
X175825000Y-119199268D01*
X175754482Y-118844750D01*
X175616156Y-118510801D01*
X175415338Y-118210256D01*
X175159744Y-117954662D01*
X174859199Y-117753844D01*
X174525250Y-117615518D01*
X174170732Y-117545000D01*
X173809268Y-117545000D01*
X173454750Y-117615518D01*
X173120801Y-117753844D01*
X172820256Y-117954662D01*
X172564662Y-118210256D01*
X172363844Y-118510801D01*
X172225518Y-118844750D01*
X172155000Y-119199268D01*
X163641549Y-119199268D01*
X163752312Y-119088505D01*
X163920299Y-118837095D01*
X164036011Y-118557743D01*
X164095000Y-118261184D01*
X164095000Y-117958816D01*
X164036011Y-117662257D01*
X163920299Y-117382905D01*
X163752312Y-117131495D01*
X163538505Y-116917688D01*
X163422237Y-116840000D01*
X163538505Y-116762312D01*
X163752312Y-116548505D01*
X163920299Y-116297095D01*
X164036011Y-116017743D01*
X164095000Y-115721184D01*
X164095000Y-115500000D01*
X172151928Y-115500000D01*
X172164188Y-115624482D01*
X172200498Y-115744180D01*
X172259463Y-115854494D01*
X172338815Y-115951185D01*
X172435506Y-116030537D01*
X172545820Y-116089502D01*
X172665518Y-116125812D01*
X172790000Y-116138072D01*
X173704250Y-116135000D01*
X173863000Y-115976250D01*
X173863000Y-114427000D01*
X174117000Y-114427000D01*
X174117000Y-115976250D01*
X174275750Y-116135000D01*
X175190000Y-116138072D01*
X175314482Y-116125812D01*
X175434180Y-116089502D01*
X175544494Y-116030537D01*
X175641185Y-115951185D01*
X175720537Y-115854494D01*
X175779502Y-115744180D01*
X175815812Y-115624482D01*
X175828072Y-115500000D01*
X175825000Y-114585750D01*
X175666250Y-114427000D01*
X174117000Y-114427000D01*
X173863000Y-114427000D01*
X172313750Y-114427000D01*
X172155000Y-114585750D01*
X172151928Y-115500000D01*
X164095000Y-115500000D01*
X164095000Y-115418816D01*
X164036011Y-115122257D01*
X163920299Y-114842905D01*
X163752312Y-114591495D01*
X163538505Y-114377688D01*
X163422237Y-114300000D01*
X163538505Y-114222312D01*
X163752312Y-114008505D01*
X163920299Y-113757095D01*
X164036011Y-113477743D01*
X164095000Y-113181184D01*
X164095000Y-113100000D01*
X172151928Y-113100000D01*
X172155000Y-114014250D01*
X172313750Y-114173000D01*
X173863000Y-114173000D01*
X173863000Y-112623750D01*
X174117000Y-112623750D01*
X174117000Y-114173000D01*
X175666250Y-114173000D01*
X175825000Y-114014250D01*
X175828072Y-113100000D01*
X175815812Y-112975518D01*
X175779502Y-112855820D01*
X175720537Y-112745506D01*
X175641185Y-112648815D01*
X175544494Y-112569463D01*
X175434180Y-112510498D01*
X175314482Y-112474188D01*
X175190000Y-112461928D01*
X174275750Y-112465000D01*
X174117000Y-112623750D01*
X173863000Y-112623750D01*
X173704250Y-112465000D01*
X172790000Y-112461928D01*
X172665518Y-112474188D01*
X172545820Y-112510498D01*
X172435506Y-112569463D01*
X172338815Y-112648815D01*
X172259463Y-112745506D01*
X172200498Y-112855820D01*
X172164188Y-112975518D01*
X172151928Y-113100000D01*
X164095000Y-113100000D01*
X164095000Y-112878816D01*
X164036011Y-112582257D01*
X163920299Y-112302905D01*
X163752312Y-112051495D01*
X163538505Y-111837688D01*
X163422237Y-111760000D01*
X163538505Y-111682312D01*
X163752312Y-111468505D01*
X163920299Y-111217095D01*
X164036011Y-110937743D01*
X164095000Y-110641184D01*
X164095000Y-110338816D01*
X164036011Y-110042257D01*
X163920299Y-109762905D01*
X163752312Y-109511495D01*
X163538505Y-109297688D01*
X163287095Y-109129701D01*
X163007743Y-109013989D01*
X162711184Y-108955000D01*
X162408816Y-108955000D01*
X162112257Y-109013989D01*
X161832905Y-109129701D01*
X161581495Y-109297688D01*
X161367688Y-109511495D01*
X161199701Y-109762905D01*
X161083989Y-110042257D01*
X161025000Y-110338816D01*
X144545000Y-110338816D01*
X144545000Y-106373581D01*
X144554217Y-106280000D01*
X144545000Y-106186418D01*
X144545000Y-98918665D01*
X147155000Y-98918665D01*
X147155000Y-99201335D01*
X147210147Y-99478574D01*
X147318320Y-99739727D01*
X147475363Y-99974759D01*
X147675241Y-100174637D01*
X147910273Y-100331680D01*
X148171426Y-100439853D01*
X148448665Y-100495000D01*
X148731335Y-100495000D01*
X149008574Y-100439853D01*
X149269727Y-100331680D01*
X149504759Y-100174637D01*
X149704637Y-99974759D01*
X149861680Y-99739727D01*
X149969853Y-99478574D01*
X150025000Y-99201335D01*
X150025000Y-98918665D01*
X159855000Y-98918665D01*
X159855000Y-99201335D01*
X159910147Y-99478574D01*
X160018320Y-99739727D01*
X160175363Y-99974759D01*
X160375241Y-100174637D01*
X160610273Y-100331680D01*
X160871426Y-100439853D01*
X161148665Y-100495000D01*
X161431335Y-100495000D01*
X161708574Y-100439853D01*
X161969727Y-100331680D01*
X162204759Y-100174637D01*
X162404637Y-99974759D01*
X162561680Y-99739727D01*
X162669853Y-99478574D01*
X162725000Y-99201335D01*
X162725000Y-98918665D01*
X162669853Y-98641426D01*
X162561680Y-98380273D01*
X162404637Y-98145241D01*
X162204759Y-97945363D01*
X161969727Y-97788320D01*
X161708574Y-97680147D01*
X161431335Y-97625000D01*
X161148665Y-97625000D01*
X160871426Y-97680147D01*
X160610273Y-97788320D01*
X160375241Y-97945363D01*
X160175363Y-98145241D01*
X160018320Y-98380273D01*
X159910147Y-98641426D01*
X159855000Y-98918665D01*
X150025000Y-98918665D01*
X149969853Y-98641426D01*
X149861680Y-98380273D01*
X149704637Y-98145241D01*
X149504759Y-97945363D01*
X149269727Y-97788320D01*
X149008574Y-97680147D01*
X148731335Y-97625000D01*
X148448665Y-97625000D01*
X148171426Y-97680147D01*
X147910273Y-97788320D01*
X147675241Y-97945363D01*
X147475363Y-98145241D01*
X147318320Y-98380273D01*
X147210147Y-98641426D01*
X147155000Y-98918665D01*
X144545000Y-98918665D01*
X144545000Y-96339268D01*
X172155000Y-96339268D01*
X172155000Y-96700732D01*
X172225518Y-97055250D01*
X172363844Y-97389199D01*
X172564662Y-97689744D01*
X172820256Y-97945338D01*
X173120801Y-98146156D01*
X173454750Y-98284482D01*
X173809268Y-98355000D01*
X174170732Y-98355000D01*
X174525250Y-98284482D01*
X174859199Y-98146156D01*
X175159744Y-97945338D01*
X175415338Y-97689744D01*
X175616156Y-97389199D01*
X175754482Y-97055250D01*
X175825000Y-96700732D01*
X175825000Y-96339268D01*
X175754482Y-95984750D01*
X175616156Y-95650801D01*
X175415338Y-95350256D01*
X175159744Y-95094662D01*
X174859199Y-94893844D01*
X174525250Y-94755518D01*
X174170732Y-94685000D01*
X173809268Y-94685000D01*
X173454750Y-94755518D01*
X173120801Y-94893844D01*
X172820256Y-95094662D01*
X172564662Y-95350256D01*
X172363844Y-95650801D01*
X172225518Y-95984750D01*
X172155000Y-96339268D01*
X144545000Y-96339268D01*
X144545000Y-93838665D01*
X156045000Y-93838665D01*
X156045000Y-94121335D01*
X156100147Y-94398574D01*
X156208320Y-94659727D01*
X156365363Y-94894759D01*
X156565241Y-95094637D01*
X156800273Y-95251680D01*
X157061426Y-95359853D01*
X157338665Y-95415000D01*
X157621335Y-95415000D01*
X157898574Y-95359853D01*
X158159727Y-95251680D01*
X158394759Y-95094637D01*
X158594637Y-94894759D01*
X158751680Y-94659727D01*
X158859853Y-94398574D01*
X158915000Y-94121335D01*
X158915000Y-93838665D01*
X158859853Y-93561426D01*
X158751680Y-93300273D01*
X158594637Y-93065241D01*
X158394759Y-92865363D01*
X158159727Y-92708320D01*
X158149135Y-92703933D01*
X158335131Y-92592385D01*
X158543519Y-92403414D01*
X158711037Y-92177420D01*
X158831246Y-91923087D01*
X158871904Y-91789039D01*
X158749915Y-91567000D01*
X157607000Y-91567000D01*
X157607000Y-91587000D01*
X157353000Y-91587000D01*
X157353000Y-91567000D01*
X156210085Y-91567000D01*
X156088096Y-91789039D01*
X156128754Y-91923087D01*
X156248963Y-92177420D01*
X156416481Y-92403414D01*
X156624869Y-92592385D01*
X156810865Y-92703933D01*
X156800273Y-92708320D01*
X156565241Y-92865363D01*
X156365363Y-93065241D01*
X156208320Y-93300273D01*
X156100147Y-93561426D01*
X156045000Y-93838665D01*
X144545000Y-93838665D01*
X144545000Y-91865000D01*
X148706420Y-91865000D01*
X148800000Y-91874217D01*
X148893580Y-91865000D01*
X148893582Y-91865000D01*
X149173445Y-91837436D01*
X149532539Y-91728506D01*
X149863482Y-91551613D01*
X150153556Y-91313556D01*
X150213220Y-91240855D01*
X153354076Y-88100000D01*
X156041928Y-88100000D01*
X156041928Y-89700000D01*
X156054188Y-89824482D01*
X156090498Y-89944180D01*
X156149463Y-90054494D01*
X156228815Y-90151185D01*
X156325506Y-90230537D01*
X156435820Y-90289502D01*
X156555518Y-90325812D01*
X156580080Y-90328231D01*
X156416481Y-90476586D01*
X156248963Y-90702580D01*
X156128754Y-90956913D01*
X156088096Y-91090961D01*
X156210085Y-91313000D01*
X157353000Y-91313000D01*
X157353000Y-91293000D01*
X157607000Y-91293000D01*
X157607000Y-91313000D01*
X158749915Y-91313000D01*
X158871904Y-91090961D01*
X158831246Y-90956913D01*
X158711037Y-90702580D01*
X158543519Y-90476586D01*
X158379920Y-90328231D01*
X158404482Y-90325812D01*
X158524180Y-90289502D01*
X158634494Y-90230537D01*
X158731185Y-90151185D01*
X158810537Y-90054494D01*
X158869502Y-89944180D01*
X158905812Y-89824482D01*
X158918072Y-89700000D01*
X158918072Y-88758665D01*
X163665000Y-88758665D01*
X163665000Y-89041335D01*
X163720147Y-89318574D01*
X163828320Y-89579727D01*
X163985363Y-89814759D01*
X164185241Y-90014637D01*
X164417759Y-90170000D01*
X164185241Y-90325363D01*
X163985363Y-90525241D01*
X163828320Y-90760273D01*
X163720147Y-91021426D01*
X163665000Y-91298665D01*
X163665000Y-91581335D01*
X163720147Y-91858574D01*
X163828320Y-92119727D01*
X163985363Y-92354759D01*
X164185241Y-92554637D01*
X164417759Y-92710000D01*
X164185241Y-92865363D01*
X163985363Y-93065241D01*
X163828320Y-93300273D01*
X163720147Y-93561426D01*
X163665000Y-93838665D01*
X163665000Y-94121335D01*
X163720147Y-94398574D01*
X163828320Y-94659727D01*
X163985363Y-94894759D01*
X164185241Y-95094637D01*
X164420273Y-95251680D01*
X164681426Y-95359853D01*
X164958665Y-95415000D01*
X165241335Y-95415000D01*
X165518574Y-95359853D01*
X165779727Y-95251680D01*
X166014759Y-95094637D01*
X166214637Y-94894759D01*
X166371680Y-94659727D01*
X166479853Y-94398574D01*
X166535000Y-94121335D01*
X166535000Y-93838665D01*
X166479853Y-93561426D01*
X166371680Y-93300273D01*
X166214637Y-93065241D01*
X166014759Y-92865363D01*
X165782241Y-92710000D01*
X166014759Y-92554637D01*
X166214637Y-92354759D01*
X166371680Y-92119727D01*
X166479853Y-91858574D01*
X166535000Y-91581335D01*
X166535000Y-91298665D01*
X166479853Y-91021426D01*
X166371680Y-90760273D01*
X166214637Y-90525241D01*
X166014759Y-90325363D01*
X165887004Y-90240000D01*
X172151928Y-90240000D01*
X172151928Y-92640000D01*
X172164188Y-92764482D01*
X172200498Y-92884180D01*
X172259463Y-92994494D01*
X172338815Y-93091185D01*
X172435506Y-93170537D01*
X172545820Y-93229502D01*
X172665518Y-93265812D01*
X172790000Y-93278072D01*
X175190000Y-93278072D01*
X175314482Y-93265812D01*
X175434180Y-93229502D01*
X175544494Y-93170537D01*
X175641185Y-93091185D01*
X175720537Y-92994494D01*
X175779502Y-92884180D01*
X175815812Y-92764482D01*
X175828072Y-92640000D01*
X175828072Y-90240000D01*
X175815812Y-90115518D01*
X175779502Y-89995820D01*
X175720537Y-89885506D01*
X175641185Y-89788815D01*
X175544494Y-89709463D01*
X175434180Y-89650498D01*
X175314482Y-89614188D01*
X175190000Y-89601928D01*
X172790000Y-89601928D01*
X172665518Y-89614188D01*
X172545820Y-89650498D01*
X172435506Y-89709463D01*
X172338815Y-89788815D01*
X172259463Y-89885506D01*
X172200498Y-89995820D01*
X172164188Y-90115518D01*
X172151928Y-90240000D01*
X165887004Y-90240000D01*
X165782241Y-90170000D01*
X166014759Y-90014637D01*
X166214637Y-89814759D01*
X166371680Y-89579727D01*
X166479853Y-89318574D01*
X166535000Y-89041335D01*
X166535000Y-88758665D01*
X166479853Y-88481426D01*
X166371680Y-88220273D01*
X166214637Y-87985241D01*
X166014759Y-87785363D01*
X165779727Y-87628320D01*
X165518574Y-87520147D01*
X165241335Y-87465000D01*
X164958665Y-87465000D01*
X164681426Y-87520147D01*
X164420273Y-87628320D01*
X164185241Y-87785363D01*
X163985363Y-87985241D01*
X163828320Y-88220273D01*
X163720147Y-88481426D01*
X163665000Y-88758665D01*
X158918072Y-88758665D01*
X158918072Y-88100000D01*
X158905812Y-87975518D01*
X158869502Y-87855820D01*
X158810537Y-87745506D01*
X158731185Y-87648815D01*
X158634494Y-87569463D01*
X158524180Y-87510498D01*
X158404482Y-87474188D01*
X158280000Y-87461928D01*
X156680000Y-87461928D01*
X156555518Y-87474188D01*
X156435820Y-87510498D01*
X156325506Y-87569463D01*
X156228815Y-87648815D01*
X156149463Y-87745506D01*
X156090498Y-87855820D01*
X156054188Y-87975518D01*
X156041928Y-88100000D01*
X153354076Y-88100000D01*
X153813211Y-87640866D01*
X153991613Y-87423483D01*
X154168506Y-87092540D01*
X154277435Y-86733445D01*
X154314217Y-86360000D01*
X154277435Y-85986555D01*
X154168506Y-85627461D01*
X153991613Y-85296518D01*
X153753555Y-85006445D01*
X153463482Y-84768387D01*
X153132539Y-84591494D01*
X152773445Y-84482565D01*
X152400000Y-84445783D01*
X152026555Y-84482565D01*
X151667460Y-84591494D01*
X151336517Y-84768387D01*
X151119134Y-84946789D01*
X148010925Y-88055000D01*
X143619946Y-88055000D01*
X143262756Y-87907047D01*
X142850279Y-87825000D01*
X142429721Y-87825000D01*
X142017244Y-87907047D01*
X141628698Y-88067988D01*
X141279017Y-88301637D01*
X140981637Y-88599017D01*
X140747988Y-88948698D01*
X140587047Y-89337244D01*
X140505000Y-89749721D01*
X140505000Y-90170279D01*
X140587047Y-90582756D01*
X140735001Y-90939948D01*
X140735000Y-96213581D01*
X140735001Y-96213591D01*
X140735000Y-103833581D01*
X140735001Y-103833590D01*
X140735001Y-104039868D01*
X140399869Y-104375000D01*
X132573580Y-104375000D01*
X132480000Y-104365783D01*
X132386420Y-104375000D01*
X132386418Y-104375000D01*
X132106555Y-104402564D01*
X131747461Y-104511494D01*
X131593410Y-104593836D01*
X131416517Y-104688387D01*
X131318319Y-104768977D01*
X131126444Y-104926444D01*
X131066784Y-104999140D01*
X128410297Y-107655628D01*
X128425812Y-107604482D01*
X128438072Y-107480000D01*
X128438072Y-105880000D01*
X128425812Y-105755518D01*
X128389502Y-105635820D01*
X128330537Y-105525506D01*
X128251185Y-105428815D01*
X128154494Y-105349463D01*
X128044180Y-105290498D01*
X127924482Y-105254188D01*
X127800000Y-105241928D01*
X126200000Y-105241928D01*
X126075518Y-105254188D01*
X125955820Y-105290498D01*
X125845506Y-105349463D01*
X125748815Y-105428815D01*
X125669463Y-105525506D01*
X125610498Y-105635820D01*
X125574188Y-105755518D01*
X125561928Y-105880000D01*
X125561928Y-107480000D01*
X125574188Y-107604482D01*
X125610498Y-107724180D01*
X125669463Y-107834494D01*
X125748815Y-107931185D01*
X125845506Y-108010537D01*
X125955820Y-108069502D01*
X126075518Y-108105812D01*
X126200000Y-108118072D01*
X127800000Y-108118072D01*
X127924482Y-108105812D01*
X128011718Y-108079349D01*
X127948387Y-108156518D01*
X127771495Y-108487461D01*
X127741907Y-108585000D01*
X126906418Y-108585000D01*
X126626555Y-108612564D01*
X126267461Y-108721494D01*
X125936518Y-108898387D01*
X125646444Y-109136444D01*
X125408387Y-109426518D01*
X125231494Y-109757461D01*
X125122564Y-110116555D01*
X125085783Y-110490000D01*
X125122564Y-110863445D01*
X125231494Y-111222539D01*
X125408387Y-111553482D01*
X125646444Y-111843556D01*
X125936518Y-112081613D01*
X126267461Y-112258506D01*
X126626555Y-112367436D01*
X126906418Y-112395000D01*
X127635001Y-112395000D01*
X127635000Y-121899794D01*
X127418574Y-121810147D01*
X127141335Y-121755000D01*
X126858665Y-121755000D01*
X126581426Y-121810147D01*
X126320273Y-121918320D01*
X126085241Y-122075363D01*
X125885363Y-122275241D01*
X125728320Y-122510273D01*
X125620147Y-122771426D01*
X125565000Y-123048665D01*
X125565000Y-123331335D01*
X125620147Y-123608574D01*
X125728320Y-123869727D01*
X125885363Y-124104759D01*
X126085241Y-124304637D01*
X126320273Y-124461680D01*
X126581426Y-124569853D01*
X126858665Y-124625000D01*
X127141335Y-124625000D01*
X127418574Y-124569853D01*
X127635000Y-124480206D01*
X127635000Y-125709794D01*
X127418574Y-125620147D01*
X127141335Y-125565000D01*
X126858665Y-125565000D01*
X126581426Y-125620147D01*
X126320273Y-125728320D01*
X126085241Y-125885363D01*
X125885363Y-126085241D01*
X125730000Y-126317759D01*
X125574637Y-126085241D01*
X125374759Y-125885363D01*
X125139727Y-125728320D01*
X124878574Y-125620147D01*
X124601335Y-125565000D01*
X124318665Y-125565000D01*
X124041426Y-125620147D01*
X123780273Y-125728320D01*
X123545241Y-125885363D01*
X123345363Y-126085241D01*
X123190000Y-126317759D01*
X123034637Y-126085241D01*
X122834759Y-125885363D01*
X122599727Y-125728320D01*
X122338574Y-125620147D01*
X122061335Y-125565000D01*
X121778665Y-125565000D01*
X121501426Y-125620147D01*
X121240273Y-125728320D01*
X121005241Y-125885363D01*
X120805363Y-126085241D01*
X120650000Y-126317759D01*
X120494637Y-126085241D01*
X120294759Y-125885363D01*
X120059727Y-125728320D01*
X119798574Y-125620147D01*
X119521335Y-125565000D01*
X119238665Y-125565000D01*
X118961426Y-125620147D01*
X118700273Y-125728320D01*
X118465241Y-125885363D01*
X118265363Y-126085241D01*
X118108320Y-126320273D01*
X118000147Y-126581426D01*
X117945000Y-126858665D01*
X102486524Y-126858665D01*
X102502312Y-126811917D01*
X101600000Y-125909605D01*
X100697688Y-126811917D01*
X87020000Y-126811917D01*
X87020000Y-125795562D01*
X100033824Y-125795562D01*
X100076708Y-126099848D01*
X100178132Y-126389921D01*
X100261347Y-126545607D01*
X100518083Y-126632312D01*
X101420395Y-125730000D01*
X101779605Y-125730000D01*
X102681917Y-126632312D01*
X102938653Y-126545607D01*
X103072048Y-126268777D01*
X103148873Y-125971243D01*
X103166176Y-125664438D01*
X103123292Y-125360152D01*
X103021868Y-125070079D01*
X102938653Y-124914393D01*
X102681917Y-124827688D01*
X101779605Y-125730000D01*
X101420395Y-125730000D01*
X100518083Y-124827688D01*
X100261347Y-124914393D01*
X100127952Y-125191223D01*
X100051127Y-125488757D01*
X100033824Y-125795562D01*
X87020000Y-125795562D01*
X87020000Y-124648083D01*
X100697688Y-124648083D01*
X101600000Y-125550395D01*
X102502312Y-124648083D01*
X102415607Y-124391347D01*
X102138777Y-124257952D01*
X101841243Y-124181127D01*
X101534438Y-124163824D01*
X101230152Y-124206708D01*
X100940079Y-124308132D01*
X100784393Y-124391347D01*
X100697688Y-124648083D01*
X87020000Y-124648083D01*
X87020000Y-123539040D01*
X115448091Y-123539040D01*
X115542930Y-123803881D01*
X115687615Y-124045131D01*
X115876586Y-124253519D01*
X116102580Y-124421037D01*
X116356913Y-124541246D01*
X116490961Y-124581904D01*
X116713000Y-124459915D01*
X116713000Y-123317000D01*
X116967000Y-123317000D01*
X116967000Y-124459915D01*
X117189039Y-124581904D01*
X117323087Y-124541246D01*
X117577420Y-124421037D01*
X117803414Y-124253519D01*
X117992385Y-124045131D01*
X118137070Y-123803881D01*
X118231909Y-123539040D01*
X120528091Y-123539040D01*
X120622930Y-123803881D01*
X120767615Y-124045131D01*
X120956586Y-124253519D01*
X121182580Y-124421037D01*
X121436913Y-124541246D01*
X121570961Y-124581904D01*
X121793000Y-124459915D01*
X121793000Y-123317000D01*
X122047000Y-123317000D01*
X122047000Y-124459915D01*
X122269039Y-124581904D01*
X122403087Y-124541246D01*
X122657420Y-124421037D01*
X122883414Y-124253519D01*
X123072385Y-124045131D01*
X123217070Y-123803881D01*
X123311909Y-123539040D01*
X123190624Y-123317000D01*
X122047000Y-123317000D01*
X121793000Y-123317000D01*
X120649376Y-123317000D01*
X120528091Y-123539040D01*
X118231909Y-123539040D01*
X118110624Y-123317000D01*
X116967000Y-123317000D01*
X116713000Y-123317000D01*
X115569376Y-123317000D01*
X115448091Y-123539040D01*
X87020000Y-123539040D01*
X87020000Y-122840960D01*
X115448091Y-122840960D01*
X115569376Y-123063000D01*
X116713000Y-123063000D01*
X116713000Y-121920085D01*
X116967000Y-121920085D01*
X116967000Y-123063000D01*
X118110624Y-123063000D01*
X118231909Y-122840960D01*
X120528091Y-122840960D01*
X120649376Y-123063000D01*
X121793000Y-123063000D01*
X121793000Y-121920085D01*
X122047000Y-121920085D01*
X122047000Y-123063000D01*
X123190624Y-123063000D01*
X123311909Y-122840960D01*
X123217070Y-122576119D01*
X123072385Y-122334869D01*
X122883414Y-122126481D01*
X122657420Y-121958963D01*
X122403087Y-121838754D01*
X122269039Y-121798096D01*
X122047000Y-121920085D01*
X121793000Y-121920085D01*
X121570961Y-121798096D01*
X121436913Y-121838754D01*
X121182580Y-121958963D01*
X120956586Y-122126481D01*
X120767615Y-122334869D01*
X120622930Y-122576119D01*
X120528091Y-122840960D01*
X118231909Y-122840960D01*
X118137070Y-122576119D01*
X117992385Y-122334869D01*
X117803414Y-122126481D01*
X117577420Y-121958963D01*
X117323087Y-121838754D01*
X117189039Y-121798096D01*
X116967000Y-121920085D01*
X116713000Y-121920085D01*
X116490961Y-121798096D01*
X116356913Y-121838754D01*
X116102580Y-121958963D01*
X115876586Y-122126481D01*
X115687615Y-122334869D01*
X115542930Y-122576119D01*
X115448091Y-122840960D01*
X87020000Y-122840960D01*
X87020000Y-117956353D01*
X107660000Y-117956353D01*
X107660000Y-118263647D01*
X107719950Y-118565035D01*
X107837546Y-118848937D01*
X108008269Y-119104442D01*
X108225558Y-119321731D01*
X108481063Y-119492454D01*
X108764965Y-119610050D01*
X109066353Y-119670000D01*
X109373647Y-119670000D01*
X109675035Y-119610050D01*
X109958937Y-119492454D01*
X110214442Y-119321731D01*
X110431731Y-119104442D01*
X110602454Y-118848937D01*
X110720050Y-118565035D01*
X110780000Y-118263647D01*
X110780000Y-117956353D01*
X110720050Y-117654965D01*
X110602454Y-117371063D01*
X110431731Y-117115558D01*
X110214442Y-116898269D01*
X109958937Y-116727546D01*
X109675035Y-116609950D01*
X109373647Y-116550000D01*
X109066353Y-116550000D01*
X108764965Y-116609950D01*
X108481063Y-116727546D01*
X108225558Y-116898269D01*
X108008269Y-117115558D01*
X107837546Y-117371063D01*
X107719950Y-117654965D01*
X107660000Y-117956353D01*
X87020000Y-117956353D01*
X87020000Y-109565000D01*
X100036928Y-109565000D01*
X100036928Y-111415000D01*
X100049188Y-111539482D01*
X100085498Y-111659180D01*
X100144463Y-111769494D01*
X100223815Y-111866185D01*
X100320506Y-111945537D01*
X100430820Y-112004502D01*
X100550518Y-112040812D01*
X100675000Y-112053072D01*
X102525000Y-112053072D01*
X102649482Y-112040812D01*
X102769180Y-112004502D01*
X102879494Y-111945537D01*
X102976185Y-111866185D01*
X103055537Y-111769494D01*
X103114502Y-111659180D01*
X103150812Y-111539482D01*
X103163072Y-111415000D01*
X103163072Y-110348665D01*
X115405000Y-110348665D01*
X115405000Y-110631335D01*
X115460147Y-110908574D01*
X115568320Y-111169727D01*
X115725363Y-111404759D01*
X115925241Y-111604637D01*
X116160273Y-111761680D01*
X116421426Y-111869853D01*
X116698665Y-111925000D01*
X116981335Y-111925000D01*
X117258574Y-111869853D01*
X117519727Y-111761680D01*
X117754759Y-111604637D01*
X117954637Y-111404759D01*
X118111680Y-111169727D01*
X118219853Y-110908574D01*
X118275000Y-110631335D01*
X118275000Y-110348665D01*
X120485000Y-110348665D01*
X120485000Y-110631335D01*
X120540147Y-110908574D01*
X120648320Y-111169727D01*
X120805363Y-111404759D01*
X121005241Y-111604637D01*
X121240273Y-111761680D01*
X121501426Y-111869853D01*
X121778665Y-111925000D01*
X122061335Y-111925000D01*
X122338574Y-111869853D01*
X122599727Y-111761680D01*
X122834759Y-111604637D01*
X123034637Y-111404759D01*
X123191680Y-111169727D01*
X123299853Y-110908574D01*
X123355000Y-110631335D01*
X123355000Y-110348665D01*
X123299853Y-110071426D01*
X123191680Y-109810273D01*
X123034637Y-109575241D01*
X122834759Y-109375363D01*
X122599727Y-109218320D01*
X122338574Y-109110147D01*
X122061335Y-109055000D01*
X121778665Y-109055000D01*
X121501426Y-109110147D01*
X121240273Y-109218320D01*
X121005241Y-109375363D01*
X120805363Y-109575241D01*
X120648320Y-109810273D01*
X120540147Y-110071426D01*
X120485000Y-110348665D01*
X118275000Y-110348665D01*
X118219853Y-110071426D01*
X118111680Y-109810273D01*
X117954637Y-109575241D01*
X117754759Y-109375363D01*
X117519727Y-109218320D01*
X117258574Y-109110147D01*
X116981335Y-109055000D01*
X116698665Y-109055000D01*
X116421426Y-109110147D01*
X116160273Y-109218320D01*
X115925241Y-109375363D01*
X115725363Y-109575241D01*
X115568320Y-109810273D01*
X115460147Y-110071426D01*
X115405000Y-110348665D01*
X103163072Y-110348665D01*
X103163072Y-109565000D01*
X103150812Y-109440518D01*
X103114502Y-109320820D01*
X103055537Y-109210506D01*
X102976185Y-109113815D01*
X102879494Y-109034463D01*
X102769180Y-108975498D01*
X102649482Y-108939188D01*
X102525000Y-108926928D01*
X100675000Y-108926928D01*
X100550518Y-108939188D01*
X100430820Y-108975498D01*
X100320506Y-109034463D01*
X100223815Y-109113815D01*
X100144463Y-109210506D01*
X100085498Y-109320820D01*
X100049188Y-109440518D01*
X100036928Y-109565000D01*
X87020000Y-109565000D01*
X87020000Y-106538665D01*
X112865000Y-106538665D01*
X112865000Y-106821335D01*
X112920147Y-107098574D01*
X113028320Y-107359727D01*
X113185363Y-107594759D01*
X113385241Y-107794637D01*
X113620273Y-107951680D01*
X113881426Y-108059853D01*
X114158665Y-108115000D01*
X114441335Y-108115000D01*
X114718574Y-108059853D01*
X114979727Y-107951680D01*
X115214759Y-107794637D01*
X115414637Y-107594759D01*
X115571680Y-107359727D01*
X115679853Y-107098574D01*
X115735000Y-106821335D01*
X115735000Y-106538665D01*
X115679853Y-106261426D01*
X115571680Y-106000273D01*
X115414637Y-105765241D01*
X115214759Y-105565363D01*
X114979727Y-105408320D01*
X114718574Y-105300147D01*
X114441335Y-105245000D01*
X114158665Y-105245000D01*
X113881426Y-105300147D01*
X113620273Y-105408320D01*
X113385241Y-105565363D01*
X113185363Y-105765241D01*
X113028320Y-106000273D01*
X112920147Y-106261426D01*
X112865000Y-106538665D01*
X87020000Y-106538665D01*
X87020000Y-97790000D01*
X89270554Y-97790000D01*
X89312239Y-98213238D01*
X89435693Y-98620211D01*
X89601928Y-98931214D01*
X89601928Y-98990000D01*
X89614188Y-99114482D01*
X89650498Y-99234180D01*
X89709463Y-99344494D01*
X89788815Y-99441185D01*
X89885506Y-99520537D01*
X89995820Y-99579502D01*
X90115518Y-99615812D01*
X90240000Y-99628072D01*
X90298786Y-99628072D01*
X90609789Y-99794307D01*
X91016762Y-99917761D01*
X91333939Y-99949000D01*
X98953942Y-99949000D01*
X99060000Y-99959446D01*
X99166058Y-99949000D01*
X99166061Y-99949000D01*
X99483238Y-99917761D01*
X99890211Y-99794307D01*
X100265280Y-99593828D01*
X100594030Y-99324030D01*
X100661644Y-99241642D01*
X105055216Y-94848072D01*
X105640000Y-94848072D01*
X105764482Y-94835812D01*
X105884180Y-94799502D01*
X105994494Y-94740537D01*
X106091185Y-94661185D01*
X106170537Y-94564494D01*
X106229502Y-94454180D01*
X106265812Y-94334482D01*
X106278072Y-94210000D01*
X106278072Y-93028540D01*
X106309446Y-92710000D01*
X106278072Y-92391460D01*
X106278072Y-91210000D01*
X106265812Y-91085518D01*
X106229502Y-90965820D01*
X106170537Y-90855506D01*
X106091185Y-90758815D01*
X105994494Y-90679463D01*
X105884180Y-90620498D01*
X105764482Y-90584188D01*
X105640000Y-90571928D01*
X104458540Y-90571928D01*
X104140000Y-90540554D01*
X103821460Y-90571928D01*
X102640000Y-90571928D01*
X102515518Y-90584188D01*
X102395820Y-90620498D01*
X102285506Y-90679463D01*
X102188815Y-90758815D01*
X102109463Y-90855506D01*
X102050498Y-90965820D01*
X102014188Y-91085518D01*
X102001928Y-91210000D01*
X102001928Y-91794784D01*
X98165714Y-95631000D01*
X91333939Y-95631000D01*
X91016762Y-95662239D01*
X90609789Y-95785693D01*
X90298786Y-95951928D01*
X90240000Y-95951928D01*
X90115518Y-95964188D01*
X89995820Y-96000498D01*
X89885506Y-96059463D01*
X89788815Y-96138815D01*
X89709463Y-96235506D01*
X89650498Y-96345820D01*
X89614188Y-96465518D01*
X89601928Y-96590000D01*
X89601928Y-96648786D01*
X89435693Y-96959789D01*
X89312239Y-97366762D01*
X89270554Y-97790000D01*
X87020000Y-97790000D01*
X87020000Y-92710000D01*
X89270554Y-92710000D01*
X89312239Y-93133238D01*
X89435693Y-93540211D01*
X89636172Y-93915280D01*
X89905970Y-94244030D01*
X90234720Y-94513828D01*
X90609789Y-94714307D01*
X91016762Y-94837761D01*
X91333939Y-94869000D01*
X95143942Y-94869000D01*
X95250000Y-94879446D01*
X95356058Y-94869000D01*
X95356061Y-94869000D01*
X95673238Y-94837761D01*
X96080211Y-94714307D01*
X96455280Y-94513828D01*
X96784030Y-94244030D01*
X96851644Y-94161642D01*
X100661640Y-90351647D01*
X100661644Y-90351642D01*
X105591653Y-85421635D01*
X105674030Y-85354030D01*
X105741635Y-85271653D01*
X105741640Y-85271648D01*
X105943828Y-85025280D01*
X106144306Y-84650212D01*
X106144307Y-84650211D01*
X106267761Y-84243238D01*
X106299000Y-83926061D01*
X106299000Y-83926058D01*
X106309446Y-83820000D01*
X106299000Y-83713942D01*
X106299000Y-83451653D01*
X141327952Y-83451653D01*
X141483962Y-83767214D01*
X141858745Y-83958020D01*
X142263551Y-84072044D01*
X142682824Y-84104902D01*
X143100451Y-84055334D01*
X143123802Y-84047738D01*
X169855000Y-84047738D01*
X169855000Y-84862262D01*
X170013906Y-85661135D01*
X170325611Y-86413657D01*
X170778136Y-87090909D01*
X171354091Y-87666864D01*
X172031343Y-88119389D01*
X172783865Y-88431094D01*
X173582738Y-88590000D01*
X174397262Y-88590000D01*
X175196135Y-88431094D01*
X175948657Y-88119389D01*
X176625909Y-87666864D01*
X177201864Y-87090909D01*
X177654389Y-86413657D01*
X177966094Y-85661135D01*
X178125000Y-84862262D01*
X178125000Y-84047738D01*
X177966094Y-83248865D01*
X177654389Y-82496343D01*
X177201864Y-81819091D01*
X176625909Y-81243136D01*
X175948657Y-80790611D01*
X175196135Y-80478906D01*
X174397262Y-80320000D01*
X173582738Y-80320000D01*
X172783865Y-80478906D01*
X172031343Y-80790611D01*
X171354091Y-81243136D01*
X170778136Y-81819091D01*
X170325611Y-82496343D01*
X170013906Y-83248865D01*
X169855000Y-84047738D01*
X143123802Y-84047738D01*
X143500383Y-83925243D01*
X143796038Y-83767214D01*
X143952048Y-83451653D01*
X142640000Y-82139605D01*
X141327952Y-83451653D01*
X106299000Y-83451653D01*
X106299000Y-82002824D01*
X140495098Y-82002824D01*
X140544666Y-82420451D01*
X140674757Y-82820383D01*
X140832786Y-83116038D01*
X141148347Y-83272048D01*
X142460395Y-81960000D01*
X142819605Y-81960000D01*
X144131653Y-83272048D01*
X144447214Y-83116038D01*
X144638020Y-82741255D01*
X144747465Y-82352702D01*
X151586903Y-82352702D01*
X151658486Y-82596671D01*
X151913996Y-82717571D01*
X152188184Y-82786300D01*
X152470512Y-82800217D01*
X152750130Y-82758787D01*
X153016292Y-82663603D01*
X153141514Y-82596671D01*
X153213097Y-82352702D01*
X152400000Y-81539605D01*
X151586903Y-82352702D01*
X144747465Y-82352702D01*
X144752044Y-82336449D01*
X144784902Y-81917176D01*
X144735334Y-81499549D01*
X144712878Y-81430512D01*
X150959783Y-81430512D01*
X151001213Y-81710130D01*
X151096397Y-81976292D01*
X151163329Y-82101514D01*
X151407298Y-82173097D01*
X152220395Y-81360000D01*
X152579605Y-81360000D01*
X153392702Y-82173097D01*
X153636671Y-82101514D01*
X153757571Y-81846004D01*
X153826300Y-81571816D01*
X153840217Y-81289488D01*
X153798787Y-81009870D01*
X153703603Y-80743708D01*
X153636671Y-80618486D01*
X153392702Y-80546903D01*
X152579605Y-81360000D01*
X152220395Y-81360000D01*
X151407298Y-80546903D01*
X151163329Y-80618486D01*
X151042429Y-80873996D01*
X150973700Y-81148184D01*
X150959783Y-81430512D01*
X144712878Y-81430512D01*
X144605243Y-81099617D01*
X144447214Y-80803962D01*
X144131653Y-80647952D01*
X142819605Y-81960000D01*
X142460395Y-81960000D01*
X141148347Y-80647952D01*
X140832786Y-80803962D01*
X140641980Y-81178745D01*
X140527956Y-81583551D01*
X140495098Y-82002824D01*
X106299000Y-82002824D01*
X106299000Y-81853940D01*
X106267761Y-81536762D01*
X106144307Y-81129789D01*
X105943828Y-80754720D01*
X105708808Y-80468347D01*
X141327952Y-80468347D01*
X142640000Y-81780395D01*
X143952048Y-80468347D01*
X143902091Y-80367298D01*
X151586903Y-80367298D01*
X152400000Y-81180395D01*
X153213097Y-80367298D01*
X153141514Y-80123329D01*
X152886004Y-80002429D01*
X152611816Y-79933700D01*
X152329488Y-79919783D01*
X152049870Y-79961213D01*
X151783708Y-80056397D01*
X151658486Y-80123329D01*
X151586903Y-80367298D01*
X143902091Y-80367298D01*
X143796038Y-80152786D01*
X143421255Y-79961980D01*
X143016449Y-79847956D01*
X142597176Y-79815098D01*
X142179549Y-79864666D01*
X141779617Y-79994757D01*
X141483962Y-80152786D01*
X141327952Y-80468347D01*
X105708808Y-80468347D01*
X105674030Y-80425970D01*
X105345280Y-80156172D01*
X104970211Y-79955693D01*
X104563238Y-79832239D01*
X104140000Y-79790554D01*
X103716763Y-79832239D01*
X103309790Y-79955693D01*
X102934721Y-80156172D01*
X102605971Y-80425970D01*
X102336173Y-80754720D01*
X102135694Y-81129789D01*
X102012239Y-81536762D01*
X101981000Y-81853939D01*
X101981000Y-82925712D01*
X97608358Y-87298356D01*
X97608353Y-87298360D01*
X94355714Y-90551000D01*
X91333939Y-90551000D01*
X91016762Y-90582239D01*
X90609789Y-90705693D01*
X90234720Y-90906172D01*
X89905970Y-91175970D01*
X89636172Y-91504720D01*
X89435693Y-91879789D01*
X89312239Y-92286762D01*
X89270554Y-92710000D01*
X87020000Y-92710000D01*
X87020000Y-84047738D01*
X87305000Y-84047738D01*
X87305000Y-84862262D01*
X87463906Y-85661135D01*
X87775611Y-86413657D01*
X88228136Y-87090909D01*
X88804091Y-87666864D01*
X89481343Y-88119389D01*
X90233865Y-88431094D01*
X91032738Y-88590000D01*
X91847262Y-88590000D01*
X92646135Y-88431094D01*
X93398657Y-88119389D01*
X94075909Y-87666864D01*
X94651864Y-87090909D01*
X95104389Y-86413657D01*
X95416094Y-85661135D01*
X95575000Y-84862262D01*
X95575000Y-84047738D01*
X95416094Y-83248865D01*
X95104389Y-82496343D01*
X94651864Y-81819091D01*
X94075909Y-81243136D01*
X93398657Y-80790611D01*
X92646135Y-80478906D01*
X91847262Y-80320000D01*
X91032738Y-80320000D01*
X90233865Y-80478906D01*
X89481343Y-80790611D01*
X88804091Y-81243136D01*
X88228136Y-81819091D01*
X87775611Y-82496343D01*
X87463906Y-83248865D01*
X87305000Y-84047738D01*
X87020000Y-84047738D01*
X87020000Y-78765000D01*
X178410000Y-78765000D01*
X178410001Y-137770000D01*
G37*
%TD.AperFunction*%
%TD*%
M02*
